<?xml version="1.0" encoding="UTF-8"?>
<svg width="628px" height="618px" viewBox="0 0 628 618" version="1.1" xmlns="http://www.w3.org/2000/svg" xmlns:xlink="http://www.w3.org/1999/xlink">
    <!-- Generator: Sketch 51.3 (57544) - http://www.bohemiancoding.com/sketch -->
    <title>Artboard</title>
    <desc>Created with Sketch.</desc>
    <defs></defs>
    <g id="Artboard" stroke="none" stroke-width="1" fill="none" fill-rule="evenodd">
        <path d="M561.547305,191.493344 C563.729025,189.777935 565.599072,187.03328 565.49518,183.831182 C565.391289,180.743445 563.729025,177.884429 561.651196,175.825938 C559.573367,173.767447 556.97608,172.280758 554.067119,172.052037 C551.054266,171.594595 548.45698,173.881807 546.37915,175.711577 C542.015709,179.371117 538.795073,185.889673 540.353445,192.293868 C541.704034,198.583703 546.067476,203.50121 551.054266,206.474587 C556.041057,209.447963 562.274545,210.70593 567.884684,208.304357 C573.598715,206.017144 577.442699,200.184752 579.312745,194.237999 C581.286683,188.405607 582.013924,181.429609 579.520528,175.139774 C577.131025,168.9643 572.455909,164.389875 567.57301,161.187777 C557.495537,154.897943 546.171367,152.382009 534.951089,151.352763 C524.042485,150.209157 512.510532,152.038927 502.329168,156.842073 C518.01678,143.233159 531.834345,126.650867 541.911817,107.895724 C548.353088,97.3745462 557.183863,88.4544171 568.404141,84.5661557 C579.416637,80.5635337 591.364156,80.1060912 603,79.4199274 C591.364156,79.7630093 579.416637,79.6486486 567.988576,83.1938282 C556.456623,86.624647 546.794716,95.6591367 539.833988,106.065954 C539.833988,99.3186769 540.249554,92.2283179 537.652267,85.8241226 C540.145662,92.6857604 539.210639,100.004841 539.106748,107.20956 C528.302035,125.27854 514.48447,140.488503 498.796858,152.953812 C505.549804,142.089552 510.121028,129.509883 509.601571,116.815853 C509.186005,128.366277 504.61478,139.001815 498.485184,148.036305 C500.147447,141.517749 500.459122,134.770472 500.35523,128.251916 C500.043556,119.103066 498.692967,110.068576 497.550161,101.148447 C496.407355,92.2283179 495.160657,83.3081888 495.264548,74.2736991 C495.36844,65.35357 497.238486,56.090359 502.43306,49 C496.926812,55.8616378 494.745091,65.2392094 494.329525,74.2736991 C493.913959,83.4225494 494.745091,92.4570391 495.680114,101.491529 C496.719029,112.813231 498.277401,124.706737 497.238486,135.799718 C497.030703,132.025817 496.511246,128.251916 495.784006,124.706737 C494.745091,120.017951 493.29061,115.329165 491.420564,110.75474 C489.03106,101.034086 485.810425,91.5421541 481.2392,82.7363856 C475.52517,71.8721259 467.421635,62.0371117 456.824705,56.8908834 C467.317744,62.265833 475.213495,72.1008471 480.615851,83.0794675 C484.148161,90.1698265 486.84934,97.7176281 488.823277,105.37979 C484.563727,97.4889068 478.849697,90.5129084 471.369511,86.0528439 C464.720457,82.3933038 457.759729,80.9066156 450.695109,79.4199274 C443.630489,78.1619605 436.461978,77.8188786 429.397358,79.1912061 C422.332738,80.4491731 415.475901,83.6512707 410.177437,88.9118596 C404.878972,94.1724486 401.450553,101.377168 399.684398,108.810609 C401.762228,101.377168 405.398429,94.5155305 410.800785,89.5980234 C416.09925,84.6805163 422.852196,81.8215006 429.709032,80.9066156 C443.422706,79.1912061 457.86362,82.7363856 469.91503,89.1405809 C480.408069,95.887858 487.057122,108.238806 490.173866,121.047196 C487.888254,115.329165 484.667619,110.068576 480.304177,105.837233 C475.109604,100.805365 468.46055,97.7176281 461.499821,97.0314643 C454.539093,96.5740218 447.578365,100.576644 443.526598,106.752118 C439.163156,112.813231 439.267047,122.305163 444.357729,127.794474 C446.643342,130.539129 449.967869,132.711981 453.500179,132.368899 C457.032488,132.025817 460.045341,129.509883 462.12317,126.536507 C464.097108,123.56313 465.447697,119.674869 464.824348,115.900968 C464.201,111.898346 460.460907,109.839855 457.13638,109.725494 C455.474116,109.725494 453.707961,109.611134 452.149589,110.526019 C450.591217,111.440904 449.760086,113.270674 449.656194,115.214804 C449.448411,118.645623 451.422349,123.677491 455.162442,122.876967 C451.422349,123.677491 449.552303,118.531263 449.760086,115.214804 C449.863977,113.385034 450.799,111.555264 452.253481,110.640379 C453.707961,109.725494 455.474116,109.839855 457.13638,109.839855 C460.460907,109.954215 464.097108,112.012707 464.616566,115.900968 C465.239914,119.560508 463.889325,123.334409 461.915387,126.307785 C459.941449,129.281162 456.928597,131.568374 453.60407,131.911456 C450.279543,132.254538 447.058908,130.196047 444.877187,127.451392 C439.890396,122.190803 439.994288,113.156313 444.149946,107.323921 C448.097822,101.377168 454.746876,97.7176281 461.39593,98.1750706 C468.044984,98.8612344 474.486255,101.948971 479.473045,106.866478 C486.641557,113.842477 490.693324,123.906212 492.043913,134.313029 C492.56337,146.206535 489.862192,158.328762 482.485898,166.219645 C479.161371,169.650464 475.52517,172.738201 471.785077,175.711577 C453.500179,190.349738 433.345234,202.014522 413.190289,213.908027 C403.528383,219.626059 393.762585,225.34409 383.996787,231.748286 C384.93181,230.490319 385.762942,229.232352 386.594074,227.974385 C393.243127,218.482453 399.268833,208.304357 403.528383,197.211376 C404.255623,195.152884 404.982863,193.094393 405.606212,191.035902 C408.619065,184.517346 413.501964,179.142396 418.488754,174.33925 C424.826134,168.621218 431.994645,163.589351 440.098179,161.416499 C444.046055,160.387253 448.513388,160.387253 452.045698,162.674466 C455.474116,165.076039 457.86362,169.421743 458.279186,173.881807 C458.486969,178.684954 454.019636,181.887051 449.967869,181.887051 C447.890039,182.001412 445.81221,181.429609 444.149946,180.057281 C442.487683,178.570593 442.072117,176.054659 442.591574,173.767447 C442.072117,175.940299 442.383792,178.570593 444.149946,180.057281 C445.81221,181.543969 447.890039,182.115772 449.967869,182.001412 C454.019636,182.001412 458.694752,178.799314 458.486969,173.767447 C458.175295,169.193021 455.785791,164.847317 452.253481,162.217023 C448.61728,159.81545 444.046055,159.81545 439.994288,160.730335 C431.786862,162.788826 424.514459,167.820694 418.073188,173.538725 C413.917529,177.426987 409.761871,181.772691 406.645127,186.918919 C408.619065,178.684954 409.346305,170.107906 407.891824,161.873941 C409.242413,172.052037 407.476258,182.458854 404.151732,191.950787 C403.840057,192.63695 403.632274,193.323114 403.424491,194.009278 C403.112817,194.924163 402.697251,195.724687 402.385577,196.525212 C401.762228,198.0119 401.138879,199.384228 400.51553,200.756555 C401.866119,195.152884 402.385577,189.320492 401.554445,183.602461 C400.723313,178.684954 398.853267,174.110528 395.944306,170.222267 C393.139236,166.448366 389.087469,163.246269 384.516244,163.131908 C379.94502,163.017547 375.581578,165.990924 373.399857,170.450988 C371.529811,175.025413 372.464834,180.629084 375.166012,184.517346 C376.516601,186.461476 378.594431,188.062525 380.880043,187.948165 C383.165655,187.833804 385.243484,186.461476 386.594074,184.517346 C387.73688,182.344494 387.425205,179.599839 386.282399,177.426987 C385.243484,175.025413 382.230632,174.682332 380.67226,176.626462 C382.230632,174.682332 385.243484,175.139774 386.282399,177.541347 C387.321314,179.599839 387.73688,182.344494 386.490182,184.517346 C385.139593,186.347116 383.061764,187.833804 380.880043,187.833804 C378.698322,187.833804 376.620493,186.347116 375.373795,184.402985 C372.776508,180.514724 371.945377,175.139774 373.815423,170.67971 C375.893252,166.562727 380.256694,163.589351 384.516244,163.818072 C393.45091,164.847317 399.372724,174.682332 400.827205,183.945543 C401.866119,191.378983 400.619422,199.041146 398.022135,206.017144 C394.178151,213.221864 389.606926,219.85478 384.827919,226.373336 C381.918958,230.261597 378.802213,234.149859 375.685469,237.809399 C368.205284,243.641791 361.244556,250.045986 354.49161,256.678903 C353.868261,257.365067 353.141021,258.05123 352.517672,258.737394 C353.03713,256.564542 353.556587,254.39169 354.076044,252.218838 C359.062835,229.689794 361.867904,206.131505 359.582292,182.801936 C358.543377,171.365873 356.049982,159.358007 351.374866,148.836829 C350.23206,146.092174 349.089254,143.46188 347.842556,140.831585 C346.388076,134.198669 348.154231,126.993949 352.933238,122.419524 C358.335594,116.930214 366.750803,115.100444 373.60764,118.645623 C376.932167,120.361033 379.737237,123.44877 381.815066,126.879589 C383.892895,130.310407 384.827919,134.770472 382.853981,138.430012 C380.983934,141.975192 377.13995,144.148044 373.295966,144.033683 C369.34809,144.262404 365.919672,140.259782 366.127454,135.799718 C365.81578,140.145422 369.140307,144.491125 373.295966,144.491125 C377.243841,144.719847 381.3995,142.775716 383.685112,138.887455 C385.970725,134.999193 385.139593,129.738604 382.957872,126.079064 C380.880043,122.305163 378.074973,118.874344 374.33488,116.815853 C366.958586,112.58451 357.504463,114.185559 351.167083,120.132311 C347.42699,123.334409 345.141378,128.137555 344.310246,133.283784 C343.686898,131.911456 343.063549,130.539129 342.336308,129.166801 C342.128526,121.962081 345.764727,114.986083 350.647626,109.611134 C356.153874,103.55002 363.01071,98.8612344 369.971439,94.6298911 C377.13995,90.8559903 384.308461,85.709762 389.295252,78.7337636 C391.788647,75.1885841 393.762585,70.9572408 393.554802,66.3828157 C393.970368,62.3801936 395.736523,58.4919322 398.957158,56.7765228 C400.619422,55.9759984 403.424491,56.5478015 403.840057,58.8350141 C403.840057,59.9786204 403.112817,61.0078661 402.177794,61.350948 C401.138879,61.8083905 400.203856,61.0078661 399.892181,59.8642598 C400.203856,60.8935054 401.24277,61.8083905 402.281685,61.350948 C403.216708,61.0078661 403.943949,59.9786204 403.943949,58.8350141 C403.528383,56.4334409 400.723313,55.9759984 398.957158,56.6621622 C395.944306,58.263211 394.074259,61.6940299 393.45091,65.35357 C392.931453,61.2365873 390.230275,57.8057685 387.321314,55.4041952 C390.438058,58.1488503 393.035345,62.0371117 393.139236,66.3828157 C393.243127,70.7285196 391.165298,74.8455022 388.671903,78.0475998 C383.47733,84.794877 376.620493,89.2549415 369.244199,92.800121 C362.075687,96.802743 354.907176,101.262808 348.881471,107.438282 C344.829704,111.440904 341.193502,116.930214 339.63513,123.105688 C338.90789,121.504639 338.18065,119.90359 337.557301,118.302541 C336.830061,116.587132 336.206712,114.986083 335.583363,113.270674 C332.051053,98.975595 337.037844,81.3640581 348.777579,73.358814 C351.894323,71.4146833 355.946091,70.9572408 358.958943,72.7870109 C362.075687,74.7311416 363.114602,79.3055668 362.28347,83.1938282 C361.660121,87.0820896 358.231703,90.8559903 354.49161,89.2549415 C352.725455,88.797499 351.063192,87.0820896 351.270975,84.9092376 C351.478758,82.8507463 353.141021,81.0209762 355.114959,81.2496975 C353.141021,81.0209762 351.270975,82.7363856 351.063192,84.9092376 C350.751517,87.1964502 352.517672,89.1405809 354.283827,89.712384 C358.231703,91.6565147 362.387362,87.6538927 363.114602,83.4225494 C364.153517,79.3055668 363.322385,74.0449778 359.686184,71.529044 C356.049982,69.1274708 351.582649,69.6992739 348.050339,71.6434046 C340.881828,75.7603873 336.310603,83.4225494 333.609425,91.5421541 C332.778293,94.2868092 332.051053,97.1458249 331.739379,100.119201 C330.908247,95.6591367 330.700464,91.1990722 331.323813,86.7390077 C332.882185,75.7603873 340.466262,66.9546188 348.985362,60.8935054 C340.154588,66.268455 331.531596,74.5024203 329.038201,86.1672045 C326.544805,97.8319887 329.661549,109.725494 333.297751,120.361033 C335.167797,125.735982 337.245627,130.996571 339.323456,136.25716 C334.024991,128.251916 327.687612,121.161557 320.5191,115.329165 C309.714388,106.637757 296.520171,100.576644 283.014281,101.148447 C296.520171,101.148447 309.298822,107.667003 319.584077,116.701493 C326.025348,122.305163 331.635487,128.93808 336.310603,136.371521 C335.271689,135.227914 334.128883,134.084308 332.986076,132.940702 C323.428061,123.791852 311.896109,116.815853 299.22135,114.528641 C292.987861,113.499395 286.234916,113.956837 280.520885,117.387656 C274.910746,121.047196 271.378436,127.565752 269.820064,134.198669 C269.092824,137.629488 269.716173,141.74647 272.417351,143.919322 C274.910746,146.206535 278.339165,146.892699 281.455909,146.435256 C284.468761,145.977814 288.001071,144.491125 288.936094,140.945946 C289.663335,137.286406 287.273831,134.313029 285.09211,131.911456 C287.169939,134.198669 289.559443,137.400766 288.728311,140.831585 C287.793288,144.262404 284.36487,145.634732 281.352017,145.977814 C278.339165,146.320896 275.014638,145.634732 272.729025,143.46188 C270.23563,141.289028 269.820064,137.515127 270.547305,134.313029 C272.209568,127.908834 275.741878,121.619 281.144234,118.302541 C286.546591,115.100444 292.987861,114.757362 299.013567,115.900968 C311.168868,118.302541 322.389147,125.3929 331.531596,134.42739 C336.10282,139.001815 340.154588,144.262404 343.479115,149.980436 C344.725812,152.267648 345.660835,154.097418 346.491967,155.812828 C349.089254,164.732957 350.128169,173.767447 350.439843,183.259379 C351.270975,225.001008 336.726169,264.798507 319.687969,302.423154 C319.480186,290.872731 319.895752,279.093586 320.103534,267.200081 C320.415209,247.415692 320.311317,226.945139 314.80507,207.503832 C314.181721,205.21662 313.558372,203.043768 312.72724,200.870916 C311.064977,186.004034 313.454481,169.764825 323.428061,158.671843 C314.181721,168.163776 310.649411,182.344494 310.857194,196.18213 C304.727597,181.543969 294.857908,168.9643 283.222064,159.81545 C293.715102,169.421743 302.026419,181.65833 307.117101,195.381605 C303.4809,190.235377 298.805784,185.775313 292.987861,183.602461 C285.507676,180.743445 276.365227,181.772691 270.443413,188.062525 C264.417708,194.46672 264.002142,204.987898 267.846126,212.5357 C272.001785,219.969141 279.585862,224.772287 287.481614,224.772287 C291.429489,224.772287 295.481257,222.828157 297.766869,219.168616 C299.94859,215.509076 300.883613,211.049012 300.156373,206.817668 C299.429132,202.586325 297.247412,198.698064 294.234559,196.067769 C291.325598,193.323114 286.754373,192.293868 283.325955,194.581081 C280.209211,196.525212 276.884684,200.985276 278.962513,205.102259 C279.897537,206.932029 281.663692,208.304357 283.533738,208.418717 C285.507676,208.647438 287.169939,206.703308 287.481614,204.644816 C287.169939,206.703308 285.507676,208.533078 283.533738,208.304357 C281.663692,208.189996 280.001428,206.703308 279.066405,204.987898 C277.092467,200.985276 280.313102,196.868294 283.429846,195.038524 C286.754373,192.980032 290.910032,194.009278 293.715102,196.753933 C296.520171,199.384228 298.494109,203.158128 299.117458,207.16075 C299.740807,211.163372 298.805784,215.394716 296.727954,218.711174 C294.650125,222.027632 290.910032,223.628681 287.273831,223.628681 C280.001428,223.51432 272.729025,218.711174 269.092824,211.849536 C265.664406,204.987898 266.287754,195.267245 271.690111,190.006656 C276.988576,184.631706 285.196001,183.831182 291.948947,186.575837 C298.701892,189.320492 303.896466,195.610327 307.532667,202.586325 C308.883256,205.33098 310.129954,208.075635 311.064977,211.049012 C314.493395,229.346712 313.246698,248.216216 311.688326,266.971359 C310.026062,286.527027 307.74045,306.425777 308.571582,326.896329 C308.571582,328.268657 308.675473,329.755345 308.779365,331.127672 C308.052124,329.297902 307.324884,327.353772 306.597644,325.524002 C300.468047,310.314038 292.987861,295.904599 284.676544,282.066962 C267.950018,254.620411 248.106748,229.346712 224.93895,208.189996 C221.510532,202.586325 220.6794,197.440097 221.822206,192.179508 C223.796144,182.458854 231.172438,172.62384 240.626562,172.395119 C245.301678,172.395119 249.041771,176.969544 250.080685,181.887051 C251.1196,186.804558 248.833988,192.52259 244.678329,194.924163 C240.52267,197.440097 234.600857,195.381605 232.73081,190.578459 C231.899679,188.176886 232.107462,185.203509 233.665834,183.145018 C235.120314,180.743445 238.237058,181.086527 239.899322,183.030658 C238.237058,181.086527 235.016423,180.743445 233.561942,183.145018 C232.00357,185.203509 231.588004,188.176886 232.523027,190.69282 C234.496965,195.724687 240.626562,198.0119 244.990004,195.495966 C249.457337,193.094393 251.950732,187.14764 251.015709,181.772691 C249.976794,176.512102 246.028918,171.480234 240.834345,171.251513 C235.743663,171.022791 231.068547,174.110528 227.640129,177.770069 C224.107819,181.543969 221.614423,186.461476 220.471617,191.836426 C219.640486,195.953409 219.744377,200.413473 220.887183,204.416095 C212.88754,197.554457 204.576223,191.150262 195.745448,185.775313 C187.849697,177.770069 180.785077,168.621218 176.73331,157.871319 C171.850411,145.749092 172.577651,131.110932 179.538379,120.132311 C186.291325,109.03933 197.096037,101.377168 208.524099,97.2601856 C219.95216,93.2575635 233.042485,92.2283179 243.951089,98.1750706 C249.353445,101.148447 253.716887,106.180315 256.002499,112.355789 C258.392003,118.531263 258.91146,125.3929 258.495894,132.025817 C258.288111,135.342275 257.872546,138.773094 256.937522,141.860831 C255.898608,144.948568 254.132453,147.693223 251.950732,149.980436 C247.58729,154.554861 241.769368,157.413877 235.743663,158.557483 C229.821849,159.701089 223.276687,159.129286 217.978222,155.812828 C212.679757,152.49637 209.043556,146.206535 208.524099,139.459258 C208.212424,132.711981 212.991432,126.422146 218.809354,124.592376 C224.93895,122.305163 231.380221,126.879589 233.665834,133.169423 C231.380221,126.879589 224.93895,122.190803 218.705462,124.363655 C212.783649,126.193425 207.796858,132.483259 208.108533,139.459258 C208.62799,146.320896 212.264191,152.839451 217.666548,156.27027 C223.068904,159.81545 229.717958,160.387253 235.847554,159.358007 C241.977151,158.214401 247.898965,155.355385 252.574081,150.666599 C254.859693,148.379387 256.729739,145.40601 257.872546,142.203913 C258.91146,138.887455 259.327026,135.456636 259.534809,132.025817 C260.054266,125.27854 259.6387,118.188181 257.145305,111.783985 C254.755801,105.37979 250.184577,99.89048 244.574438,96.802743 C238.548733,93.3719242 231.899679,92.1139572 225.250625,92.2283179 C226.601214,88.797499 228.990718,85.9384833 232.211353,84.4517951 C235.53588,82.8507463 239.379864,82.9651069 243.016066,83.7656313 C239.483756,82.8507463 235.639772,82.622025 232.107462,84.1087132 C228.679043,85.4810407 225.977865,88.6831384 224.419493,92.3426785 C218.809354,92.5713998 213.199215,93.7150061 208.004641,95.5447761 C196.161014,99.6617588 184.940735,107.438282 177.772224,118.988705 C170.292039,130.424768 169.357015,146.206535 174.343806,159.014925 C177.46055,167.363251 182.135666,174.682332 187.538022,181.200887 C172.681542,170.222267 162.500179,152.267648 158.34452,132.940702 C156.058908,122.762606 155.227776,112.127067 156.26669,101.605889 C157.409497,91.5421541 159.799,79.8773699 168.110318,73.9306172 C159.695109,79.7630093 157.097822,91.3134328 155.747233,101.491529 C154.500536,112.012707 155.227776,122.762606 157.305605,133.169423 C160.630132,149.866075 168.318101,165.876563 179.953945,177.426987 C179.330596,177.198265 178.811139,176.855184 178.18779,176.626462 C171.330953,171.708955 165.40914,164.961678 160.110675,157.871319 C153.149946,148.265026 147.435916,137.515127 142.656908,126.422146 C137.981792,115.214804 134.241699,103.43566 132.16387,91.3134328 C130.293824,79.3055668 129.3588,66.268455 134.449482,54.9467527 C129.151017,66.1540944 129.878258,79.3055668 131.540521,91.4277935 C133.410568,103.664381 136.942878,115.672247 141.410211,126.993949 C145.981435,138.315651 151.591574,149.294272 158.448411,159.243647 C162.084613,164.389875 166.13638,169.421743 170.707604,173.767447 C168.318101,172.966922 165.928597,172.166398 163.539093,171.594595 C157.097822,168.849939 150.55266,167.13453 144.007497,165.762203 C140.059622,163.932432 136.215637,161.75958 132.579436,159.358007 C120.943592,152.038927 112.216708,139.9167 107.126026,126.422146 C104.632631,119.674869 103.178151,112.127067 104.632631,104.922348 C105.359871,101.377168 106.814352,97.8319887 109.411639,95.5447761 C112.008925,93.2575635 115.333452,92.1139572 118.657979,91.9995966 C121.982506,91.885236 125.410925,92.800121 127.90432,95.3160549 C130.397715,97.8319887 130.70939,102.063332 129.3588,105.494151 C128.319886,108.92497 125.514816,112.127067 121.982506,111.555264 C118.554088,111.212182 115.956801,107.20956 116.995716,103.55002 C115.85291,107.20956 118.554088,111.326543 121.982506,111.669625 C125.514816,112.241428 128.423777,108.92497 129.462692,105.494151 C130.813281,102.177693 130.605498,97.7176281 128.008211,95.0873336 C125.514816,92.4570391 121.982506,91.5421541 118.554088,91.5421541 C115.125669,91.6565147 111.697251,92.6857604 109.099964,95.0873336 C106.398786,97.4889068 104.944306,101.148447 104.113174,104.693626 C102.554802,112.012707 104.009282,119.674869 106.398786,126.650867 C111.385577,140.374143 120.216351,152.839451 131.956087,160.387253 C134.345591,161.988302 136.838986,163.47499 139.332381,164.847317 C128.943235,163.017547 118.554088,162.217023 108.268833,160.844695 C99.022492,159.701089 89.7761514,158.443122 80.7375937,156.384631 C71.906819,154.097418 62.348804,151.352763 55.907533,143.804962 C62.1410211,151.581484 71.6990361,154.783582 80.5298108,157.528237 C89.5683684,160.044171 98.814709,161.64522 107.957158,163.246269 C118.242413,165.076039 128.735452,166.448366 138.916815,168.621218 C132.059979,168.163776 125.09925,168.621218 118.346305,169.193021 C106.710461,170.336628 95.2823991,172.280758 83.7504463,173.653086 C77.1013924,174.45361 70.348447,175.139774 63.5955016,175.139774 C62.5565869,175.025413 61.5176723,175.139774 60.4787576,175.139774 C56.6347733,175.025413 52.8946805,174.796692 49.1545876,174.110528 C37.8304177,172.50948 26.4023563,165.990924 21,154.32614 C26.1945734,166.105284 37.6226348,172.966922 49.0506962,174.796692 C51.3363085,175.254135 53.6219207,175.482856 56.0114245,175.711577 C49.9857194,177.083905 44.3755801,180.743445 41.7782935,187.03328 C45.1028204,179.485478 52.8946805,176.16902 60.1670832,175.940299 C61.2059979,175.940299 62.348804,176.054659 63.3877187,176.054659 C70.348447,176.16902 77.1013924,175.597217 83.8543377,175.025413 C95.4901821,173.881807 106.918243,172.166398 118.554088,171.251513 C119.281328,171.251513 120.11246,171.137152 120.8397,171.137152 C120.216351,171.365873 119.593002,171.594595 118.969654,171.708955 C94.3473759,176.512102 71.3873617,190.921541 54.9725098,211.506454 C49.466262,218.368092 44.4794716,225.915894 40.7393788,234.149859 C37.3109604,242.269463 33.674759,251.532674 36.0642628,260.681525 C36.791503,262.968737 38.349875,264.684147 40.0121385,265.942114 C41.674402,267.314441 43.6483399,268.343687 45.8300607,268.572408 C50.2973938,269.029851 53.8297037,264.684147 54.7647269,260.338443 C55.2841842,258.05123 55.1802928,255.649657 54.2452695,253.591166 C53.2063549,251.532674 51.3363085,250.045986 49.2584791,249.702904 C44.791146,248.673659 41.3627276,254.506051 42.8172081,258.851755 C41.3627276,254.506051 44.791146,248.788019 49.2584791,249.817265 C51.232417,250.274708 53.1024634,251.761396 54.0374866,253.705526 C54.9725098,255.764018 54.9725098,258.165591 54.5569439,260.338443 C53.6219207,264.684147 50.1935023,268.801129 45.9339522,268.343687 C41.9860764,267.771884 38.0382006,264.684147 36.5837201,260.567164 C34.2981078,251.761396 37.9343092,242.498185 41.4666191,234.492941 C45.3106034,226.373336 50.1935023,218.939895 55.8036416,212.192618 C69.7250982,195.038524 88.2177794,182.458854 108.268833,176.28338 C95.4901821,182.801936 84.1660121,192.63695 76.581935,205.902783 C64.8421992,225.801533 62.7643699,250.617789 66.5044627,273.146833 C63.4916101,250.503429 66.5044627,226.144615 78.5558729,207.389472 C84.7893609,197.325736 93.3084613,189.434853 102.970368,183.831182 C102.347019,184.402985 101.72367,184.860428 101.100321,185.432231 C89.3605855,196.067769 79.8025705,209.905405 75.023563,225.915894 C70.2445555,241.69766 70.4523385,260.338443 79.0753302,274.747882 C87.4905391,289.500403 104.009282,296.018959 118.969654,294.989714 C126.553731,294.760992 134.345591,292.359419 140.579079,287.213191 C146.812567,282.066962 150.864334,274.176079 152.526598,266.056474 C155.643342,249.817265 152.111032,231.176482 140.371296,219.969141 C134.449482,214.708552 127.17708,211.277733 119.593002,210.591569 C112.112817,209.905405 103.905391,212.306979 98.6069261,218.368092 C88.1138879,230.71904 88.5294538,252.333199 100.26919,263.42618 C103.074259,266.056474 106.294895,268.686769 110.138879,269.372933 C113.878972,270.173457 117.826848,269.487293 121.255266,267.657523 C128.215994,264.226704 133.098893,256.335821 133.098893,247.987495 C133.098893,243.870512 131.956087,239.639169 129.254909,236.665793 C126.449839,233.806777 122.605855,232.54881 118.865762,232.663171 C115.125669,232.777531 111.281685,234.721662 109.411639,238.381202 C107.437701,241.926382 107.541592,246.386446 108.372724,250.389068 C107.541592,246.386446 107.541592,242.040742 109.51553,238.495563 C111.489468,234.950383 115.229561,233.120613 118.865762,233.006253 C122.501964,232.891892 126.345948,234.149859 129.047126,237.008875 C131.644413,239.86789 132.787219,244.099234 132.683327,248.101856 C132.579436,256.22146 127.800428,263.997983 121.047483,267.200081 C117.722956,268.91549 113.982863,269.487293 110.346662,268.801129 C106.710461,268.114966 103.697608,265.599032 100.892538,262.968737 C89.5683684,252.104478 89.464477,231.062122 99.5419493,219.511698 C104.632631,213.793667 112.3206,211.620815 119.489111,212.306979 C126.761514,212.993142 133.722242,216.423961 139.332381,221.455829 C150.240985,232.091367 153.669404,250.274708 150.55266,265.599032 C148.890396,273.375555 145.046412,280.580274 139.22849,285.26906 C133.410568,289.957846 126.242056,292.130698 118.969654,292.359419 C104.52874,293.159944 89.256694,286.870109 81.5687255,273.146833 C73.6729739,259.76664 73.5690825,242.269463 78.2441985,227.288221 C87.8022135,197.440097 114.190646,172.62384 143.591931,173.653086 C146.604784,173.653086 149.617637,173.881807 152.630489,174.33925 C163.954659,175.940299 174.967155,180.286002 185.356301,185.889673 C198.446626,193.094393 210.601928,202.471965 221.926098,212.878782 C238.237058,228.088745 252.885755,245.3572 265.768297,263.997983 C256.106391,254.27733 243.535523,247.186971 230.237415,246.272086 C224.835059,245.814643 219.328811,246.043364 214.030346,247.758774 C206.861835,246.729528 200.628347,237.351956 203.225634,229.575434 C204.991789,225.915894 210.186362,224.543566 213.199215,226.945139 C214.653695,228.317467 214.96537,230.947761 214.134238,232.777531 C213.406998,234.836023 210.913602,235.522186 209.147447,234.37858 C210.809711,235.522186 213.406998,234.950383 214.238129,232.777531 C215.173152,230.833401 214.96537,228.203106 213.406998,226.716418 C210.186362,224.200484 204.887897,225.34409 202.810068,229.346712 C200.940021,233.578056 202.394502,238.381202 204.576223,241.926382 C205.926812,244.099234 207.692967,245.929004 209.770796,247.301331 C198.134952,244.671037 187.538022,236.09399 181.616208,224.429205 C187.330239,236.780153 198.238843,246.157725 210.705819,249.131101 C204.056765,252.104478 198.966084,258.165591 196.992146,265.370311 C194.914316,272.346309 194.706533,280.122832 196.992146,287.09883 C199.277758,294.189189 205.09568,299.449778 211.43306,301.508269 C217.770439,303.566761 224.835059,303.4524 230.860764,300.250303 C233.873617,298.649254 236.574795,296.247681 238.029275,292.702501 C239.587647,289.271682 239.275973,285.26906 238.133167,281.952602 C237.094252,278.521783 235.328097,275.205325 232.315245,273.375555 C229.302392,271.545785 225.562299,272.117588 222.861121,274.061718 C220.159943,276.005849 217.666548,279.093586 217.874331,282.867487 C218.082114,286.870109 221.718315,288.699879 224.731167,289.386043 C221.718315,288.699879 218.082114,286.755748 217.978222,282.867487 C217.874331,279.322307 220.367726,276.23457 223.068904,274.4048 C225.770082,272.57503 229.302392,272.117588 232.107462,273.947358 C234.912531,275.662767 236.574795,278.979225 237.509818,282.295684 C238.444841,285.612142 238.652624,289.271682 237.198144,292.359419 C235.847554,295.447156 233.250268,297.734369 230.445198,299.221057 C224.731167,302.080073 217.874331,302.080073 211.952517,300.021581 C205.926812,297.96309 200.83613,292.931222 198.758301,286.412666 C196.784363,280.008471 197.096037,272.57503 199.173866,266.170835 C201.147804,259.652279 205.719029,254.39169 211.536951,251.875756 C217.250982,249.245462 223.796144,248.90238 230.029632,249.588544 C242.808283,250.73215 254.236344,257.708148 263.586576,267.314441 C272.936808,276.806374 280.520885,288.356797 286.962156,300.479024 C291.533381,309.399153 296.104605,318.433643 298.701892,328.383017 C300.883613,336.616983 301.610853,345.19403 303.688683,353.885438 C302.026419,352.055668 300.260264,350.225898 298.494109,348.624849 C287.273831,338.561113 272.729025,331.127672 257.872546,333.986688 C254.236344,334.787213 250.704034,336.502622 248.002856,339.475998 C245.197787,342.335014 243.639414,346.337636 242.808283,350.111537 C241.146019,357.773699 241.561585,367.151271 247.379507,372.754942 C250.39236,375.499597 254.755801,375.270875 257.976437,373.441105 C261.197072,371.725696 264.417708,369.095401 265.664406,365.20714 C266.911103,361.318879 265.041057,356.744453 261.71653,354.914683 C258.392003,352.856192 254.132453,354.457241 252.158515,357.773699 C254.236344,354.571601 258.495894,353.084913 261.612638,355.143405 C264.729382,356.973175 266.495537,361.433239 265.24884,365.092779 C264.106034,368.86668 260.885398,371.268253 257.768654,372.869302 C254.65191,374.470351 250.600143,374.584712 248.002856,372.068778 C242.704391,366.808189 242.392717,357.659338 244.158872,350.454619 C245.613352,342.678096 251.431275,336.845704 258.392003,335.702098 C268.261692,333.986688 278.131382,337.188786 286.858265,342.563735 C283.949304,341.53449 280.83256,341.191408 277.819707,342.449375 C273.975723,344.050424 271.690111,348.053046 270.547305,352.055668 C269.300607,356.05829 270.23563,361.090157 273.352374,363.834812 C276.365227,366.579468 280.520885,367.608713 284.157087,366.465107 C288.104963,365.435861 290.0789,360.632715 289.247769,356.630093 C289.975009,360.747075 287.89718,365.321501 284.053195,366.122025 C280.520885,367.151271 276.469118,366.007664 273.76794,363.263009 C267.846126,357.659338 271.897894,346.337636 278.235273,343.707342 C285.299893,341.420129 292.364513,346.795079 297.455195,352.055668 C300.883613,355.715208 304.000357,360.060912 306.182078,364.749697 C304.312031,363.606091 302.234202,362.919927 300.052481,363.148649 C296.831846,363.606091 293.818993,365.550222 292.364513,368.86668 C289.975009,375.385236 293.195644,383.619201 299.22135,385.563332 C302.338094,386.249496 305.66262,383.619201 305.870403,380.188382 C305.974295,378.472973 305.350946,376.757564 304.104248,375.842678 C302.753659,374.927793 301.195287,375.042154 299.740807,375.613957 C301.091396,375.042154 302.753659,375.156515 304.000357,376.0714 C305.247055,376.986285 305.766512,378.701694 305.558729,380.302743 C305.247055,383.504841 302.026419,385.792053 299.325241,384.991529 C293.922885,383.161759 291.117815,375.042154 293.507319,369.667205 C294.754016,367.03691 297.455195,365.435861 300.156373,365.092779 C302.857551,364.864058 305.350946,366.465107 307.532667,368.523598 C308.779365,371.382614 315.947876,398.257362 320.934666,408.549818 C324.363085,415.297096 326.85648,419.75716 329.557658,425.24647 C332.154945,430.507059 334.64834,435.767648 337.037844,441.142598 C339.219564,446.174466 341.297394,451.320694 343.16744,456.466922 C342.4402,455.895119 341.609068,455.208955 340.881828,454.637152 C331.635487,447.661154 321.661906,442.171843 311.376651,437.711779 C302.857551,434.052239 294.234559,430.850141 285.507676,428.334207 C280.520885,425.017749 275.949661,421.015127 272.832917,415.640177 C270.131739,410.951392 269.612281,405.004639 270.755087,399.629689 C271.794002,394.026019 277.092467,390.480839 282.079257,391.624445 C286.858265,392.310609 292.15673,396.541952 291.637272,402.488705 C291.533381,403.861033 291.117815,405.23336 290.286683,406.376967 C289.35166,407.291852 288.001071,407.634933 286.754373,407.406212 C285.507676,407.177491 284.260978,406.491327 283.741521,405.119 C283.118172,403.861033 283.741521,402.259984 284.468761,401.116378 C283.741521,402.259984 283.118172,403.746672 283.741521,405.119 C284.260978,406.491327 285.507676,407.291852 286.754373,407.520573 C288.001071,407.863655 289.455552,407.520573 290.494466,406.491327 C291.325598,405.347721 291.741164,403.975393 291.948947,402.488705 C292.572296,396.313231 287.169939,391.853167 282.183149,390.938282 C279.585862,390.480839 276.780793,390.823921 274.49518,392.310609 C272.209568,393.797297 270.651196,396.541952 269.923956,399.286608 C268.573367,404.890278 268.988933,411.065752 271.794002,416.211981 C274.287397,420.557685 277.611924,424.102864 281.248126,427.07624 C270.23563,424.102864 259.015352,421.930012 247.691182,420.672045 C240.210996,419.75716 232.626919,419.528439 225.042842,419.985881 C208.731881,419.185357 192.31703,411.523195 181.823991,397.571198 C180.785077,396.198871 179.746162,394.712182 178.91503,393.225494 C178.083899,390.70956 177.668333,387.964905 177.980007,385.334611 C178.291682,379.959661 182.44734,375.499597 187.434131,375.728318 C192.109247,375.385236 196.992146,380.645825 196.161014,385.792053 C195.433774,388.307987 192.524813,389.794675 190.343092,388.651069 C187.953588,387.964905 186.499107,384.076644 189.096394,382.475595 C186.499107,383.962283 187.849697,388.079266 190.2392,388.76543 C192.524813,389.909036 195.641557,388.422348 196.368797,385.792053 C197.30382,380.302743 192.420921,374.927793 187.434131,375.042154 C182.239557,374.584712 177.564441,379.502219 177.148875,385.105889 C176.941092,386.706938 177.044984,388.307987 177.252767,389.909036 C174.65548,384.534086 172.993217,378.587334 172.993217,372.52622 C172.889325,363.37737 176.837201,354.571601 182.655123,348.053046 C188.161371,340.848326 196.57658,337.760589 204.991789,337.646228 C213.199215,337.646228 222.549447,340.276523 226.912888,348.281767 C230.860764,356.287011 227.120671,367.951795 219.328811,371.611335 C215.484827,373.555466 210.913602,373.898548 207.069618,371.954417 C203.017851,370.010286 201.251696,364.749697 202.29061,360.060912 C201.251696,364.635337 202.913959,370.124647 206.965727,372.183138 C210.913602,374.35599 215.588718,374.012908 219.536594,372.068778 C227.640129,368.294877 231.795787,356.515732 227.74402,347.709964 C223.068904,339.018556 213.406998,336.15954 204.887897,335.930819 C196.264905,335.816458 187.018565,339.132916 181.096751,346.451997 C174.863263,353.199274 170.499821,362.462485 170.39593,372.41186 C170.39593,372.983663 170.39593,373.555466 170.39593,374.127269 C165.201357,363.720452 160.422349,353.084913 158.656194,341.420129 C156.474473,327.696854 158.136737,313.516136 160.837915,299.907221 C157.721171,313.401775 155.53945,327.582493 157.201714,341.64885 C158.032845,348.624849 159.902892,355.372126 162.292396,361.890682 C159.07176,357.544978 155.435559,353.542356 150.968226,350.568979 C143.072474,345.422751 134.137808,343.36426 125.410925,341.53449 C107.957158,337.87495 90.3995002,334.32977 73.9846483,326.896329 C65.9850054,323.122428 57.7775794,318.204921 52.790789,310.199677 C50.4012853,306.197055 49.2584791,301.279548 49.674045,296.476402 C49.9857194,291.673255 52.1674402,286.870109 56.0114245,284.582896 C59.8554088,282.181323 64.6344163,282.066962 68.790075,283.553651 C72.8418422,284.925978 77.1013924,288.128076 77.8286326,293.045583 C78.2441985,297.734369 75.6469118,303.33804 71.0756873,303.795482 C68.8939664,304.024203 66.6083542,302.994958 65.2577651,301.050827 C63.8032845,299.106696 63.4916101,296.476402 63.6993931,294.074829 C63.3877187,296.476402 63.6993931,299.106696 65.1538736,301.050827 C66.5044627,302.994958 68.790075,304.024203 71.0756873,303.795482 C75.8546948,303.33804 78.5558729,297.734369 78.140307,292.931222 C77.4130668,287.784994 73.1535166,284.468536 68.9978579,282.981848 C64.7383077,281.495159 59.8554088,281.495159 55.907533,283.896733 C51.8557658,286.298306 49.5701535,291.330173 49.1545876,296.247681 C48.6351303,301.165188 49.7779365,306.311416 52.2713317,310.542759 C57.3620136,318.891085 65.5694395,323.922953 73.6729739,327.811214 C90.1917172,335.587737 107.853267,339.247277 125.203142,343.135539 C133.826134,345.079669 142.656908,347.252521 150.137094,352.284389 C156.993931,356.858814 161.87683,364.292255 166.344163,371.840056 C166.551946,372.41186 166.86362,372.983663 167.071403,373.555466 C161.461264,365.778943 154.396644,359.374748 145.565869,356.287011 C130.605498,351.026422 114.086755,357.316257 103.178151,368.981041 C92.2695466,380.874546 92.2695466,403.861033 105.25598,413.696047 C111.905034,418.384833 121.878615,414.039129 124.060336,405.919524 C125.09925,401.802541 122.813638,397.113756 119.281328,395.627067 C115.749018,393.911658 111.59336,394.826543 108.268833,396.656313 C111.59336,394.940904 115.749018,394.026019 119.281328,395.741428 C122.813638,397.342477 124.995359,401.916902 123.852553,405.919524 C121.56694,413.810407 111.801142,417.92739 105.463763,413.352965 C92.7890039,403.632311 92.9967869,380.988907 103.697608,369.667205 C114.398429,358.459863 130.70939,352.398749 145.046412,357.659338 C157.201714,362.119403 165.928597,373.212384 172.058194,385.334611 C173.616566,390.480839 176.109961,395.283985 179.226705,399.515329 C187.226348,410.493949 198.550518,417.92739 210.809711,421.58693 C209.251339,421.930012 207.692967,422.158733 206.030703,422.501815 C196.992146,423.4167 188.161371,424.789028 179.122813,425.24647 C172.785434,425.589552 166.448054,425.589552 160.214566,424.789028 C153.981078,423.874143 147.643699,422.501815 142.449125,418.499193 C137.254552,414.725292 132.89111,409.350343 129.982149,403.174869 C127.17708,397.113756 125.307033,389.680315 128.215994,383.276119 C129.670475,380.188382 132.475544,378.129891 135.488397,377.215006 C138.397358,376.0714 142.137451,376.757564 143.799714,379.845301 C145.461978,382.704316 145.461978,386.821299 143.48804,389.565954 C141.410211,392.42497 137.566226,392.196248 134.761157,390.823921 C137.566226,392.196248 141.410211,392.53933 143.591931,389.565954 C145.669761,386.821299 145.669761,382.589956 144.007497,379.616579 C142.345234,376.414482 138.397358,375.613957 135.488397,376.757564 C132.371653,377.558088 129.462692,379.73094 127.90432,382.933038 C124.891467,389.451593 126.761514,397.113756 129.566583,403.28923 C132.475544,409.579064 136.838986,415.068374 142.137451,418.956636 C147.435916,423.073618 153.981078,424.560307 160.214566,425.589552 C166.551946,426.504437 172.993217,426.618798 179.330596,426.275716 C185.148518,425.932634 191.070332,425.360831 196.888254,424.789028 C171.12317,432.565551 147.539807,448.690399 130.813281,471.448165 C141.098536,458.525413 153.565512,448.004236 167.383077,440.227713 C163.227419,443.31545 159.175652,446.746269 155.435559,450.291448 C151.072117,454.522791 147.02035,459.325938 143.799714,464.700887 C140.68297,470.075837 138.293467,476.594393 139.436273,483.112949 C140.68297,489.174062 144.111389,496.150061 150.448768,496.836224 C156.474473,497.179306 161.87683,492.49052 164.474116,486.772489 C165.824705,483.913473 166.344163,480.368294 164.889682,477.394917 C163.435202,474.421541 160.422349,473.049213 157.721171,472.36305 C154.916101,471.791246 151.591574,472.820492 150.137094,475.793868 C148.578722,478.424163 149.202071,482.998588 152.318815,483.684752 C149.202071,482.998588 148.578722,478.424163 150.137094,475.908229 C151.591574,473.049213 154.81221,472.019968 157.61728,472.591771 C160.422349,473.277935 163.33131,474.650262 164.681899,477.509278 C166.032488,480.368294 165.513031,483.799113 164.266333,486.543768 C161.669047,492.033078 156.370582,496.607503 150.55266,496.150061 C144.630846,495.463897 141.306319,488.71662 140.163513,482.884228 C139.124598,476.594393 141.410211,470.304558 144.526955,465.15833 C147.74759,459.897741 151.695466,455.208955 156.058908,451.091973 C163.435202,444.230335 171.538736,438.054861 180.369511,433.823518 C201.043913,425.017749 223.796144,422.044373 245.509461,425.475192 C234.600857,427.648044 224.003927,431.536305 214.134238,437.254336 C206.757944,441.714401 199.797215,447.432432 194.602642,454.980234 C189.408069,462.528035 186.499107,471.791246 186.395216,481.168818 C186.499107,491.003832 192.420921,499.466519 199.693324,504.155305 C203.433417,506.442517 207.692967,507.814845 212.056408,507.471763 C216.315959,507.128681 220.471617,504.727108 223.380578,501.410649 C229.614066,494.663372 230.029632,483.34167 225.562299,475.565147 C223.48447,471.676886 219.22492,468.474788 214.96537,469.847116 C210.809711,471.219443 208.004641,475.107705 205.82292,478.881605 C208.108533,475.107705 211.017494,471.333804 215.069261,470.190198 C219.22492,468.932231 223.276687,472.019968 225.250625,475.908229 C229.510175,483.570391 228.782935,494.549012 222.75723,500.724486 C217.043199,507.471763 207.277401,507.814845 200.524456,503.011698 C193.667619,498.437273 188.369154,490.203308 188.473045,481.397539 C188.78472,472.47741 191.693681,463.671642 196.680471,456.695643 C201.667262,449.605284 208.420207,444.230335 215.588718,440.113352 C228.886826,432.679911 243.847197,428.677289 258.703677,427.876765 C266.183863,429.477814 273.664049,431.421944 280.936451,433.823518 C275.430203,434.509681 270.027847,436.225091 264.937165,439.084106 C251.223492,446.631908 242.704391,462.756757 241.665477,478.881605 C240.938236,486.88685 241.665477,495.692618 245.925027,502.554256 C249.769011,509.301533 257.560871,514.790843 265.144948,512.046188 C272.209568,509.187172 277.092467,500.152683 274.599072,492.261799 C273.456266,488.373538 270.858979,485.057079 267.534452,483.34167 C264.209925,481.5119 259.950375,482.541146 257.560871,485.514522 C260.054266,482.541146 264.209925,481.740621 267.430561,483.570391 C270.651196,485.285801 273.0407,488.602259 274.079614,492.37616 C276.261335,499.923961 271.274545,508.386648 264.833274,510.67386 C257.976437,512.961073 251.015709,507.814845 247.58729,501.410649 C243.847197,494.777733 243.32774,486.772489 244.262763,479.110327 C245.717244,463.671642 254.028561,449.147842 266.70332,442.629286 C275.949661,437.711779 286.546591,437.025615 296.624063,439.427188 C300.67583,441.142598 304.623706,442.858007 308.571582,444.802138 C307.948233,445.25958 306.493752,445.488302 304.93538,445.831384 C297.247412,447.432432 290.286683,453.836628 288.520528,462.299314 C287.585505,466.416297 287.585505,470.990722 289.35166,474.878983 C291.117815,478.767245 294.338451,481.626261 297.974652,482.884228 C301.506962,484.142194 305.870403,484.027834 308.883256,481.283179 C312,478.424163 311.896109,473.506656 310.753302,469.732755 C311.792217,473.506656 311.688326,478.424163 308.675473,480.825736 C305.766512,483.227309 301.610853,483.227309 298.286326,481.854982 C294.857908,480.482654 291.948947,477.737999 290.598358,474.19282 C289.143877,470.64764 289.247769,466.530658 290.182792,462.756757 C292.15673,455.094595 298.494109,449.719645 305.454838,448.576039 C310.129954,447.661154 314.908961,448.576039 319.168511,450.520169 C330.700464,457.267447 341.505177,465.387051 349.608711,475.679508 C355.426633,497.064946 357.816137,518.564744 356.777222,540.636345 C356.049982,563.622832 348.985362,588.553449 327.272046,616 L427.942878,616 C399.78829,594.500202 400.827205,567.968536 399.684398,540.407624 C398.749375,512.846712 393.139236,484.713998 383.47733,459.440299 C382.542306,457.038725 381.607283,454.637152 380.67226,452.349939 C380.880043,447.546793 381.918958,443.201089 383.892895,439.541549 C388.568011,431.307584 399.476615,429.134732 410.593002,429.249092 C415.579793,429.820896 420.462692,431.307584 424.930025,433.937878 C436.877544,440.799516 445.500536,453.836628 449.240628,468.017346 C451.006783,475.107705 451.837915,482.998588 448.928954,489.745865 C447.474473,493.062324 444.461621,495.349536 441.137094,495.921339 C437.812567,496.721864 434.384149,497.064946 431.059622,496.378782 C424.410568,495.349536 417.969297,490.317668 416.307033,482.998588 C415.475901,479.453409 416.09925,475.222065 418.592645,472.706132 C421.086041,470.075837 424.618351,469.275313 428.046769,469.160952 C424.722242,469.160952 421.086041,469.961476 418.592645,472.591771 C415.995359,475.222065 415.37201,479.453409 416.203142,482.998588 C417.865405,490.432029 424.410568,495.692618 431.059622,496.721864 C434.48804,497.408027 437.916458,497.064946 441.240985,496.264421 C444.669404,495.806979 447.890039,493.405405 449.448411,489.860226 C452.565155,482.884228 451.734024,474.764623 449.967869,467.559903 C446.331667,453.036103 437.708675,439.77027 425.449482,432.565551 C423.475544,431.421944 421.501607,430.392699 419.423777,429.706535 C423.995002,430.278338 428.566226,430.964502 433.137451,431.879387 C459.318101,440.456434 481.862549,464.700887 487.264905,495.006454 C483.628704,469.504034 467.73331,447.432432 446.955016,434.967124 C452.87683,436.453812 458.798643,437.9405 464.720457,439.65591 C471.057836,442.400565 477.291325,445.488302 483.31703,448.919121 C497.342378,457.038725 511.056051,466.416297 521.652981,479.567769 C511.471617,465.958854 497.965727,455.895119 484.148161,447.089351 C482.070332,445.831384 479.992503,444.573417 477.810782,443.31545 C479.473045,443.772892 481.135309,444.230335 482.797572,444.687777 C495.784006,449.948366 508.458765,457.381807 520.094609,465.844494 C527.367012,471.333804 534.431632,477.394917 540.353445,484.485276 C546.171367,491.575635 551.262049,499.923961 552.197072,509.187172 C552.924313,518.336023 551.262049,529.085922 544.093538,534.460871 C537.028918,539.72146 526.847554,538.349133 519.990718,532.745462 C512.40664,527.484873 511.887183,514.562122 518.120671,507.700484 C521.133524,504.269665 525.80864,502.325534 530.06819,503.812223 C534.431632,505.298911 537.028918,510.102057 537.963941,514.790843 C537.13281,509.987697 534.743306,505.07019 530.172081,503.35478 C525.80864,501.639371 520.821849,503.583501 517.497322,507.01432 C510.640486,513.875958 510.848268,527.942315 518.951803,534.003429 C526.224206,540.178903 537.028918,542.237394 545.340236,536.519363 C553.755444,530.458249 555.729382,518.793465 555.209925,508.84409 C554.378793,498.322912 549.080328,489.174062 543.158515,481.626261 C537.13281,473.964098 530.06819,467.559903 522.691896,461.61315 C518.328454,458.296692 513.965012,455.094595 509.497679,452.121218 C522.27633,456.695643 534.431632,464.357806 547.106391,469.618395 C554.690468,472.820492 562.586219,476.02259 570.897537,475.793868 C572.975366,475.679508 575.053195,475.336426 576.923242,474.30718 C578.793288,473.392295 580.767226,471.905607 580.975009,469.504034 C581.182792,467.102461 579.62442,465.043969 577.858265,464.129084 C575.884327,462.985478 573.494823,464.357806 573.079257,466.645018 C573.494823,464.357806 575.884327,462.985478 577.754373,464.243445 C579.520528,465.15833 580.975009,467.331182 580.767226,469.504034 C579.728311,473.964098 574.637629,474.993344 570.897537,475.222065 C562.794002,475.222065 555.002142,471.905607 547.521956,468.589149 C537.236701,464.129084 527.574795,458.067971 517.289539,453.264825 C524.873617,454.865873 532.561585,456.12384 540.457337,456.466922 C547.625848,456.581283 555.106034,456.238201 561.96287,452.235579 C569.131382,448.347317 572.455909,439.198467 572.455909,431.307584 C572.767583,423.4167 571.313102,414.954014 566.637986,408.549818 C562.066762,402.145623 554.794359,398.714804 547.625848,398.257362 C540.561228,397.799919 533.081042,399.972771 527.678686,405.23336 C525.0814,407.863655 523.211353,411.523195 522.899679,415.525817 C522.588004,419.414078 523.73081,423.30234 525.496965,426.618798 C523.938593,423.187979 522.899679,419.414078 523.315245,415.525817 C523.73081,411.751916 525.600857,408.321097 528.198144,405.805163 C533.496608,400.887656 540.769011,399.172247 547.418065,399.858411 C554.17101,400.544574 560.716173,404.089754 564.664049,410.036507 C568.611924,415.983259 569.75473,423.645422 569.235273,430.964502 C568.923599,438.283582 565.910746,445.25958 559.988933,448.232957 C554.274902,451.320694 547.314174,451.549415 540.561228,451.091973 C526.951446,449.948366 513.445555,445.945744 500.043556,441.828762 C499.316316,441.60004 498.589075,441.371319 497.861835,441.142598 C502.121385,441.028237 506.380935,438.741025 508.458765,434.509681 C511.056051,429.592174 511.367726,423.531061 510.536594,418.041751 C509.809354,412.552441 507.939307,406.94877 504.510889,402.717426 C501.186362,398.371722 496.926812,395.169625 492.459479,392.53933 C483.420921,387.393102 473.44734,384.534086 463.577651,382.704316 C443.630489,379.387858 422.956087,380.074022 403.3206,385.792053 C393.554802,388.76543 383.892895,392.996773 375.581578,400.087132 C370.594788,404.204115 366.439129,410.036507 363.945734,416.555063 C363.114602,407.520573 364.049625,398.486083 368.516958,391.281363 C375.477687,379.959661 389.503035,376.528842 402.281685,375.042154 C415.37201,373.441105 428.981792,374.584712 442.487683,371.840056 C455.785791,369.209762 469.291682,364.635337 480.096394,354.914683 C485.394859,350.111537 489.862192,343.36426 490.901107,335.587737 C492.043913,327.811214 489.862192,320.034691 486.122099,313.630496 C478.641914,300.250303 462.12317,295.561517 449.448411,301.279548 C443.111032,303.909843 437.29311,309.627874 435.734738,317.175676 C434.280257,324.723477 436.981435,332.5 441.344877,338.218031 C446.123884,344.050424 454.539093,344.164784 460.149232,340.162162 C463.058194,338.218031 465.343806,335.244655 466.38272,331.585115 C467.421635,328.039935 466.694395,324.037313 465.032131,320.835216 C466.590503,324.037313 467.317744,327.925575 466.278829,331.470754 C465.239914,335.015934 462.954302,337.87495 460.045341,339.70472 C454.435202,343.592981 446.331667,343.135539 441.968226,337.531868 C437.916458,332.042557 435.423063,324.380395 436.981435,317.404397 C438.435916,310.314038 444.046055,305.16781 450.07176,302.766236 C462.330953,297.620008 477.602999,302.423154 484.252053,314.888463 C487.57658,320.949576 489.446626,328.268657 488.30382,335.015934 C487.264905,341.877572 483.213138,347.824324 478.226348,352.284389 C468.044984,361.204518 454.850768,365.435861 441.968226,367.723074 C428.981792,370.010286 415.579793,368.637959 401.970011,370.010286 C395.217065,370.69645 388.360228,371.725696 381.711175,374.35599 C375.166012,376.871924 368.62085,381.217628 364.3613,387.964905 C360.517315,393.797297 358.75116,400.773296 358.335594,407.634933 C357.920029,407.06313 357.608354,406.376967 357.192788,405.805163 C353.972153,400.430214 350.024277,394.483461 347.530882,390.480839 C342.751874,373.441105 341.089611,356.630093 344.933595,340.619605 C347.323099,330.898951 352.102106,321.864461 358.855052,315.231545 C365.607997,308.484268 374.230989,304.024203 383.061764,301.736991 C391.788647,299.907221 401.970011,297.505647 409.450196,303.795482 C416.930382,309.742235 418.90432,322.093183 414.021421,330.67023 C409.242413,338.904195 400.203856,345.651472 390.957515,343.821702 C386.490182,343.021178 382.022849,339.81908 380.568368,334.901573 C379.113888,329.984066 381.191717,324.723477 384.100678,320.835216 C381.191717,324.609117 379.009996,329.869706 380.464477,334.901573 C381.918958,339.933441 386.386291,343.135539 390.853624,344.050424 C395.424848,345.079669 400.307747,343.936063 404.255623,341.305768 C408.30739,338.789835 411.943592,335.359016 414.333095,330.898951 C419.423777,322.093183 417.553731,309.284792 409.761871,302.994958 C406.021778,299.79286 401.138879,298.420532 396.463763,298.649254 C391.788647,298.763614 387.217422,299.449778 382.646198,300.479024 C373.60764,302.651876 364.776865,307.11194 357.712246,313.973578 C350.647626,320.835216 345.660835,330.098427 343.16744,340.047802 C339.63513,354.114159 340.362371,368.637959 343.063549,382.704316 C335.271689,366.579468 332.674402,348.281767 336.622278,329.869706 C338.076758,322.893707 340.258479,316.032069 343.16744,309.284792 C352.102106,294.875353 365.296323,283.668011 379.633345,274.29044 C384.516244,272.117588 390.438058,273.375555 395.632631,275.891489 C401.866119,278.750504 407.684041,282.981848 414.125312,286.298306 C417.242056,287.899355 420.774366,289.500403 424.514459,288.699879 C428.254552,287.784994 430.747947,284.125454 431.786862,280.465914 C432.825777,276.463292 430.644056,272.117588 427.319529,270.74526 C425.657265,269.944736 423.579436,270.059096 422.332738,271.545785 C421.086041,273.032473 420.774366,274.976603 420.774366,276.920734 C420.878258,275.090964 421.189932,273.032473 422.540521,271.774506 C423.787219,270.402178 425.761157,270.402178 427.215637,271.202703 C430.332381,272.689391 432.098536,276.806374 431.059622,280.351553 C430.020707,283.668011 427.527312,286.98447 424.410568,287.556273 C421.189932,288.013715 417.865405,286.412666 414.956444,284.811618 C408.826848,281.380799 403.216708,276.920734 396.775437,273.604276 C393.762585,272.003227 390.126383,270.6309 386.386291,270.287818 C389.087469,268.686769 391.684755,267.08572 394.385934,265.599032 C414.64477,254.506051 436.254195,246.157725 458.383077,240.210972 C459.941449,239.86789 461.499821,239.410448 463.058194,239.067366 C471.473402,240.439693 479.473045,247.758774 482.485898,256.907624 C485.914316,266.170835 480.927526,277.035095 472.823991,281.380799 C468.876116,283.668011 463.993217,284.354175 459.941449,282.295684 C455.993574,280.237192 452.565155,276.12021 451.214566,271.431424 C449.760086,266.628278 452.357372,261.024607 456.720814,259.309197 C458.798643,258.394312 461.39593,258.279952 463.265976,259.995361 C465.032131,261.59641 465.65548,264.341065 465.759372,266.856999 C465.759372,264.341065 465.239914,261.59641 463.473759,259.76664 C461.603713,257.93687 458.902535,257.93687 456.720814,258.851755 C452.149589,260.567164 449.240628,266.399556 450.591217,271.660145 C451.941806,276.692013 455.266333,281.037717 459.629775,283.43929 C464.097108,285.840863 469.395573,285.154699 473.759015,282.867487 C478.122456,280.580274 481.862549,276.692013 484.04427,271.888866 C486.329882,267.08572 486.537665,261.138967 484.979293,255.992739 C484.77151,255.420936 484.563727,254.734772 484.355944,254.162969 C486.953231,257.822509 489.238843,261.71077 491.524456,265.713392 C498.589075,277.606898 504.095323,291.215813 514.276687,301.165188 C516.873974,303.566761 519.990718,305.510891 523.523027,306.082695 C527.055337,306.654498 530.587647,305.625252 533.496608,303.795482 C539.730096,300.021581 542.1196,291.215813 540.249554,284.125454 C538.691182,276.920734 532.249911,270.859621 525.393074,272.231948 C518.536237,273.489915 515.003927,284.468536 520.717958,289.157322 C515.107819,284.239814 519.055694,273.718637 525.496965,272.803752 C532.042128,271.660145 537.963941,277.606898 539.210639,284.468536 C540.872903,291.215813 538.379507,298.992336 532.769368,302.194433 C527.159229,305.739613 520.302392,304.252925 515.731167,299.335418 C506.484827,289.729125 501.186362,276.12021 494.433417,263.769262 C491.10889,257.479427 487.57658,251.303953 483.005355,245.700282 C480.200286,242.269463 476.771867,238.953005 472.823991,236.780153 C490.485541,233.006253 508.458765,230.833401 526.224206,232.777531 C531.834345,233.463695 537.444484,234.607301 542.639057,236.894514 C547.833631,239.181727 552.820421,242.612545 555.417708,248.101856 C557.911103,253.362445 558.638343,260.910246 553.963227,264.912868 C551.781507,266.742638 548.872546,268.114966 546.171367,267.314441 C543.262406,266.742638 541.911817,263.083098 542.1196,259.995361 C541.807926,262.968737 543.054623,266.742638 546.171367,267.543163 C549.080328,268.458048 552.093181,267.200081 554.378793,265.370311 C556.664406,263.42618 558.326669,260.338443 558.326669,257.021985 C558.326669,253.819887 557.807212,250.617789 556.456623,247.644413 C553.859336,241.69766 548.560871,237.809399 543.366298,235.293465 C537.963941,232.777531 532.249911,231.405204 526.53588,230.490319 C516.354516,229.117991 506.069261,229.00363 495.784006,229.689794 C497.757944,228.88927 499.731881,227.974385 501.601928,226.945139 C510.744377,221.913271 517.808997,213.107503 522.484113,203.272489 C517.601214,212.993142 510.328811,221.455829 501.290253,226.030254 C497.861835,227.745664 494.433417,229.117991 490.797215,230.147237 C492.459479,227.745664 494.121742,224.886648 495.264548,221.913271 C497.446269,216.080879 498.692967,209.219242 496.303463,203.043768 C494.017851,196.639572 485.290968,194.924163 481.446983,200.184752 C479.576937,202.700686 479.057479,206.245865 480.096394,209.219242 C480.927526,212.5357 484.667619,213.679306 487.161014,212.192618 C484.563727,213.564946 481.135309,212.306979 480.408069,209.104881 C479.576937,206.245865 480.200286,202.815046 481.966441,200.642194 C485.706533,196.067769 493.498393,198.0119 495.160657,203.615571 C497.030703,209.219242 495.784006,215.623437 493.498393,220.998386 C491.732238,225.001008 489.03106,228.774909 485.602642,230.604679 C476.25241,231.748286 467.006069,233.578056 457.86362,235.636547 C435.319172,241.011497 413.190289,248.673659 392.204213,259.309197 C382.022849,264.684147 371.841485,270.516539 362.387362,277.721259 C364.3613,275.090964 366.335237,272.57503 368.413067,270.059096 C375.893252,261.253328 383.789004,252.56192 392.411996,245.585922 C401.24277,238.266841 410.904677,231.519564 420.462692,224.543566 C430.540164,217.338846 440.617637,210.019766 450.591217,202.357604 C454.019636,200.070391 457.448054,197.554457 460.772581,195.038524 C476.25241,186.804558 493.706176,182.687576 511.263834,183.373739 C498.069618,181.65833 484.459836,182.801936 471.369511,186.575837 C482.382006,177.655708 493.186719,168.849939 505.238129,162.560105 C514.900036,157.413877 525.185291,155.355385 535.990004,156.041549 C546.586933,156.613352 557.599429,158.671843 566.845769,164.161154 C571.416994,166.905809 575.468761,170.79407 577.546591,175.711577 C579.728311,180.743445 579.312745,186.690198 577.650482,192.065147 C576.09211,197.554457 572.871474,202.471965 568.196358,204.644816 C563.521242,206.817668 557.911103,206.017144 553.235987,203.38685 C548.560871,200.756555 544.405212,196.410851 543.054623,190.80718 C541.600143,185.203509 544.197429,179.142396 548.249197,175.482856 C550.327026,173.538725 552.508747,171.480234 555.209925,171.823316 C557.807212,171.937676 560.404498,173.310004 562.482328,175.254135 C564.560157,177.198265 566.222421,179.82856 566.430203,182.801936 C565.49518,186.918919 563.729025,189.663574 561.547305,191.493344 Z" id="Shape" fill="#462011" fill-rule="nonzero"></path>
        <path d="M255.620064,343.730667 C255.620064,343.730667 259.190649,343.491745 267,336.389226 C267,336.389226 263.210168,334.412683 256.455288,334.021719 C256.455288,334.021719 260.098956,330.785403 262.834317,318.470026 C262.834317,318.470026 251.297776,323.36794 248.71902,327.78801 C248.71902,327.78801 249.324557,319.023892 243.780754,309 C243.780754,309 237.861099,320.131624 238.769405,326.289313 C238.769405,326.289313 236.263731,323.36794 231.784839,322.42311 C227.305946,321.478279 224.654108,318.87185 224.194734,318.317984 C224.194734,318.317984 225.562415,331.263248 231.325465,334.499564 C231.325465,334.499564 221.605538,336.943092 221,336.79105 C221,336.79105 228.287335,343.98045 232.077167,344.132492 C232.077167,344.132492 230.103949,347.998695 227.525193,349.899216 C227.525193,349.899216 237.464367,351.343612 244.219246,343.296263 C244.219246,343.296263 246.871085,351.10469 260.23468,349.443091 C260.255561,349.421371 256.611893,346.250216 255.620064,343.730667 Z" id="Shape" fill="#474D23" fill-rule="nonzero" transform="translate(244.000000, 329.500000) rotate(-37.000000) translate(-244.000000, -329.500000) "></path>
        <path d="M215.620064,92.7306674 C215.620064,92.7306674 219.190649,92.4917447 227,85.3892255 C227,85.3892255 223.210168,83.4126835 216.455288,83.0217191 C216.455288,83.0217191 220.098956,79.785403 222.834317,67.4700256 C222.834317,67.4700256 211.297776,72.3679403 208.71902,76.7880096 C208.71902,76.7880096 209.324557,68.0238918 203.780754,58 C203.780754,58 197.861099,69.1316242 198.769405,75.2893129 C198.769405,75.2893129 196.263731,72.3679403 191.784839,71.4231097 C187.305946,70.4782792 184.654108,67.8718501 184.194734,67.3179839 C184.194734,67.3179839 185.562415,80.2632483 191.325465,83.4995644 C191.325465,83.4995644 181.605538,85.9430917 181,85.79105 C181,85.79105 188.287335,92.9804502 192.077167,93.1324919 C192.077167,93.1324919 190.103949,96.998695 187.525193,98.8992162 C187.525193,98.8992162 197.464367,100.343612 204.219246,92.2962626 C204.219246,92.2962626 206.871085,100.10469 220.23468,98.4430911 C220.255561,98.4213709 216.611893,95.2502155 215.620064,92.7306674 Z" id="Shape" fill="#80912C" fill-rule="nonzero"></path>
        <path d="M592.393554,101.354472 C592.393554,101.354472 596.662733,101.063103 606,92.4014945 C606,92.4014945 601.468679,89.9910774 593.392192,89.5142916 C593.392192,89.5142916 597.748752,85.5675646 601.019292,70.5488118 C601.019292,70.5488118 587.225601,76.5218784 584.142306,81.9122068 C584.142306,81.9122068 584.866319,71.2242583 578.237857,59 C578.237857,59 571.160009,72.5751514 572.246028,80.0845279 C572.246028,80.0845279 569.250113,76.5218784 563.894916,75.369646 C558.539719,74.2174136 555.369042,71.0388416 554.819791,70.363395 C554.819791,70.363395 556.455061,86.1503029 563.345665,90.0970298 C563.345665,90.0970298 551.724013,93.0769411 551,92.8915244 C551,92.8915244 559.713118,101.659086 564.244439,101.844502 C564.244439,101.844502 561.885157,106.559384 558.801861,108.877093 C558.801861,108.877093 570.685656,110.638552 578.762143,100.82471 C578.762143,100.82471 581.932819,110.347183 597.91103,108.320843 C597.935996,108.294355 593.579437,104.427092 592.393554,101.354472 Z" id="Shape" fill="#A4BF26" fill-rule="nonzero" transform="translate(578.500000, 84.000000) rotate(72.000000) translate(-578.500000, -84.000000) "></path>
        <path d="M445.620064,128.730667 C445.620064,128.730667 449.190649,128.491745 457,121.389226 C457,121.389226 453.210168,119.412683 446.455288,119.021719 C446.455288,119.021719 450.098956,115.785403 452.834317,103.470026 C452.834317,103.470026 441.297776,108.36794 438.71902,112.78801 C438.71902,112.78801 439.324557,104.023892 433.780754,94 C433.780754,94 427.861099,105.131624 428.769405,111.289313 C428.769405,111.289313 426.263731,108.36794 421.784839,107.42311 C417.305946,106.478279 414.654108,103.87185 414.194734,103.317984 C414.194734,103.317984 415.562415,116.263248 421.325465,119.499564 C421.325465,119.499564 411.605538,121.943092 411,121.79105 C411,121.79105 418.287335,128.98045 422.077167,129.132492 C422.077167,129.132492 420.103949,132.998695 417.525193,134.899216 C417.525193,134.899216 427.464367,136.343612 434.219246,128.296263 C434.219246,128.296263 436.871085,136.10469 450.23468,134.443091 C450.255561,134.421371 446.611893,131.250216 445.620064,128.730667 Z" id="Shape" fill="#474D23" fill-rule="nonzero" transform="translate(434.000000, 114.500000) rotate(-37.000000) translate(-434.000000, -114.500000) "></path>
        <path d="M506.620064,491.730667 C506.620064,491.730667 510.190649,491.491745 518,484.389226 C518,484.389226 514.210168,482.412683 507.455288,482.021719 C507.455288,482.021719 511.098956,478.785403 513.834317,466.470026 C513.834317,466.470026 502.297776,471.36794 499.71902,475.78801 C499.71902,475.78801 500.324557,467.023892 494.780754,457 C494.780754,457 488.861099,468.131624 489.769405,474.289313 C489.769405,474.289313 487.263731,471.36794 482.784839,470.42311 C478.305946,469.478279 475.654108,466.87185 475.194734,466.317984 C475.194734,466.317984 476.562415,479.263248 482.325465,482.499564 C482.325465,482.499564 472.605538,484.943092 472,484.79105 C472,484.79105 479.287335,491.98045 483.077167,492.132492 C483.077167,492.132492 481.103949,495.998695 478.525193,497.899216 C478.525193,497.899216 488.464367,499.343612 495.219246,491.296263 C495.219246,491.296263 497.871085,499.10469 511.23468,497.443091 C511.255561,497.421371 507.611893,494.250216 506.620064,491.730667 Z" id="Shape" fill="#DFE9A1" fill-rule="nonzero" transform="translate(495.000000, 477.500000) rotate(-141.000000) translate(-495.000000, -477.500000) "></path>
        <path d="M57.6200635,326.730667 C57.6200635,326.730667 61.1906491,326.491745 69,319.389226 C69,319.389226 65.210168,317.412683 58.4552882,317.021719 C58.4552882,317.021719 62.098956,313.785403 64.8343168,301.470026 C64.8343168,301.470026 53.2977758,306.36794 50.7190195,310.78801 C50.7190195,310.78801 51.3245574,302.023892 45.7807535,292 C45.7807535,292 39.8610985,303.131624 40.7694054,309.289313 C40.7694054,309.289313 38.2637313,306.36794 33.7848389,305.42311 C29.3059464,304.478279 26.654108,301.87185 26.1947345,301.317984 C26.1947345,301.317984 27.5624149,314.263248 33.3254653,317.499564 C33.3254653,317.499564 23.6055379,319.943092 23,319.79105 C23,319.79105 30.2873355,326.98045 34.0771675,327.132492 C34.0771675,327.132492 32.1039492,330.998695 29.5251929,332.899216 C29.5251929,332.899216 39.4643668,334.343612 46.2192465,326.296263 C46.2192465,326.296263 48.8710849,334.10469 62.23468,332.443091 C62.2555606,332.421371 58.6118929,329.250216 57.6200635,326.730667 Z" id="Shape" fill="#A5C026" fill-rule="nonzero" transform="translate(46.000000, 312.500000) rotate(-77.000000) translate(-46.000000, -312.500000) "></path>
        <g id="Group" transform="translate(256.500000, 405.500000) rotate(-4.000000) translate(-256.500000, -405.500000) translate(245.000000, 385.000000)" fill="#80912C" fill-rule="nonzero">
            <g id="Group-2">
                <path d="M11.0696958,0.0736993412 C11.0696958,0.0736993412 11.5886904,6.36972878 14.1179681,9.77042695 C16.6538153,13.1605966 21.4627277,19.2986989 22.0802656,26.005339 C22.6978035,32.711979 17.2187968,40.4188244 11.3784648,40.7557357 C5.53813267,41.0821185 -0.098543286,33.5437287 0.0525564192,27.1634715 C0.210225677,20.7832142 3.00228545,14.7293398 6.20822702,11.3391701 C9.41416859,7.9384719 10.3996014,4.70622936 11.0696958,0.0736993412 Z" id="Shape"></path>
            </g>
        </g>
        <g id="Group" transform="translate(572.500000, 242.500000) rotate(91.000000) translate(-572.500000, -242.500000) translate(560.000000, 222.000000)" fill="#A4BF26" fill-rule="nonzero">
            <g id="Group-2">
                <path d="M12.238514,0.073365194 C12.238514,0.073365194 12.8123078,6.34084891 15.6086448,9.72612857 C18.412245,13.1009275 23.728917,19.2112001 24.411659,25.8874327 C25.094401,32.5636654 19.0368814,40.2355685 12.579885,40.5709523 C6.12288859,40.8958553 -0.108948196,33.391644 0.0581057043,27.0403144 C0.232422817,20.6889847 3.31928836,14.6625581 6.86373632,11.2877591 C10.4081843,7.90247947 11.4976662,4.68489167 12.238514,0.073365194 Z" id="Shape"></path>
            </g>
        </g>
        <g id="Group" transform="translate(182.500000, 262.500000) rotate(-62.000000) translate(-182.500000, -262.500000) translate(171.000000, 243.000000)" fill="#474D23" fill-rule="nonzero">
            <g id="Group-2" transform="translate(0.000000, 0.000000)">
                <path d="M11.1149467,0.0703689856 C11.1149467,0.0703689856 11.6360629,6.0818909 14.1756798,9.32891695 C16.7218931,12.5658903 21.5504634,18.4266215 22.1705257,24.8301992 C22.790588,31.2337769 17.2891841,38.5923622 11.4249778,38.914049 C5.56077154,39.2256831 -0.0989461128,32.0279412 0.0527712602,25.9359975 C0.211085041,19.8440539 3.01455824,14.0637444 6.23360511,10.8267711 C9.45265198,7.57974502 10.4421131,4.49356237 11.1149467,0.0703689856 Z" id="Shape"></path>
            </g>
        </g>
        <g id="Group" transform="translate(124.000000, 428.500000) rotate(-122.000000) translate(-124.000000, -428.500000) translate(109.000000, 408.000000)" fill="#DFE9A1" fill-rule="nonzero">
            <g id="Group-2">
                <path d="M14.6350552,0.0736993412 C14.6350552,0.0736993412 15.3212091,6.36972878 18.6651238,9.77042695 C22.0177239,13.1605966 28.3755046,19.2986989 29.1919409,26.005339 C30.0083772,32.711979 22.7646763,40.4188244 15.0432733,40.7557357 C7.32187033,41.0821185 -0.13028239,33.5437287 0.0694839415,27.1634715 C0.277935766,20.7832142 3.96927016,14.7293398 8.20779058,11.3391701 C12.446311,7.9384719 13.7491349,4.70622936 14.6350552,0.0736993412 Z" id="Shape"></path>
            </g>
        </g>
        <g id="Group" transform="translate(312.000000, 160.500000) rotate(-4.000000) translate(-312.000000, -160.500000) translate(299.000000, 141.000000)" fill="#A5C026" fill-rule="nonzero">
            <g id="Group-2">
                <path d="M12.774297,0.0694380522 C12.774297,0.0694380522 13.3732106,6.00143165 16.2919669,9.20550177 C19.2183044,12.3996522 24.7677319,18.1828499 25.4803633,24.5017127 C26.1929947,30.8205754 19.8702863,38.0818118 13.1306127,38.3992429 C6.39093908,38.7067542 -0.113717777,31.6042335 0.0606494812,25.5928821 C0.242597925,19.5815307 3.46460161,13.8776907 7.16421997,10.6835403 C10.8638383,7.47947019 12.0010161,4.43411562 12.774297,0.0694380522 Z" id="Shape"></path>
            </g>
        </g>
        <g id="Group-3" transform="translate(420.000000, 266.500000) rotate(46.000000) translate(-420.000000, -266.500000) translate(407.000000, 246.000000)" fill="#80912C" fill-rule="nonzero">
            <path d="M12.1096944,0 C12.1096944,0 27.0702825,13.8543634 25.9389213,21.7845494 C24.8075601,29.7147353 18.032703,36.6360515 12.8151314,41 C12.8151314,41 1.51482951,33.6329041 0.103955546,22.3476395 C-1.30691842,11.0623748 12.1096944,0 12.1096944,0 Z" id="Shape"></path>
        </g>
        <g id="Group-3" transform="translate(539.000000, 412.000000)" fill="#A4BF26" fill-rule="nonzero">
            <path d="M12.1096944,0 C12.1096944,0 27.0702825,13.8543634 25.9389213,21.7845494 C24.8075601,29.7147353 18.032703,36.6360515 12.8151314,41 C12.8151314,41 1.51482951,33.6329041 0.103955546,22.3476395 C-1.30691842,11.0623748 12.1096944,0 12.1096944,0 Z" id="Shape"></path>
        </g>
        <g id="Group-3" transform="translate(183.000000, 447.500000) rotate(-33.000000) translate(-183.000000, -447.500000) translate(170.000000, 428.000000)" fill="#474D23" fill-rule="nonzero">
            <path d="M12.1096944,0 C12.1096944,0 27.0702825,13.1785408 25.9389213,20.7218884 C24.8075601,28.2652361 18.032703,34.848927 12.8151314,39 C12.8151314,39 1.51482951,31.9922747 0.103955546,21.2575107 C-1.30691842,10.5227468 12.1096944,0 12.1096944,0 Z" id="Shape"></path>
        </g>
        <g id="Group-3" transform="translate(33.000000, 133.000000)" fill="#DFE9A1" fill-rule="nonzero">
            <path d="M12.1096944,0 C12.1096944,0 27.0702825,13.8543634 25.9389213,21.7845494 C24.8075601,29.7147353 18.032703,36.6360515 12.8151314,41 C12.8151314,41 1.51482951,33.6329041 0.103955546,22.3476395 C-1.30691842,11.0623748 12.1096944,0 12.1096944,0 Z" id="Shape"></path>
        </g>
        <g id="Group" transform="translate(319.000000, 43.000000)" fill="#A5C026" fill-rule="nonzero">
            <g id="Group-3">
                <path d="M12.0714286,0 C12.0714286,0 26.9816327,13.8405916 25.8540816,21.7628947 C24.7265306,29.6851977 17.9744898,36.5996339 12.7744898,40.9592444 C12.7744898,40.9592444 1.5122449,33.5994718 0.106122449,22.3254251 C-1.3,11.0513784 12.0714286,0 12.0714286,0 Z" id="Shape"></path>
            </g>
        </g>
        <path d="M376.994044,622.285129 C376.994044,622.285129 380.56463,622.046207 388.373981,614.943687 C388.373981,614.943687 384.584149,612.967145 377.829269,612.576181 C377.829269,612.576181 381.472937,609.339865 384.208298,597.024488 C384.208298,597.024488 372.671757,601.922402 370.093,606.342472 C370.093,606.342472 370.698538,597.578354 365.154734,587.554462 C365.154734,587.554462 359.235079,598.686086 360.143386,604.843775 C360.143386,604.843775 357.637712,601.922402 353.15882,600.977572 C348.679927,600.032741 346.028089,597.426312 345.568715,596.872446 C345.568715,596.872446 346.936396,609.81771 352.699446,613.054026 C352.699446,613.054026 342.979519,615.497554 342.373981,615.345512 C342.373981,615.345512 349.661316,622.534912 353.451148,622.686954 C353.451148,622.686954 351.47793,626.553157 348.899174,628.453678 C348.899174,628.453678 358.838348,629.898074 365.593227,621.850724 C365.593227,621.850724 368.245066,629.659152 381.608661,627.997553 C381.629541,627.975833 377.985874,624.804677 376.994044,622.285129 Z" id="Shape" fill="#474D23" fill-rule="nonzero" transform="translate(365.373981, 608.054462) rotate(4.000000) translate(-365.373981, -608.054462) "></path>
        <path d="M281.620064,511.730667 C281.620064,511.730667 285.190649,511.491745 293,504.389226 C293,504.389226 289.210168,502.412683 282.455288,502.021719 C282.455288,502.021719 286.098956,498.785403 288.834317,486.470026 C288.834317,486.470026 277.297776,491.36794 274.71902,495.78801 C274.71902,495.78801 275.324557,487.023892 269.780754,477 C269.780754,477 263.861099,488.131624 264.769405,494.289313 C264.769405,494.289313 262.263731,491.36794 257.784839,490.42311 C253.305946,489.478279 250.654108,486.87185 250.194734,486.317984 C250.194734,486.317984 251.562415,499.263248 257.325465,502.499564 C257.325465,502.499564 247.605538,504.943092 247,504.79105 C247,504.79105 254.287335,511.98045 258.077167,512.132492 C258.077167,512.132492 256.103949,515.998695 253.525193,517.899216 C253.525193,517.899216 263.464367,519.343612 270.219246,511.296263 C270.219246,511.296263 272.871085,519.10469 286.23468,517.443091 C286.255561,517.421371 282.611893,514.250216 281.620064,511.730667 Z" id="Shape" fill="#80912C" fill-rule="nonzero"></path>
        <g id="Group" transform="translate(585.500000, 153.500000) rotate(32.000000) translate(-585.500000, -153.500000) translate(574.000000, 134.000000)" fill="#474D23" fill-rule="nonzero">
            <g id="Group-2" transform="translate(0.000000, 0.000000)">
                <path d="M11.1149467,0.0703689856 C11.1149467,0.0703689856 11.6360629,6.0818909 14.1756798,9.32891695 C16.7218931,12.5658903 21.5504634,18.4266215 22.1705257,24.8301992 C22.790588,31.2337769 17.2891841,38.5923622 11.4249778,38.914049 C5.56077154,39.2256831 -0.0989461128,32.0279412 0.0527712602,25.9359975 C0.211085041,19.8440539 3.01455824,14.0637444 6.23360511,10.8267711 C9.45265198,7.57974502 10.4421131,4.49356237 11.1149467,0.0703689856 Z" id="Shape"></path>
            </g>
        </g>
        <path d="M511.620064,346.730667 C511.620064,346.730667 515.190649,346.491745 523,339.389226 C523,339.389226 519.210168,337.412683 512.455288,337.021719 C512.455288,337.021719 516.098956,333.785403 518.834317,321.470026 C518.834317,321.470026 507.297776,326.36794 504.71902,330.78801 C504.71902,330.78801 505.324557,322.023892 499.780754,312 C499.780754,312 493.861099,323.131624 494.769405,329.289313 C494.769405,329.289313 492.263731,326.36794 487.784839,325.42311 C483.305946,324.478279 480.654108,321.87185 480.194734,321.317984 C480.194734,321.317984 481.562415,334.263248 487.325465,337.499564 C487.325465,337.499564 477.605538,339.943092 477,339.79105 C477,339.79105 484.287335,346.98045 488.077167,347.132492 C488.077167,347.132492 486.103949,350.998695 483.525193,352.899216 C483.525193,352.899216 493.464367,354.343612 500.219246,346.296263 C500.219246,346.296263 502.871085,354.10469 516.23468,352.443091 C516.255561,352.421371 512.611893,349.250216 511.620064,346.730667 Z" id="Shape" fill="#474D23" fill-rule="nonzero" transform="translate(500.000000, 332.500000) rotate(77.000000) translate(-500.000000, -332.500000) "></path>
        <path d="M124.620064,215.730667 C124.620064,215.730667 128.190649,215.491745 136,208.389226 C136,208.389226 132.210168,206.412683 125.455288,206.021719 C125.455288,206.021719 129.098956,202.785403 131.834317,190.470026 C131.834317,190.470026 120.297776,195.36794 117.71902,199.78801 C117.71902,199.78801 118.324557,191.023892 112.780754,181 C112.780754,181 106.861099,192.131624 107.769405,198.289313 C107.769405,198.289313 105.263731,195.36794 100.784839,194.42311 C96.3059464,193.478279 93.654108,190.87185 93.1947345,190.317984 C93.1947345,190.317984 94.5624149,203.263248 100.325465,206.499564 C100.325465,206.499564 90.6055379,208.943092 90,208.79105 C90,208.79105 97.2873355,215.98045 101.077167,216.132492 C101.077167,216.132492 99.1039492,219.998695 96.5251929,221.899216 C96.5251929,221.899216 106.464367,223.343612 113.219246,215.296263 C113.219246,215.296263 115.871085,223.10469 129.23468,221.443091 C129.255561,221.421371 125.611893,218.250216 124.620064,215.730667 Z" id="Shape" fill="#A5C026" fill-rule="nonzero" transform="translate(113.000000, 201.500000) rotate(-25.000000) translate(-113.000000, -201.500000) "></path>
        <g id="Group-3" transform="translate(110.000000, 78.500000) rotate(-4.000000) translate(-110.000000, -78.500000) translate(97.000000, 58.000000)" fill="#80912C" fill-rule="nonzero">
            <path d="M12.1096944,0 C12.1096944,0 27.0702825,13.8543634 25.9389213,21.7845494 C24.8075601,29.7147353 18.032703,36.6360515 12.8151314,41 C12.8151314,41 1.51482951,33.6329041 0.103955546,22.3476395 C-1.30691842,11.0623748 12.1096944,0 12.1096944,0 Z" id="Shape"></path>
        </g>
        <g id="Group-3" transform="translate(487.000000, 29.000000)" fill="#DFE9A1" fill-rule="nonzero">
            <path d="M12.1096944,0 C12.1096944,0 27.0702825,13.8543634 25.9389213,21.7845494 C24.8075601,29.7147353 18.032703,36.6360515 12.8151314,41 C12.8151314,41 1.51482951,33.6329041 0.103955546,22.3476395 C-1.30691842,11.0623748 12.1096944,0 12.1096944,0 Z" id="Shape"></path>
        </g>
        <g id="Group" transform="translate(213.500000, 173.500000) rotate(-62.000000) translate(-213.500000, -173.500000) translate(202.000000, 154.000000)" fill="#474D23" fill-rule="nonzero">
            <g id="Group-2" transform="translate(0.000000, 0.000000)">
                <path d="M11.1149467,0.0703689856 C11.1149467,0.0703689856 11.6360629,6.0818909 14.1756798,9.32891695 C16.7218931,12.5658903 21.5504634,18.4266215 22.1705257,24.8301992 C22.790588,31.2337769 17.2891841,38.5923622 11.4249778,38.914049 C5.56077154,39.2256831 -0.0989461128,32.0279412 0.0527712602,25.9359975 C0.211085041,19.8440539 3.01455824,14.0637444 6.23360511,10.8267711 C9.45265198,7.57974502 10.4421131,4.49356237 11.1149467,0.0703689856 Z" id="Shape"></path>
            </g>
        </g>
        <g id="Group" transform="translate(311.500000, 83.500000) rotate(-62.000000) translate(-311.500000, -83.500000) translate(300.000000, 64.000000)" fill="#474D23" fill-rule="nonzero">
            <g id="Group-2" transform="translate(0.000000, 0.000000)">
                <path d="M11.1149467,0.0703689856 C11.1149467,0.0703689856 11.6360629,6.0818909 14.1756798,9.32891695 C16.7218931,12.5658903 21.5504634,18.4266215 22.1705257,24.8301992 C22.790588,31.2337769 17.2891841,38.5923622 11.4249778,38.914049 C5.56077154,39.2256831 -0.0989461128,32.0279412 0.0527712602,25.9359975 C0.211085041,19.8440539 3.01455824,14.0637444 6.23360511,10.8267711 C9.45265198,7.57974502 10.4421131,4.49356237 11.1149467,0.0703689856 Z" id="Shape"></path>
            </g>
        </g>
        <g id="Group" transform="translate(474.500000, 62.500000) rotate(-62.000000) translate(-474.500000, -62.500000) translate(463.000000, 43.000000)" fill="#474D23" fill-rule="nonzero">
            <g id="Group-2" transform="translate(0.000000, 0.000000)">
                <path d="M11.1149467,0.0703689856 C11.1149467,0.0703689856 11.6360629,6.0818909 14.1756798,9.32891695 C16.7218931,12.5658903 21.5504634,18.4266215 22.1705257,24.8301992 C22.790588,31.2337769 17.2891841,38.5923622 11.4249778,38.914049 C5.56077154,39.2256831 -0.0989461128,32.0279412 0.0527712602,25.9359975 C0.211085041,19.8440539 3.01455824,14.0637444 6.23360511,10.8267711 C9.45265198,7.57974502 10.4421131,4.49356237 11.1149467,0.0703689856 Z" id="Shape"></path>
            </g>
        </g>
        <g id="Group" transform="translate(517.500000, 392.500000) rotate(-62.000000) translate(-517.500000, -392.500000) translate(506.000000, 373.000000)" fill="#474D23" fill-rule="nonzero">
            <g id="Group-2" transform="translate(0.000000, 0.000000)">
                <path d="M11.1149467,0.0703689856 C11.1149467,0.0703689856 11.6360629,6.0818909 14.1756798,9.32891695 C16.7218931,12.5658903 21.5504634,18.4266215 22.1705257,24.8301992 C22.790588,31.2337769 17.2891841,38.5923622 11.4249778,38.914049 C5.56077154,39.2256831 -0.0989461128,32.0279412 0.0527712602,25.9359975 C0.211085041,19.8440539 3.01455824,14.0637444 6.23360511,10.8267711 C9.45265198,7.57974502 10.4421131,4.49356237 11.1149467,0.0703689856 Z" id="Shape"></path>
            </g>
        </g>
        <g id="Group" transform="translate(572.500000, 389.500000) rotate(25.000000) translate(-572.500000, -389.500000) translate(561.000000, 370.000000)" fill="#474D23" fill-rule="nonzero">
            <g id="Group-2" transform="translate(0.000000, 0.000000)">
                <path d="M11.1149467,0.0703689856 C11.1149467,0.0703689856 11.6360629,6.0818909 14.1756798,9.32891695 C16.7218931,12.5658903 21.5504634,18.4266215 22.1705257,24.8301992 C22.790588,31.2337769 17.2891841,38.5923622 11.4249778,38.914049 C5.56077154,39.2256831 -0.0989461128,32.0279412 0.0527712602,25.9359975 C0.211085041,19.8440539 3.01455824,14.0637444 6.23360511,10.8267711 C9.45265198,7.57974502 10.4421131,4.49356237 11.1149467,0.0703689856 Z" id="Shape"></path>
            </g>
        </g>
        <g id="Group" transform="translate(291.500000, 262.500000) rotate(32.000000) translate(-291.500000, -262.500000) translate(280.000000, 243.000000)" fill="#474D23" fill-rule="nonzero">
            <g id="Group-2" transform="translate(0.000000, 0.000000)">
                <path d="M11.1149467,0.0703689856 C11.1149467,0.0703689856 11.6360629,6.0818909 14.1756798,9.32891695 C16.7218931,12.5658903 21.5504634,18.4266215 22.1705257,24.8301992 C22.790588,31.2337769 17.2891841,38.5923622 11.4249778,38.914049 C5.56077154,39.2256831 -0.0989461128,32.0279412 0.0527712602,25.9359975 C0.211085041,19.8440539 3.01455824,14.0637444 6.23360511,10.8267711 C9.45265198,7.57974502 10.4421131,4.49356237 11.1149467,0.0703689856 Z" id="Shape"></path>
            </g>
        </g>
        <g id="Group" transform="translate(416.500000, 167.500000) rotate(32.000000) translate(-416.500000, -167.500000) translate(405.000000, 148.000000)" fill="#474D23" fill-rule="nonzero">
            <g id="Group-2" transform="translate(0.000000, 0.000000)">
                <path d="M11.1149467,0.0703689856 C11.1149467,0.0703689856 11.6360629,6.0818909 14.1756798,9.32891695 C16.7218931,12.5658903 21.5504634,18.4266215 22.1705257,24.8301992 C22.790588,31.2337769 17.2891841,38.5923622 11.4249778,38.914049 C5.56077154,39.2256831 -0.0989461128,32.0279412 0.0527712602,25.9359975 C0.211085041,19.8440539 3.01455824,14.0637444 6.23360511,10.8267711 C9.45265198,7.57974502 10.4421131,4.49356237 11.1149467,0.0703689856 Z" id="Shape"></path>
            </g>
        </g>
        <g id="Group" transform="translate(396.500000, 327.500000) rotate(32.000000) translate(-396.500000, -327.500000) translate(385.000000, 308.000000)" fill="#474D23" fill-rule="nonzero">
            <g id="Group-2" transform="translate(0.000000, 0.000000)">
                <path d="M11.1149467,0.0703689856 C11.1149467,0.0703689856 11.6360629,6.0818909 14.1756798,9.32891695 C16.7218931,12.5658903 21.5504634,18.4266215 22.1705257,24.8301992 C22.790588,31.2337769 17.2891841,38.5923622 11.4249778,38.914049 C5.56077154,39.2256831 -0.0989461128,32.0279412 0.0527712602,25.9359975 C0.211085041,19.8440539 3.01455824,14.0637444 6.23360511,10.8267711 C9.45265198,7.57974502 10.4421131,4.49356237 11.1149467,0.0703689856 Z" id="Shape"></path>
            </g>
        </g>
        <g id="Group" transform="translate(565.500000, 497.500000) rotate(57.000000) translate(-565.500000, -497.500000) translate(554.000000, 478.000000)" fill="#474D23" fill-rule="nonzero">
            <g id="Group-2" transform="translate(0.000000, 0.000000)">
                <path d="M11.1149467,0.0703689856 C11.1149467,0.0703689856 11.6360629,6.0818909 14.1756798,9.32891695 C16.7218931,12.5658903 21.5504634,18.4266215 22.1705257,24.8301992 C22.790588,31.2337769 17.2891841,38.5923622 11.4249778,38.914049 C5.56077154,39.2256831 -0.0989461128,32.0279412 0.0527712602,25.9359975 C0.211085041,19.8440539 3.01455824,14.0637444 6.23360511,10.8267711 C9.45265198,7.57974502 10.4421131,4.49356237 11.1149467,0.0703689856 Z" id="Shape"></path>
            </g>
        </g>
        <path d="M530.620064,215.730667 C530.620064,215.730667 534.190649,215.491745 542,208.389226 C542,208.389226 538.210168,206.412683 531.455288,206.021719 C531.455288,206.021719 535.098956,202.785403 537.834317,190.470026 C537.834317,190.470026 526.297776,195.36794 523.71902,199.78801 C523.71902,199.78801 524.324557,191.023892 518.780754,181 C518.780754,181 512.861099,192.131624 513.769405,198.289313 C513.769405,198.289313 511.263731,195.36794 506.784839,194.42311 C502.305946,193.478279 499.654108,190.87185 499.194734,190.317984 C499.194734,190.317984 500.562415,203.263248 506.325465,206.499564 C506.325465,206.499564 496.605538,208.943092 496,208.79105 C496,208.79105 503.287335,215.98045 507.077167,216.132492 C507.077167,216.132492 505.103949,219.998695 502.525193,221.899216 C502.525193,221.899216 512.464367,223.343612 519.219246,215.296263 C519.219246,215.296263 521.871085,223.10469 535.23468,221.443091 C535.255561,221.421371 531.611893,218.250216 530.620064,215.730667 Z" id="Shape" fill="#A5C026" fill-rule="nonzero" transform="translate(519.000000, 201.500000) rotate(15.000000) translate(-519.000000, -201.500000) "></path>
        <path d="M274.325888,137.444441 C274.325888,137.444441 277.896474,137.205518 285.705825,130.102999 C285.705825,130.102999 281.915993,128.126457 275.161113,127.735493 C275.161113,127.735493 278.804781,124.499176 281.540142,112.183799 C281.540142,112.183799 270.0036,117.081714 267.424844,121.501783 C267.424844,121.501783 268.030382,112.737665 262.486578,102.713773 C262.486578,102.713773 256.566923,113.845398 257.47523,120.003086 C257.47523,120.003086 254.969556,117.081714 250.490664,116.136883 C246.011771,115.192053 243.359933,112.585624 242.900559,112.031757 C242.900559,112.031757 244.26824,124.977022 250.03129,128.213338 C250.03129,128.213338 240.311363,130.656865 239.705825,130.504823 C239.705825,130.504823 246.99316,137.694224 250.782992,137.846265 C250.782992,137.846265 248.809774,141.712469 246.231018,143.61299 C246.231018,143.61299 256.170191,145.057386 262.925071,137.010036 C262.925071,137.010036 265.57691,144.818463 278.940505,143.156865 C278.961385,143.135144 275.317718,139.963989 274.325888,137.444441 Z" id="Shape" fill="#474D23" fill-rule="nonzero" transform="translate(262.705825, 123.213773) rotate(-37.000000) translate(-262.705825, -123.213773) "></path>
        <path d="M401.620064,69.7306674 C401.620064,69.7306674 405.190649,69.4917447 413,62.3892255 C413,62.3892255 409.210168,60.4126835 402.455288,60.0217191 C402.455288,60.0217191 406.098956,56.785403 408.834317,44.4700256 C408.834317,44.4700256 397.297776,49.3679403 394.71902,53.7880096 C394.71902,53.7880096 395.324557,45.0238918 389.780754,35 C389.780754,35 383.861099,46.1316242 384.769405,52.2893129 C384.769405,52.2893129 382.263731,49.3679403 377.784839,48.4231097 C373.305946,47.4782792 370.654108,44.8718501 370.194734,44.3179839 C370.194734,44.3179839 371.562415,57.2632483 377.325465,60.4995644 C377.325465,60.4995644 367.605538,62.9430917 367,62.79105 C367,62.79105 374.287335,69.9804502 378.077167,70.1324919 C378.077167,70.1324919 376.103949,73.998695 373.525193,75.8992162 C373.525193,75.8992162 383.464367,77.3436123 390.219246,69.2962626 C390.219246,69.2962626 392.871085,77.1046897 406.23468,75.4430911 C406.255561,75.4213709 402.611893,72.2502155 401.620064,69.7306674 Z" id="Shape" fill="#A5C026" fill-rule="nonzero" transform="translate(390.000000, 55.500000) rotate(14.000000) translate(-390.000000, -55.500000) "></path>
        <g id="Group-3" transform="translate(33.000000, 239.500000) rotate(46.000000) translate(-33.000000, -239.500000) translate(20.000000, 219.000000)" fill="#80912C" fill-rule="nonzero">
            <path d="M12.1096944,0 C12.1096944,0 27.0702825,13.8543634 25.9389213,21.7845494 C24.8075601,29.7147353 18.032703,36.6360515 12.8151314,41 C12.8151314,41 1.51482951,33.6329041 0.103955546,22.3476395 C-1.30691842,11.0623748 12.1096944,0 12.1096944,0 Z" id="Shape"></path>
        </g>
        <g id="Group-3" transform="translate(167.000000, 305.500000) rotate(46.000000) translate(-167.000000, -305.500000) translate(154.000000, 285.000000)" fill="#80912C" fill-rule="nonzero">
            <path d="M12.1096944,0 C12.1096944,0 27.0702825,13.8543634 25.9389213,21.7845494 C24.8075601,29.7147353 18.032703,36.6360515 12.8151314,41 C12.8151314,41 1.51482951,33.6329041 0.103955546,22.3476395 C-1.30691842,11.0623748 12.1096944,0 12.1096944,0 Z" id="Shape"></path>
        </g>
        <g id="Group-3" transform="translate(86.000000, 384.500000) rotate(46.000000) translate(-86.000000, -384.500000) translate(73.000000, 364.000000)" fill="#80912C" fill-rule="nonzero">
            <path d="M12.1096944,0 C12.1096944,0 27.0702825,13.8543634 25.9389213,21.7845494 C24.8075601,29.7147353 18.032703,36.6360515 12.8151314,41 C12.8151314,41 1.51482951,33.6329041 0.103955546,22.3476395 C-1.30691842,11.0623748 12.1096944,0 12.1096944,0 Z" id="Shape"></path>
        </g>
        <g id="Group-3" transform="translate(440.000000, 493.500000) rotate(46.000000) translate(-440.000000, -493.500000) translate(427.000000, 473.000000)" fill="#80912C" fill-rule="nonzero">
            <path d="M12.1096944,0 C12.1096944,0 27.0702825,13.8543634 25.9389213,21.7845494 C24.8075601,29.7147353 18.032703,36.6360515 12.8151314,41 C12.8151314,41 1.51482951,33.6329041 0.103955546,22.3476395 C-1.30691842,11.0623748 12.1096944,0 12.1096944,0 Z" id="Shape"></path>
        </g>
        <g id="Group-3" transform="translate(592.000000, 463.500000) rotate(46.000000) translate(-592.000000, -463.500000) translate(579.000000, 443.000000)" fill="#80912C" fill-rule="nonzero">
            <path d="M12.1096944,0 C12.1096944,0 27.0702825,13.8543634 25.9389213,21.7845494 C24.8075601,29.7147353 18.032703,36.6360515 12.8151314,41 C12.8151314,41 1.51482951,33.6329041 0.103955546,22.3476395 C-1.30691842,11.0623748 12.1096944,0 12.1096944,0 Z" id="Shape"></path>
        </g>
        <path d="M138.393554,506.354472 C138.393554,506.354472 142.662733,506.063103 152,497.401495 C152,497.401495 147.468679,494.991077 139.392192,494.514292 C139.392192,494.514292 143.748752,490.567565 147.019292,475.548812 C147.019292,475.548812 133.225601,481.521878 130.142306,486.912207 C130.142306,486.912207 130.866319,476.224258 124.237857,464 C124.237857,464 117.160009,477.575151 118.246028,485.084528 C118.246028,485.084528 115.250113,481.521878 109.894916,480.369646 C104.539719,479.217414 101.369042,476.038842 100.819791,475.363395 C100.819791,475.363395 102.455061,491.150303 109.345665,495.09703 C109.345665,495.09703 97.7240127,498.076941 97,497.891524 C97,497.891524 105.713118,506.659086 110.244439,506.844502 C110.244439,506.844502 107.885157,511.559384 104.801861,513.877093 C104.801861,513.877093 116.685656,515.638552 124.762143,505.82471 C124.762143,505.82471 127.932819,515.347183 143.91103,513.320843 C143.935996,513.294355 139.579437,509.427092 138.393554,506.354472 Z" id="Shape" fill="#A4BF26" fill-rule="nonzero" transform="translate(124.500000, 489.000000) rotate(222.000000) translate(-124.500000, -489.000000) ">  </path>
      

        <g id="Group" transform="translate(93.500000, 134.500000) rotate(-62.000000) translate(-93.500000, -134.500000) translate(82.000000, 115.000000)" fill="#474D23" fill-rule="nonzero">
            <g id="Group-2" transform="translate(0.000000, 0.000000)">
                <path d="M11.1149467,0.0703689856 C11.1149467,0.0703689856 11.6360629,6.0818909 14.1756798,9.32891695 C16.7218931,12.5658903 21.5504634,18.4266215 22.1705257,24.8301992 C22.790588,31.2337769 17.2891841,38.5923622 11.4249778,38.914049 C5.56077154,39.2256831 -0.0989461128,32.0279412 0.0527712602,25.9359975 C0.211085041,19.8440539 3.01455824,14.0637444 6.23360511,10.8267711 C9.45265198,7.57974502 10.4421131,4.49356237 11.1149467,0.0703689856 Z" id="Shape"></path>
            </g>
        </g>
      
        <path d="M346.620064,623.730667 C346.620064,623.730667 350.190649,623.491745 358,616.389226 C358,616.389226 354.210168,614.412683 347.455288,614.021719 C347.455288,614.021719 351.098956,610.785403 353.834317,598.470026 C353.834317,598.470026 342.297776,603.36794 339.71902,607.78801 C339.71902,607.78801 340.324557,599.023892 334.780754,589 C334.780754,589 328.861099,600.131624 329.769405,606.289313 C329.769405,606.289313 327.263731,603.36794 322.784839,602.42311 C318.305946,601.478279 315.654108,598.87185 315.194734,598.317984 C315.194734,598.317984 316.562415,611.263248 322.325465,614.499564 C322.325465,614.499564 312.605538,616.943092 312,616.79105 C312,616.79105 319.287335,623.98045 323.077167,624.132492 C323.077167,624.132492 321.103949,627.998695 318.525193,629.899216 C318.525193,629.899216 328.464367,631.343612 335.219246,623.296263 C335.219246,623.296263 337.871085,631.10469 351.23468,629.443091 C351.255561,629.421371 347.611893,626.250216 346.620064,623.730667 Z" id="Shape" fill="#80912C" fill-rule="nonzero"></path>
        <path d="M421.142148,617.984985 C421.142148,617.984985 424.712734,617.746062 432.522084,610.643543 C432.522084,610.643543 428.732252,608.667001 421.977373,608.276037 C421.977373,608.276037 425.62104,605.03972 428.356401,592.724343 C428.356401,592.724343 416.81986,597.622258 414.241104,602.042327 C414.241104,602.042327 414.846642,593.278209 409.302838,583.254317 C409.302838,583.254317 403.383183,594.385942 404.29149,600.54363 C404.29149,600.54363 401.785816,597.622258 397.306923,596.677427 C392.828031,595.732597 390.176192,593.126168 389.716819,592.572301 C389.716819,592.572301 391.084499,605.517566 396.84755,608.753882 C396.84755,608.753882 387.127622,611.197409 386.522084,611.045367 C386.522084,611.045367 393.80942,618.234768 397.599252,618.386809 C397.599252,618.386809 395.626034,622.253012 393.047277,624.153534 C393.047277,624.153534 402.986451,625.59793 409.741331,617.55058 C409.741331,617.55058 412.393169,625.359007 425.756764,623.697409 C425.777645,623.675688 422.133977,620.504533 421.142148,617.984985 Z" id="Shape" fill="#A5C026" fill-rule="nonzero" transform="translate(409.522084, 603.754317) rotate(15.000000) translate(-409.522084, -603.754317) "></path>
    </g>
</svg>