<?xml version="1.0" encoding="UTF-8"?>
<svg width="2065px" height="1259px" viewBox="0 0 2065 1259" version="1.1" xmlns="http://www.w3.org/2000/svg" xmlns:xlink="http://www.w3.org/1999/xlink">
    <!-- Generator: Sketch 51.3 (57544) - http://www.bohemiancoding.com/sketch -->
    <title>Artboard@2x</title>
    <desc>Created with Sketch.</desc>
    <defs>
        <rect id="path-1" x="139" y="32" width="1786" height="1064"></rect>
        <filter x="-2.6%" y="-2.9%" width="105.3%" height="108.8%" filterUnits="objectBoundingBox" id="filter-2">
            <feMorphology radius="3" operator="dilate" in="SourceAlpha" result="shadowSpreadOuter1"></feMorphology>
            <feOffset dx="0" dy="16" in="shadowSpreadOuter1" result="shadowOffsetOuter1"></feOffset>
            <feGaussianBlur stdDeviation="10" in="shadowOffsetOuter1" result="shadowBlurOuter1"></feGaussianBlur>
            <feColorMatrix values="0 0 0 0 0   0 0 0 0 0   0 0 0 0 0  0 0 0 0.5 0" type="matrix" in="shadowBlurOuter1"></feColorMatrix>
        </filter>
        <rect id="path-3" x="1225" y="520" width="700" height="576"></rect>
        <filter x="-1.0%" y="-0.9%" width="102.0%" height="102.4%" filterUnits="objectBoundingBox" id="filter-4">
            <feOffset dx="0" dy="2" in="SourceAlpha" result="shadowOffsetOuter1"></feOffset>
            <feGaussianBlur stdDeviation="2" in="shadowOffsetOuter1" result="shadowBlurOuter1"></feGaussianBlur>
            <feColorMatrix values="0 0 0 0 0   0 0 0 0 0   0 0 0 0 0  0 0 0 0.5 0" type="matrix" in="shadowBlurOuter1"></feColorMatrix>
        </filter>
        <path d="M1654.96444,543 L1335.75872,543 C1314.44142,543 1297,559.719231 1297,580.153846 L1297,615.715385 L1326.62273,615.715385 C1329.94491,613.326923 1334.09763,611.734615 1338.80404,611.734615 C1349.60112,611.734615 1358.46025,620.226923 1358.46025,630.576923 C1358.46025,640.926923 1349.60112,649.419231 1338.80404,649.419231 C1334.37448,649.419231 1330.22176,647.826923 1326.62273,645.438462 L1297.27685,645.438462 L1297.27685,692.676923 L1326.89958,692.676923 C1330.22176,690.288462 1334.37448,688.696154 1339.08089,688.696154 C1349.87796,688.696154 1358.7371,697.188462 1358.7371,707.538462 C1358.7371,717.888462 1349.87796,726.380769 1339.08089,726.380769 C1334.65132,726.380769 1330.49861,724.788462 1326.89958,722.4 L1297.27685,722.4 L1297.27685,769.638462 L1326.89958,769.638462 C1330.22176,767.25 1334.37448,765.657692 1339.08089,765.657692 C1349.87796,765.657692 1358.7371,774.15 1358.7371,784.5 C1358.7371,794.85 1349.87796,803.342308 1339.08089,803.342308 C1334.65132,803.342308 1330.49861,801.75 1326.89958,799.361538 L1297.27685,799.361538 L1297.27685,846.6 L1326.89958,846.6 C1330.22176,844.211538 1334.37448,842.619231 1339.08089,842.619231 C1349.87796,842.619231 1358.7371,851.111538 1358.7371,861.461538 C1358.7371,871.811538 1349.87796,880.303846 1339.08089,880.303846 C1334.65132,880.303846 1330.49861,878.711538 1326.89958,876.323077 L1297.27685,876.323077 L1297.27685,923.561538 L1326.89958,923.561538 C1330.22176,921.173077 1334.37448,919.580769 1339.08089,919.580769 C1349.87796,919.580769 1358.7371,928.073077 1358.7371,938.423077 C1358.7371,948.773077 1349.87796,957.265385 1339.08089,957.265385 C1334.65132,957.265385 1330.49861,955.673077 1326.89958,953.284615 L1297.27685,953.284615 L1297.27685,988.846154 C1297.27685,1009.28077 1314.71827,1026 1336.03556,1026 L1655.24128,1026 C1676.55858,1026 1694,1009.28077 1694,988.846154 L1694,580.153846 C1693.72315,559.719231 1676.28173,543 1654.96444,543 Z M1627.55649,865.973077 C1613.43724,880.834615 1588.24407,899.942308 1558.62134,889.857692 C1550.03905,886.938462 1540.07252,882.161538 1530.106,876.588462 C1486.36402,852.173077 1449.82008,817.142308 1424.35007,775.211538 C1418.53626,765.392308 1413.553,756.103846 1410.50767,747.876923 C1399.98745,719.746154 1419.9205,695.596154 1435.42399,681.796154 C1443.45258,674.896154 1455.91074,676.223077 1462.00139,684.715385 L1489.1325,722.930769 C1493.83891,729.565385 1493.00837,738.588462 1486.91771,744.426923 L1471.13738,759.553846 C1469.47629,761.146154 1469.19944,763.269231 1470.02999,765.392308 C1470.02999,765.392308 1470.02999,765.657692 1470.02999,765.657692 C1481.93445,791.134615 1513.49512,821.388462 1540.07252,832.8 C1540.34937,832.8 1540.34937,833.065385 1540.62622,833.065385 C1542.56416,833.861538 1545.05579,833.596154 1546.71688,832.003846 L1562.49721,816.876923 C1568.58787,811.038462 1577.72385,810.242308 1584.9219,814.753846 L1624.78801,840.761538 C1633.37029,846.334615 1634.75453,858.276923 1627.55649,865.973077 Z" id="path-5"></path>
        <filter x="-18.9%" y="-12.4%" width="137.8%" height="131.1%" filterUnits="objectBoundingBox" id="filter-6">
            <feMorphology radius="8" operator="dilate" in="SourceAlpha" result="shadowSpreadOuter1"></feMorphology>
            <feOffset dx="0" dy="15" in="shadowSpreadOuter1" result="shadowOffsetOuter1"></feOffset>
            <feGaussianBlur stdDeviation="14.5" in="shadowOffsetOuter1" result="shadowBlurOuter1"></feGaussianBlur>
            <feColorMatrix values="0 0 0 0 0   0 0 0 0 0   0 0 0 0 0  0 0 0 0.5 0" type="matrix" in="shadowBlurOuter1"></feColorMatrix>
        </filter>
        <rect id="path-7" x="18" y="824" width="1070" height="150" rx="8"></rect>
        <filter x="-3.1%" y="-12.3%" width="106.3%" height="149.3%" filterUnits="objectBoundingBox" id="filter-8">
            <feOffset dx="0" dy="22" in="SourceAlpha" result="shadowOffsetOuter1"></feOffset>
            <feGaussianBlur stdDeviation="7.5" in="shadowOffsetOuter1" result="shadowBlurOuter1"></feGaussianBlur>
            <feColorMatrix values="0 0 0 0 0   0 0 0 0 0   0 0 0 0 0  0 0 0 0.5 0" type="matrix" in="shadowBlurOuter1"></feColorMatrix>
        </filter>
    </defs>
    <g id="Artboard" stroke="none" stroke-width="1" fill="none" fill-rule="evenodd">
        <rect id="Rectangle-2" fill="#A5C026" fill-rule="nonzero" x="1225" y="520" width="822" height="701"></rect>
        <g id="Rectangle" fill-rule="nonzero">
            <use fill="black" fill-opacity="1" filter="url(#filter-2)" xlink:href="#path-1"></use>
            <use fill="#FFFFFF" xlink:href="#path-1"></use>
        </g>
        <g id="Rectangle-2" fill-rule="nonzero">
            <use fill="black" fill-opacity="1" filter="url(#filter-4)" xlink:href="#path-3"></use>
            <use fill="#A5C026" xlink:href="#path-3"></use>
        </g>
        <g id="Group" transform="translate(1261.000000, 618.000000)" fill="#FFFFFF" fill-rule="nonzero">
            <path d="M69.1666667,0.53015873 L12.7266667,0.53015873 C5.81,0.53015873 0.553333333,5.83174603 0.553333333,12.1936508 C0.553333333,18.8206349 6.08666667,23.8571429 12.7266667,23.8571429 L69.1666667,23.8571429 C76.0833333,23.8571429 81.34,18.5555556 81.34,12.1936508 C81.6166667,5.83174603 76.0833333,0.53015873 69.1666667,0.53015873 Z" id="Shape"></path>
            <path d="M69.1666667,77.668254 L12.7266667,77.668254 C5.81,77.668254 0.553333333,82.9698413 0.553333333,89.331746 C0.553333333,95.9587302 6.08666667,100.995238 12.7266667,100.995238 L69.1666667,100.995238 C76.0833333,100.995238 81.34,95.6936508 81.34,89.331746 C81.6166667,82.9698413 76.0833333,77.668254 69.1666667,77.668254 Z" id="Shape"></path>
            <path d="M69.1666667,154.54127 L12.7266667,154.54127 C5.81,154.54127 0.553333333,159.842857 0.553333333,166.204762 C0.553333333,172.566667 6.08666667,177.868254 12.7266667,177.868254 L69.1666667,177.868254 C76.0833333,177.868254 81.34,172.566667 81.34,166.204762 C81.34,159.842857 76.0833333,154.54127 69.1666667,154.54127 Z" id="Shape"></path>
            <path d="M69.1666667,231.679365 L12.7266667,231.679365 C5.81,231.679365 0.553333333,236.980952 0.553333333,243.342857 C0.553333333,249.969841 6.08666667,255.006349 12.7266667,255.006349 L69.1666667,255.006349 C76.0833333,255.006349 81.34,249.704762 81.34,243.342857 C81.6166667,236.715873 76.0833333,231.679365 69.1666667,231.679365 Z" id="Shape"></path>
            <path d="M69.1666667,308.552381 L12.7266667,308.552381 C5.81,308.552381 0.553333333,313.853968 0.553333333,320.215873 C0.553333333,326.842857 6.08666667,331.879365 12.7266667,331.879365 L69.1666667,331.879365 C76.0833333,331.879365 81.34,326.577778 81.34,320.215873 C81.6166667,313.853968 76.0833333,308.552381 69.1666667,308.552381 Z" id="Shape"></path>
        </g>
        <g id="Shape" fill-rule="nonzero">
            <use fill="black" fill-opacity="1" filter="url(#filter-6)" xlink:href="#path-5"></use>
            <use fill="#FFFFFF" xlink:href="#path-5"></use>
        </g>
        <g id="Rectangle-3" fill-rule="nonzero">
            <use fill="black" fill-opacity="1" filter="url(#filter-8)" xlink:href="#path-7"></use>
            <use fill="#586126" xlink:href="#path-7"></use>
        </g>
    </g>
</svg>