<?xml version="1.0" encoding="UTF-8"?>
<svg width="1712px" height="1701px" viewBox="0 0 1712 1701" version="1.1" xmlns="http://www.w3.org/2000/svg" xmlns:xlink="http://www.w3.org/1999/xlink">
    <!-- Generator: Sketch 51.3 (57544) - http://www.bohemiancoding.com/sketch -->
    <title>Artboard</title>
    <desc>Created with Sketch.</desc>
    <defs></defs>
    <g id="Artboard" stroke="none" stroke-width="1" fill="none" fill-rule="evenodd">
        <circle id="Oval" stroke="#96AD32" stroke-width="100" fill="#96AD32" fill-rule="nonzero" cx="886" cy="846" r="750"></circle>
        <g id="envelope-solid" transform="translate(475.000000, 549.000000)" fill="#FFFFFF" fill-rule="nonzero">
            <path d="M806.426953,196.473958 C812.688281,191.670573 822,196.164063 822,203.75651 L822,520.625 C822,561.686198 787.482422,595 744.9375,595 L77.0625,595 C34.5175781,595 0,561.686198 0,520.625 L0,203.911458 C0,196.164063 9.15117188,191.825521 15.5730469,196.628906 C51.5355469,223.589844 99.2179687,257.833333 262.975781,372.64974 C296.851172,396.511719 354.005859,446.714844 411,446.404948 C468.315234,446.869792 526.59375,395.582031 559.184766,372.64974 C722.942578,257.833333 770.464453,223.434896 806.426953,196.473958 Z M411,396.666667 C448.246875,397.286458 501.869531,351.421875 528.841406,332.518229 C741.887109,183.303385 758.102344,170.28776 807.229688,133.10026 C816.541406,126.127604 822,115.28125 822,103.815104 L822,74.375 C822,33.3138021 787.482422,0 744.9375,0 L77.0625,0 C34.5175781,-4.40388466e-14 0,33.3138021 0,74.375 L0,103.815104 C0,115.28125 5.45859375,125.972656 14.7703125,133.10026 C63.8976563,170.132813 80.1128906,183.303385 293.158594,332.518229 C320.130469,351.421875 373.753125,397.286458 411,396.666667 Z" id="Shape"></path>
        </g>
    </g>
</svg>