<?xml version="1.0" encoding="UTF-8"?>
<svg width="289px" height="280px" viewBox="0 0 289 280" version="1.1" xmlns="http://www.w3.org/2000/svg" xmlns:xlink="http://www.w3.org/1999/xlink">
    <!-- Generator: Sketch 51.3 (57544) - http://www.bohemiancoding.com/sketch -->
    <title>Artboard</title>
    <desc>Created with Sketch.</desc>
    <defs></defs>
    <g id="Artboard" stroke="none" stroke-width="1" fill="none" fill-rule="evenodd">
        <ellipse id="Oval" fill="#6A772A" fill-rule="nonzero" cx="144" cy="137" rx="135" ry="128"></ellipse>
        <path d="M129.561523,125.787109 C92.2426605,124.466491 62.0302312,103.554192 76.0996094,61.203125 C76.7267612,59.3152982 77.00247,65.248965 78.3134766,66.7451172 C79.9554092,68.6189302 82.1402793,70.247602 84.5566406,70.8544922 C93.8279863,73.1830715 103.595696,73.0997212 112.868164,75.4238281 C116.442226,76.3196523 119.73237,78.2758609 122.727539,80.421875 C124.628728,81.7840614 126.127167,83.7239704 127.287109,85.7548828 C129.329216,89.3303517 131.459682,93.0288167 132.237305,97.0722656 C139.16522,133.095737 133.539991,117.498604 113.787109,102.300781 C111.787503,100.762288 105.418305,96.8255828 107.152344,98.6582031 C120.438317,112.699494 128.617696,119.045885 138.713867,133.907227 C139.941692,135.714558 142.652425,136.370192 143.50293,138.382813 C146.965504,146.576592 142.667829,162.083343 151.379883,163.879883 C159.019442,165.45526 153.701184,148.220786 157.051758,141.176758 C160.31815,134.309707 172.2815,130.457306 170.828125,122.993164 C169.603799,116.705354 161.734783,132.494998 155.857422,135.042969 C154.176566,135.771658 152.186898,132.99354 151.951172,131.176758 C151.597093,128.447814 152.595839,125.408051 154.330078,123.271484 C157.089351,119.872085 160.938644,117.402464 164.802734,115.34375 C174.129707,110.374516 184.41174,107.341335 193.698242,102.296875 C198.343251,99.77369 202.403392,96.2565096 206.371094,92.7636719 C207.736989,91.5612501 209.109228,86.5701126 209.560547,88.3330078 C214.66902,108.287201 188.318222,132.889105 173.557617,141.283203 C171.419247,142.499257 167.67394,140.820054 166.356445,142.897461 L163.274414,138.251953 C158.53582,145.723704 144.737397,183.393994 152.482422,192.259766 C158.689823,199.365412 171.416403,192.355021 180.749023,193.742188 C189.359876,195.022073 199.656148,194.31249 206.048828,200.22168 C209.105673,203.04733 200.008792,205.990123 196.630859,208.422852 C193.276805,210.838383 189.773346,213.159518 185.939453,214.704102 C159.266345,225.45006 130.076718,227.136696 102.980469,215.617188 C94.8212091,212.148417 85.1573313,208.837985 80.6123047,201.225586 C78.5846227,197.829451 87.4814998,197.161304 91.2568359,195.981445 C96.8824171,194.223353 102.707166,192.861433 108.588867,192.482422 C134.175594,190.833639 151.626224,204.700612 147.530273,172.571289 C146.430479,163.944317 143.970393,155.507789 141.242188,147.25 C140.760573,145.79224 138.636288,145.341388 138.063477,143.916992 L129.561523,125.787109 Z" id="Path-2" stroke="#6A772A" fill="#FFFFFF" fill-rule="nonzero"></path>
    </g>
</svg>