<?xml version="1.0" encoding="UTF-8"?>
<svg width="686px" height="869px" viewBox="0 0 686 869" version="1.1" xmlns="http://www.w3.org/2000/svg" xmlns:xlink="http://www.w3.org/1999/xlink">
    <!-- Generator: Sketch 51.3 (57544) - http://www.bohemiancoding.com/sketch -->
    <title>Artboard@2x</title>
    <desc>Created with Sketch.</desc>
    <defs></defs>
    <g id="Artboard" stroke="none" stroke-width="1" fill="none" fill-rule="evenodd">
        <path d="M686,0 L686,884 L439.867188,884 L307.328125,884 C404.375,680.510668 373.684896,546.31431 215.257813,481.410925 C86.2074224,428.542394 21.2090797,325.831524 21.2090797,132.571109 C21.2090797,100.531806 24.4727198,56.3414365 31,0 C31,0 249.333333,0 686,0 Z" id="Rectangle" fill="#80912C" fill-rule="nonzero"></path>
        <g id="Group" transform="translate(185.000000, 84.000000)" fill-rule="nonzero">
            <polygon id="Shape" fill="#80912C" points="298 312 320 312 320 785 298 785"></polygon>
            <polygon id="Shape" fill="#A4BF26" points="321 312 335 312 335 785 321 785"></polygon>
            <path d="M148.092962,155 C101.067904,155 63,193.675835 63,241.451866 L63,348 L233,348 L232.999317,241.451866 C233.185924,193.675835 195.11802,155 148.092962,155 Z" id="Shape" fill="#586126"></path>
            <path d="M62.9182789,347.191168 L7.52982366,403.967939 C-17.2737607,429.393227 25.806149,451.186331 41.6580638,453.671509 C99.6574226,463.038721 141.99136,442.774957 166.794944,417.349669 L233,347 L62.9182789,347.191168 Z" id="Shape" fill="#586126"></path>
            <g transform="translate(49.000000, 182.000000)" fill="#DFE9A1" id="Shape">
                <path d="M185.257781,0.0342900686 L9.89784517,36.6103632 C45.0071828,50.3263907 96.1771748,70.519431 109.063049,75.6629413 L185.257781,0.0342900686 Z"></path>
                <path d="M112.051077,90.1409703 L0.373503591,43.8493777 L23.7174781,160.816612 C24.2777334,163.293117 26.7055068,165.00762 29.1332801,164.436119 L216.818835,125.383541 C219.246608,124.81204 220.927374,122.335535 220.367119,119.85903 L197.023144,3.08229616 L112.051077,90.1409703 Z"></path>
            </g>
            <path d="M402.860274,155 L148,155 C194.947945,155 232.953425,193.675835 232.953425,241.451866 L232.953425,348 L385.347945,348 L488,348 L488,241.451866 C487.813699,193.675835 449.808219,155 402.860274,155 Z" id="Shape" fill="#A4BF26"></path>
            <path d="M328,219 C328,228.388841 320.836556,236 312,236 C303.163444,236 296,228.388841 296,219 C296,209.611159 303.163444,202 312,202 C320.836556,202 328,209.611159 328,219 Z" id="Shape" fill="#DFE9A1"></path>
            <polygon id="Shape" fill="#DFE9A1" points="309 12 316 12 316 218 309 218"></polygon>
            <polygon id="Shape" fill="#A4BF26" points="316 41 232 20.4046744 316 0"></polygon>
        </g>
    </g>
</svg>