<?xml version="1.0" encoding="utf-8"?>
<svg id="master-artboard" viewBox="0 0 2800 1948.8" version="1.1" xmlns="http://www.w3.org/2000/svg" x="0px" y="0px" style="enable-background:new 0 0 2800 1948.8;" width="2800px" height="1948.800048828125px" xmlns:xlink="http://www.w3.org/1999/xlink">

<g>
	<defs>
		<path d="M 0 0 H 2800 V 1948.800049 H 0 V 0 Z" id="SVGID_1_"/>
	</defs>
	<clipPath id="SVGID_2_">
		<use style="overflow:visible;" xlink:href="#SVGID_1_"/>
	</clipPath>
	<path d="M 0 0 H 2800 V 1948.800049 H 0 V 0 Z" class="st0" style="clip-path: url('#SVGID_2_'); fill: transparent;"/>
	<path class="st1" d="M988.9,1802.7c-30.3-14.7-60.8,14.1-91.2,8.1c-20.2-3.9-31.7-20.2-37.7-38.8c-3-9.5-4.8-19.4-6.3-29.3&#10;&#9;&#9;c-0.8-5-2.6-9.5-2.5-14.6c0.1-7.6,1-15.4,1.6-23c0.2-3.5,0.4-7.1-1.1-10.3c-2.6-5.4-9.2-7.4-15.1-8.3c-7.6-1.2-15.4-1.6-23-0.1&#10;&#9;&#9;c-10.1,2.1-19.2,7.7-28.9,11c-10.8,3.6-22.9,4.7-34.1,2.3c-9.4-2-16.5-10.4-26.8-10.4c-32.7-20.4-18.4-78-49.2-101.2&#10;&#9;&#9;c-8.8-6.7-20-9.2-30.1-13.9c-50-23.4-29.4-74.2-58.4-108.6c-10.1-12-23.3-21.2-32.6-33.7c-10.9-14.6-17-34-32.8-42.9&#10;&#9;&#9;c-40.3-22.8-68.2,28-95.6,45.1c-9.6,6-22.4,4.3-32.2-1.2c-26.8-15-57.2-63-60.9-93.6c-2.1-17.3,7.6-37-2.5-51.2&#10;&#9;&#9;c-15.6-22.2-41.7-32.4-54.6-59.3c-8.1-16.8-5.4-39.5-24.5-49.6c-13.3-7-30.6-2.3-43.6-9.8c-10.4-6.1-15.2-18.5-23.9-26.9&#10;&#9;&#9;c-20.5-19.9-57.8-13.6-76.9-34.9c-9.8-10.9-11-25.5-18.2-37.6c-11.6-19.3-20-17.3-39.6-24.6c-27.8-10.3-32.9-33.7-48.1-57.2&#10;&#9;&#9;C2.6,1101,0,1214.2,0,1326.9c0,173.6,0,347.1,0,520.7c0,33.7,0,67.5,0,101.2c0,0,1231.4,0,1231.4,0c-21.1-14.8-43.5-32.2-66.9-42.9&#10;&#9;&#9;c-18.1-8.3-37.4-7.9-51.9-23.7c-9.9-10.8-19.2-24-33.4-27.6c-12.2-3.1-25.5,1.8-37.7-1.6c-23.4-6.5-30.1-38.5-51.6-49.8&#10;&#9;&#9;C989.6,1803,989.3,1802.9,988.9,1802.7z" style="clip-path: url('#SVGID_2_'); fill: transparent;"/>
	<path class="st1" d="M1810.9,1802.7c30.3-14.7,60.8,14.1,91.2,8.1c20.2-3.9,31.7-20.2,37.7-38.8c3-9.5,4.8-19.4,6.3-29.3&#10;&#9;&#9;c0.8-5,2.6-9.5,2.5-14.6c-0.1-7.6-1-15.4-1.6-23c-0.2-3.5-0.4-7.1,1.1-10.3c2.6-5.4,9.2-7.4,15.1-8.3c7.6-1.2,15.4-1.6,23-0.1&#10;&#9;&#9;c10.1,2.1,19.2,7.7,28.9,11c10.8,3.6,22.9,4.7,34.1,2.3c9.4-2,16.5-10.4,26.8-10.4c32.7-20.4,18.4-78,49.2-101.2&#10;&#9;&#9;c8.8-6.7,20-9.2,30.1-13.9c50-23.4,29.4-74.2,58.4-108.6c10.1-12,23.3-21.2,32.6-33.7c10.9-14.6,17-34,32.8-42.9&#10;&#9;&#9;c40.3-22.8,68.2,28,95.6,45.1c9.6,6,22.4,4.3,32.2-1.2c26.8-15,57.2-63,60.9-93.6c2.1-17.3-7.6-37,2.5-51.2&#10;&#9;&#9;c15.6-22.2,41.7-32.4,54.6-59.3c8.1-16.8,5.4-39.5,24.5-49.6c13.3-7,30.6-2.3,43.6-9.8c10.4-6.1,15.2-18.5,23.9-26.9&#10;&#9;&#9;c20.5-19.9,57.8-13.6,76.9-34.9c9.8-10.9,11-25.5,18.2-37.6c11.6-19.3,20-17.3,39.6-24.6c27.8-10.3,32.9-33.7,48.1-57.2&#10;&#9;&#9;c-2.8,112.7-0.1,225.9-0.1,338.6c0,173.6,0,347.1,0,520.7c0,33.7,0,67.5,0,101.2c0,0-1231.4,0-1231.4,0&#10;&#9;&#9;c21.1-14.8,43.5-32.2,66.9-42.9c18.1-8.3,37.4-7.9,51.9-23.7c9.9-10.8,19.2-24,33.4-27.6c12.2-3.1,25.5,1.8,37.7-1.6&#10;&#9;&#9;c23.4-6.5,30.1-38.5,51.6-49.8C1810.3,1803,1810.6,1802.9,1810.9,1802.7z" style="clip-path: url('#SVGID_2_'); fill: transparent;"/>
	<path class="st2" d="M-20.2,1011c-23.5-31.6-10.3-81.1-10.3-81.1s51.2,1.7,74.7,33.4s10.3,81.1,10.3,81.1S3.2,1042.7-20.2,1011z" style="clip-path: url('#SVGID_2_'); fill: rgb(0, 108, 109);"/>
	<path class="st3" d="M1768.9,656.1c-31.5-23.6-33.1-74.8-33.1-74.8s49.6-13,81.1,10.6c31.5,23.6,33.1,74.8,33.1,74.8&#10;&#9;&#9;S1800.4,679.7,1768.9,656.1z" style="clip-path: url('#SVGID_2_'); fill: rgb(166, 206, 57);"/>
	<path class="st3" d="M1458.7,589.8c-22.7-32.2-8.2-81.4-8.2-81.4s51.1,3,73.8,35.2s8.2,81.4,8.2,81.4S1481.4,622,1458.7,589.8z" style="clip-path: url('#SVGID_2_'); fill: rgb(166, 206, 57);"/>
	<path class="st3" d="M2483.9,571.7c-39.3,1.5-72.8-37.3-72.8-37.3s30.3-41.3,69.7-42.8s72.8,37.3,72.8,37.3&#10;&#9;&#9;S2523.2,570.2,2483.9,571.7z" style="clip-path: url('#SVGID_2_'); fill: rgb(166, 206, 57);"/>
	<path class="st3" d="M2339.1,746.2c-22,32.6-73.1,36.7-73.1,36.7s-15.4-48.9,6.6-81.5s73.1-36.7,73.1-36.7&#10;&#9;&#9;S2361.1,713.5,2339.1,746.2z" style="clip-path: url('#SVGID_2_'); fill: rgb(166, 206, 57);"/>
	<path class="st3" d="M2116.5,368.9c17.1,35.5-5.1,81.6-5.1,81.6s-50-11.3-67.1-46.8c-17.1-35.5,5.1-81.6,5.1-81.6&#10;&#9;&#9;S2099.4,333.4,2116.5,368.9z" style="clip-path: url('#SVGID_2_'); fill: rgb(166, 206, 57);"/>
	<path class="st3" d="M1932.7,14.6c17.1,35.5-5.1,81.6-5.1,81.6s-50-11.3-67.1-46.8c-17.1-35.5,5.1-81.6,5.1-81.6&#10;&#9;&#9;S1915.6-20.9,1932.7,14.6z" style="clip-path: url('#SVGID_2_'); fill: rgb(166, 206, 57);"/>
	<path class="st3" d="M1325.3,106.6c17.1,35.5-5.1,81.6-5.1,81.6s-50-11.3-67.1-46.8c-17.1-35.5,5.1-81.6,5.1-81.6&#10;&#9;&#9;S1308.2,71.2,1325.3,106.6z" style="clip-path: url('#SVGID_2_'); fill: rgb(166, 206, 57);"/>
	<path class="st3" d="M2252.3,1457.1c-22,32.6-73.1,36.7-73.1,36.7s-15.4-48.9,6.6-81.5c22-32.6,73.1-36.7,73.1-36.7&#10;&#9;&#9;S2274.3,1424.4,2252.3,1457.1z" style="clip-path: url('#SVGID_2_'); fill: rgb(166, 206, 57);"/>
	<path class="st3" d="M1082.2,1141.6c-8.8,38.4-54.9,60.6-54.9,60.6s-32-40-23.2-78.4c8.8-38.4,54.9-60.6,54.9-60.6&#10;&#9;&#9;S1091,1103.2,1082.2,1141.6z" style="clip-path: url('#SVGID_2_'); fill: rgb(166, 206, 57);"/>
	<path class="st3" d="M1251.1,1026.5c-22.3,32.4-73.5,36-73.5,36s-14.9-49,7.4-81.4c22.3-32.4,73.5-36,73.5-36&#10;&#9;&#9;S1273.4,994.1,1251.1,1026.5z" style="clip-path: url('#SVGID_2_'); fill: rgb(166, 206, 57);"/>
	<path class="st3" d="M1474.3,1713.2c-22.3,32.4-73.5,36-73.5,36s-14.9-49,7.4-81.4c22.3-32.4,73.5-36,73.5-36&#10;&#9;&#9;S1496.7,1680.8,1474.3,1713.2z" style="clip-path: url('#SVGID_2_'); fill: rgb(166, 206, 57);"/>
	<path class="st3" d="M971.2,159c-22.3,32.4-73.5,36-73.5,36s-14.9-49,7.4-81.4c22.3-32.4,73.5-36,73.5-36S993.6,126.5,971.2,159z" style="clip-path: url('#SVGID_2_'); fill: rgb(166, 206, 57);"/>
	<path class="st3" d="M749.4,22.7c-22.3,32.4-73.5,36-73.5,36s-14.9-49,7.4-81.4s73.5-36,73.5-36S771.7-9.7,749.4,22.7z" style="clip-path: url('#SVGID_2_'); fill: rgb(166, 206, 57);"/>
	<path class="st3" d="M850,724.5c-13.1,37.1-61.6,53.8-61.6,53.8s-27.2-43.5-14-80.6s61.6-53.8,61.6-53.8S863.2,687.3,850,724.5z" style="clip-path: url('#SVGID_2_'); fill: rgb(166, 206, 57);"/>
	<path class="st3" d="M1123.2,591.1c-13.1,37.1-61.6,53.8-61.6,53.8s-27.2-43.5-14-80.6s61.6-53.8,61.6-53.8&#10;&#9;&#9;S1136.4,554,1123.2,591.1z" style="clip-path: url('#SVGID_2_'); fill: rgb(166, 206, 57);"/>
	<path class="st3" d="M2686.9,188c-22,32.6-73.1,36.7-73.1,36.7s-15.4-48.9,6.6-81.5s73.1-36.7,73.1-36.7S2708.9,155.3,2686.9,188z" style="clip-path: url('#SVGID_2_'); fill: rgb(166, 206, 57);"/>
	<path class="st3" d="M2431.7,1212.1c-33.8,20.2-81.8,2.2-81.8,2.2s6.8-50.8,40.6-71c33.8-20.2,81.8-2.2,81.8-2.2&#10;&#9;&#9;S2465.4,1191.9,2431.7,1212.1z" style="clip-path: url('#SVGID_2_'); fill: rgb(166, 206, 57);"/>
	<path class="st3" d="M1040.7,1845.2c-39-5.2-65.3-49.2-65.3-49.2s37-35.5,76-30.3c39,5.2,65.3,49.2,65.3,49.2&#10;&#9;&#9;S1079.7,1850.4,1040.7,1845.2z" style="clip-path: url('#SVGID_2_'); fill: rgb(166, 206, 57);"/>
	<path class="st3" d="M711.1,1300.8c-39-5.2-65.3-49.2-65.3-49.2s37-35.5,76-30.3c39,5.2,65.3,49.2,65.3,49.2&#10;&#9;&#9;S750.1,1306,711.1,1300.8z" style="clip-path: url('#SVGID_2_'); fill: rgb(166, 206, 57);"/>
	<path class="st3" d="M219.5,110.3c-32.2-22.6-35.4-73.7-35.4-73.7s49.1-14.5,81.4,8.1s35.4,73.7,35.4,73.7S251.7,132.9,219.5,110.3&#10;&#9;&#9;z" style="clip-path: url('#SVGID_2_'); fill: rgb(166, 206, 57);"/>
	<path class="st3" d="M521.8,483.3c-32.2-22.6-35.4-73.7-35.4-73.7s49.1-14.5,81.4,8.1c32.2,22.6,35.4,73.7,35.4,73.7&#10;&#9;&#9;S554,505.9,521.8,483.3z" style="clip-path: url('#SVGID_2_'); fill: rgb(166, 206, 57);"/>
	<path class="st3" d="M-11,275c-32.2-22.6-35.4-73.7-35.4-73.7s49.1-14.5,81.4,8.1s35.4,73.7,35.4,73.7S21.2,297.6-11,275z" style="clip-path: url('#SVGID_2_'); fill: rgb(166, 206, 57);"/>
	<path class="st3" d="M607.1,955.6c-32.2-22.6-35.4-73.7-35.4-73.7s49.1-14.5,81.4,8.1c32.2,22.6,35.4,73.7,35.4,73.7&#10;&#9;&#9;S639.4,978.2,607.1,955.6z" style="clip-path: url('#SVGID_2_'); fill: rgb(166, 206, 57);"/>
	<path class="st3" d="M278.8,910.1c-32.2-22.6-35.4-73.7-35.4-73.7s49.1-14.5,81.4,8.1c32.2,22.6,35.4,73.7,35.4,73.7&#10;&#9;&#9;S311.1,932.7,278.8,910.1z" style="clip-path: url('#SVGID_2_'); fill: rgb(166, 206, 57);"/>
	<path class="st3" d="M258.4,1184.4c-36.5,14.7-81.1-10.7-81.1-10.7s14.7-49.1,51.2-63.7c36.5-14.7,81.1,10.7,81.1,10.7&#10;&#9;&#9;S295,1169.7,258.4,1184.4z" style="clip-path: url('#SVGID_2_'); fill: rgb(166, 206, 57);"/>
	<path class="st3" d="M22.6,1556.4c-39.3-2.1-69-43.8-69-43.8s34-38.3,73.3-36.2c39.3,2.1,69,43.8,69,43.8S61.9,1558.5,22.6,1556.4z&#10;&#9;&#9;" style="clip-path: url('#SVGID_2_'); fill: rgb(166, 206, 57);"/>
	<path class="st3" d="M99.5,1808.2c-35.2-17.7-45.7-67.8-45.7-67.8s46.5-21.5,81.7-3.9s45.7,67.8,45.7,67.8&#10;&#9;&#9;S134.7,1825.8,99.5,1808.2z" style="clip-path: url('#SVGID_2_'); fill: rgb(166, 206, 57);"/>
	<path class="st3" d="M2693.1,1592.2c-33.8,20.2-81.8,2.2-81.8,2.2s6.8-50.8,40.6-71c33.8-20.2,81.8-2.2,81.8-2.2&#10;&#9;&#9;S2726.8,1571.9,2693.1,1592.2z" style="clip-path: url('#SVGID_2_'); fill: rgb(166, 206, 57);"/>
	<path class="st3" d="M2852.6,464.5c-33.8,20.2-81.8,2.2-81.8,2.2s6.8-50.8,40.6-71c33.8-20.2,81.8-2.2,81.8-2.2&#10;&#9;&#9;S2886.4,444.3,2852.6,464.5z" style="clip-path: url('#SVGID_2_'); fill: rgb(166, 206, 57);"/>
	<path class="st3" d="M2804.1,1013.1c-33.8,20.2-81.8,2.2-81.8,2.2s6.8-50.8,40.6-71s81.8-2.2,81.8-2.2S2837.9,992.9,2804.1,1013.1z&#10;&#9;&#9;" style="clip-path: url('#SVGID_2_'); fill: rgb(166, 206, 57);"/>
	<path class="st3" d="M2005.3,1893c-33.8,20.2-81.8,2.2-81.8,2.2s6.8-50.8,40.6-71c33.8-20.2,81.8-2.2,81.8-2.2&#10;&#9;&#9;S2039,1872.8,2005.3,1893z" style="clip-path: url('#SVGID_2_'); fill: rgb(166, 206, 57);"/>
	<path class="st3" d="M1845.4,1472.3c-7.4,38.7-52.8,62.5-52.8,62.5s-33.4-38.9-25.9-77.6c7.4-38.7,52.8-62.5,52.8-62.5&#10;&#9;&#9;S1852.8,1433.7,1845.4,1472.3z" style="clip-path: url('#SVGID_2_'); fill: rgb(166, 206, 57);"/>
	<g class="st4" style="clip-path: url('#SVGID_2_');">
		<g>
			<g>
				<path class="st5" d="M847.8,2036.1c-0.2-1.8-0.1-4.1-0.6-5.9c-0.1,0.3-0.1,0.6-0.2,0.9c-0.5,2.5-0.4,1.2,0.4-3.9&#10;&#9;&#9;&#9;&#9;&#9;c-0.1-3.3-0.9-6.3-2.5-9.2c-2.4-4.3-5-8.6-7.5-12.9c-4.9-8.7-10.3-17-15.5-25.6c-5.2-8.5-11-16.7-16.6-25&#10;&#9;&#9;&#9;&#9;&#9;c-5.4-8.1-10.5-16.2-16.2-24.1c-23.3-32.3-47-64.4-69.1-97.5c-44-66-80.4-138.3-135.6-196.2c-13.3-14-27.4-27.3-42-39.9&#10;&#9;&#9;&#9;&#9;&#9;c-8.4-7.3-17.8-13.7-26.8-20.2c-1.7-1.2-3.4-2.4-5.1-3.7c-1-0.7-1.9-1.5-2.9-2.1c-0.2-0.2-0.5-0.3-0.7-0.5&#10;&#9;&#9;&#9;&#9;&#9;c2.4,2,2.2,1.9-0.6-0.3c-4.7-3.6-9.5-7-14.3-10.5c-3.9-2.9-7.9-5.8-11.8-8.6c-0.8-0.6-1.6-1.2-2.4-1.7c2.4,1.7-0.3-0.2-0.7-0.5&#10;&#9;&#9;&#9;&#9;&#9;c-2.3-1.9-4.6-3.8-6.9-5.7c-8.1-6.7-16.3-13.4-24.4-20.2c-16-13.2-31.8-26.7-47.6-40.1c-61.6-52.3-125.2-103.2-182.5-160.3&#10;&#9;&#9;&#9;&#9;&#9;c-14.3-14.2-27.9-29.1-41.5-44c-13.7-15-27.6-29.8-41.1-44.9c-27.8-31.2-55.3-62.6-82.5-94.3c-6.9-8.1-13.9-16.1-21.1-23.9&#10;&#9;&#9;&#9;&#9;&#9;c-5.2-5.7-15.4,1.9-10.9,8.4c24.2,34.4,50.9,67.1,75.5,101.2c24.2,33.4,47.7,67.9,75.6,98.4c26.8,29.3,56,56.3,85.7,82.6&#10;&#9;&#9;&#9;&#9;&#9;c30.5,27,61.2,53.7,91.8,80.5c31.6,27.8,63.2,55.6,94.5,83.7c14.9,13.4,28.9,27.9,42.9,42.3c6.7,6.9,13.1,14.3,20.1,20.8&#10;&#9;&#9;&#9;&#9;&#9;c6.9,6.4,13.7,12.7,20.4,19.3c13.9,13.4,27.2,27.4,39.4,42.4c1.5,1.9,3,3.8,4.5,5.6c0.4,0.5,2.4,3.1,0.2,0.2&#10;&#9;&#9;&#9;&#9;&#9;c-2.4-3.1,0.1,0.2,0.7,0.9c3.1,4.1,6.2,8.3,9.1,12.6c5.6,8,10.8,16.2,15.8,24.6c9.8,16.6,19,33.5,28.2,50.4&#10;&#9;&#9;&#9;&#9;&#9;c9.4,17.1,19.6,33.7,30.1,50.2c22.7,35.3,46.7,70.2,72.7,103.1c12.3,15.5,24.8,30.5,38.1,45.2c6.7,7.4,13.4,14.9,20.4,22&#10;&#9;&#9;&#9;&#9;&#9;c3.3,3.3,6.6,6.7,9.9,10c2.7,2.7,5.5,4.9,8.3,7.5c-0.6-0.6-3.1-2.6-0.2,0.2c0.9,0.9,1.8,1.7,2.8,2.5c3.7,3.4,7.2,6.9,11,10.2&#10;&#9;&#9;&#9;&#9;&#9;c2.3,2,5,4,8,4.7c0.8,0.1,1.6,0.2,2.4,0.3c3,0.4,3.2,0.4,0.6,0.1c1.9,0.7,3.9,1.3,5.8,1.9&#10;&#9;&#9;&#9;&#9;&#9;C839.8,2049.4,848.5,2043.4,847.8,2036.1L847.8,2036.1z" style="fill: rgb(160, 184, 176);"/>
			</g>
		</g>
		<g>
			<g>
				<path class="st5" d="M673.1,1797.4c0.1-3.2,0.5-6.6-0.2-9.7c-0.7-2.9-1.9-5.8-2.8-8.6c-1.9-5.8-3.7-11.6-5.7-17.3&#10;&#9;&#9;&#9;&#9;&#9;c-4-11.2-7.4-22.5-11.7-33.7c-8.6-22.6-16.7-45.4-24.8-68.2c-16.1-45.1-30.4-91.2-40.5-138c-2.5-11.6-4.9-23.2-7.1-34.8&#10;&#9;&#9;&#9;&#9;&#9;c-1.1-5.7-2.1-11.3-3-17c-0.4-2.7-0.9-5.4-1.3-8.1c-0.2-1.5-0.4-3-0.7-4.5c-0.3-2.1-0.2-1.2,0.4,2.7c-0.4-3-0.8-6-1.2-9&#10;&#9;&#9;&#9;&#9;&#9;c-0.2-1.2-0.3-2.4-0.5-3.6c-0.9-6.1,0.6,4.9,0.1,0.8c-0.6-4.5-1.1-9-1.9-13.4c-0.5-3-1-6-1.4-8.9c-0.2-1.2-0.4-2.4-0.5-3.6&#10;&#9;&#9;&#9;&#9;&#9;c-0.2-1.2-0.3-2.4-0.5-3.6c0.1,1,0.3,2.1,0.4,3.1c-1.3-6.1-1.5-12.8-2.1-19.1c-0.6-6.5-1.2-13-1.6-19.6&#10;&#9;&#9;&#9;&#9;&#9;c-3.7-50.4-7.9-101.2-21-150.2c-14.2-53.1-30.7-105.6-51.4-156.6c-1.6-3.9-5.2-6.6-9.5-5.4c-3.7,1-6.9,5.6-5.4,9.5&#10;&#9;&#9;&#9;&#9;&#9;c9.1,23.1,17.6,46.5,25.1,70.2c7.3,23,13.9,46.7,17.2,70.6c3.3,23.7,5.5,47.8,5.6,71.7c0,12.4,0,24.9-0.7,37.3&#10;&#9;&#9;&#9;&#9;&#9;c-0.7,13.1-2.8,26.1-3.8,39.1c-1.8,24.6-3.7,49.5-2.6,74.2c0.6,13.9,2.8,27.9,4.9,41.6c1.8,11.7,3.8,23.4,6.5,34.9&#10;&#9;&#9;&#9;&#9;&#9;c11.5,48.2,28.8,94.5,48.7,139.8c11,25,23.1,49.3,35.6,73.6c6.2,12,13.2,23.5,19.9,35.2c3.3,5.9,6.8,11.6,10.4,17.3&#10;&#9;&#9;&#9;&#9;&#9;c1.8,2.8,3.5,5.7,5.4,8.5c2.2,3.4,5,5.6,8.2,8.2C664.6,1807.4,673,1804.9,673.1,1797.4L673.1,1797.4z" style="fill: rgb(160, 184, 176);"/>
			</g>
		</g>
		<g>
			<g>
				<path class="st5" d="M509.9,1619.9c-5.5-15.5-13.1-29.7-23.1-42.8c-5.2-6.7-10.2-13.6-16.4-19.6c-6.3-6.1-13.5-11.8-19.8-16.7&#10;&#9;&#9;&#9;&#9;&#9;c-13.2-10.3-29.4-20.4-45.9-27c-18.5-7.4-38.2-11.4-57.6-15.8c-19.2-4.3-38.5-8.4-57.2-14.5c-4.5-1.5-9-3.1-13.4-4.8&#10;&#9;&#9;&#9;&#9;&#9;c-0.8-0.3-1.7-0.7-2.5-1c-0.6-0.2-4.1-1.7-1.6-0.6c2.5,1.1-1-0.4-1.6-0.7c-1.4-0.6-2.7-1.2-4.1-1.8c-8.8-3.9-17.4-8.2-25.9-12.6&#10;&#9;&#9;&#9;&#9;&#9;c-17.9-9.3-35.2-19.6-52.6-29.6c-18.8-10.7-38.5-19.9-57.7-29.9c-21.3-11-42.8-21.7-63.4-33.9c-21.2-12.5-42.3-25.1-63.7-37.4&#10;&#9;&#9;&#9;&#9;&#9;c-7.4-4.2-13.6,6.7-6.6,11.3c17.8,11.8,35.7,23.3,53.6,34.9c8.9,5.8,18.2,11.2,26.8,17.4c8.7,6.2,17.2,12.8,25.9,19.1&#10;&#9;&#9;&#9;&#9;&#9;c17.3,12.6,34.6,25.2,51.9,37.9c16.3,11.9,33.2,23,50.1,34c32.9,21.4,67.6,43.5,106.3,52.5c20.2,4.7,41,6.4,61.6,8.6&#10;&#9;&#9;&#9;&#9;&#9;c2.4,0.3,4.8,0.6,7.2,0.9c-4.5-0.5,2.8,0.4,3.7,0.6c5.9,0.9,11.7,2.3,17.7,2.9c3.7,0.4,1.3,0.1,0.6,0c1.1,0.2,2.2,0.5,3.3,0.8&#10;&#9;&#9;&#9;&#9;&#9;c2,0.5,3.9,1,5.9,1.6c3.9,1.1,7.7,2.2,11.6,3.5c16.2,5.4,30.7,14.8,45.5,25.3c7,4.9,13,11.3,18.9,17.5&#10;&#9;&#9;&#9;&#9;&#9;c6.6,6.9,12.8,14,18.3,21.8C506.9,1623.9,510.9,1622.8,509.9,1619.9L509.9,1619.9z" style="fill: rgb(160, 184, 176);"/>
			</g>
		</g>
		<g>
			<g>
				<path class="st5" d="M757.2,1919.3c-2-9.5-6.4-19.2-12.2-26.9c-6.2-8.2-12.5-16.7-19.8-24c-14.6-14.8-30.3-28.1-47.5-39.7&#10;&#9;&#9;&#9;&#9;&#9;c-32.9-22.3-71.4-38.1-110.5-44.9c-12.9-2.3-25.7-3.3-38.7-3.9c-5.8-0.3-11.6-0.9-17.4-0.8c-1.3,0-2.6,0.1-3.9,0.2&#10;&#9;&#9;&#9;&#9;&#9;c-3.7,0.2-1.6,0.1-0.5,0.2c-3.4-0.3-6.8-1.2-10.2-1.7c-23.1-3.9-45.5-10.8-67.7-18.3c-45.1-15.3-89.8-31.9-134.3-48.7&#10;&#9;&#9;&#9;&#9;&#9;c-25.3-9.6-50.8-18.8-76.4-27.6c-25.6-8.7-51.8-15.8-77.9-22.6c-12.2-3.2-17.1,15.1-5.2,18.8c45.5,14.1,90.7,29.8,135.5,45.9&#10;&#9;&#9;&#9;&#9;&#9;c43.9,15.8,87.5,32.9,130,51.9c21.2,9.5,42,19.8,63.3,28.9c11.3,4.8,22.4,9,34.3,12c5.7,1.4,11,3.3,16.9,4.3&#10;&#9;&#9;&#9;&#9;&#9;c6.3,1.2,12.7,2.2,19.1,3.3c4,0.7,7.9,1.3,11.9,1.9c1.3,0.2,2.6,0.3,3.9,0.5c-5.6-1-1.8-0.2-0.4,0c4.9,0.7,9.8,1.6,14.7,2.6&#10;&#9;&#9;&#9;&#9;&#9;c9.5,1.9,18.9,4.2,28.2,6.8c9.3,2.6,18.5,5.6,27.5,9.1c1.9,0.7,3.9,1.5,5.8,2.3c4.8,1.9-3.2-1.4-0.2-0.1c1.2,0.5,2.4,1,3.6,1.6&#10;&#9;&#9;&#9;&#9;&#9;c4.3,1.9,8.6,3.9,12.8,5.9c19.3,9.1,37.8,20.2,55,32.7c1,0.8,2.1,1.5,3.1,2.3c0.4,0.3,3.9,2.9,2.6,2c-2.9-2.3,8.5,6.5,4.1,3.2&#10;&#9;&#9;&#9;&#9;&#9;c1.2,0.9,2.5,1.8,3.7,2.7c-0.6-0.4-2-1.6,0.5,0.4c1.2,1,2.5,2,3.7,3c2,1.7,4.1,3.3,6,5c8.5,7.3,17.3,14.2,27.2,19.2&#10;&#9;&#9;&#9;&#9;&#9;C752.9,1929,758.3,1924.8,757.2,1919.3L757.2,1919.3z" style="fill: rgb(160, 184, 176);"/>
			</g>
		</g>
	</g>
	<g class="st4" style="clip-path: url('#SVGID_2_');">
		<g>
			<g>
				<path class="st5" d="M2169.2,2035.6c2.5-11.8,6-23.5,9.9-35c1-2.8,2-5.7,3.1-8.5c0.5-1.4,1.1-2.8,1.7-4.2&#10;&#9;&#9;&#9;&#9;&#9;c1.8-4.6-1.3,2.7,0.7-1.7c2.4-5.5,4.9-10.9,7.6-16.3c5.5-10.8,11.6-21.2,18.2-31.3c3.4-5.1,6.8-10.1,10.4-15.1&#10;&#9;&#9;&#9;&#9;&#9;c1.5-2.1,3-4.1,4.6-6.2c0.9-1.2,1.9-2.5,2.8-3.7c1.2-1.6,1.3-1.6,0,0c0.6-0.8,1.3-1.6,1.9-2.4c30.9-39.2,67-73.8,100.4-110.8&#10;&#9;&#9;&#9;&#9;&#9;c38.1-42.1,72.5-87.6,102.2-136c14.7-24,27.7-49.3,38.8-75.1c1.8-4.1,3.5-8.3,5.2-12.4c0.6-1.3,1.1-2.7,1.7-4&#10;&#9;&#9;&#9;&#9;&#9;c0.3-0.6,2.4-6.1,0.6-1.5c3.3-8.2,6.9-16.3,10.1-24.5c5.4-13.5,10.3-27.1,15.3-40.8c2.4-6.7,4.9-13.3,7.6-19.9&#10;&#9;&#9;&#9;&#9;&#9;c0.7-1.7,1.4-3.4,2.1-5.1c2.3-5.6-1.4,3,1.1-2.6c1.5-3.4,3-6.8,4.6-10.2c2.5-5.4,5.1-10.7,8.2-15.8c4.4-7.4,9.3-14.5,14.2-21.6&#10;&#9;&#9;&#9;&#9;&#9;c3.2-4.6,6.5-9.3,9.8-13.8c0.4-0.6,0.9-1.2,1.3-1.9c0.2-0.2,0.3-0.4,0.5-0.6c-2.1,2.6-1.8,2.2,0.9-1.3c0.8-1,1.6-2.1,2.4-3.1&#10;&#9;&#9;&#9;&#9;&#9;c0.5-0.7,2.4-3.1-0.2,0.3c0.5-0.7,1-1.3,1.5-2c1.2-1.6,2.4-3.1,3.6-4.7c9.2-11.8,18.5-23.5,27.8-35.2&#10;&#9;&#9;&#9;&#9;&#9;c44.1-55.3,89.2-109.9,133.2-165.2c19.8-24.9,39.5-50,58-75.9c12.4-17.3,24.2-36,32-55.9c0.5-1.4,1-2.8,1.5-4.2&#10;&#9;&#9;&#9;&#9;&#9;c0.2-0.7,0.4-1.4,0.6-2.1c0.2-0.9,0.2-1.8,0.5-2.8c-0.6,2.8-0.1,1.4,0,0.8c2.5-9.8-12.6-14-15.1-4.2c-0.1,0.6-0.4,2,0.4-0.6&#10;&#9;&#9;&#9;&#9;&#9;c-0.2,0.7-0.7,1.7-1,2.5c-0.3,0.6-1.3,3.1-0.1,0.5c-0.7,1.5-1.4,3-2.1,4.5c-1.8,3.6-3.9,7.1-6,10.5&#10;&#9;&#9;&#9;&#9;&#9;c-5.7,9.1-12.1,17.9-18.6,26.5c-18.6,24.6-34.5,46.7-53.1,70c-44.2,55.5-90.5,109.2-136.7,163.1c-18.8,21.9-37.2,44.1-56.1,66&#10;&#9;&#9;&#9;&#9;&#9;c-14.7,17-28.8,34-39.8,53.7c-14.4,25.9-25.4,53.3-37.5,80.2c-11.5,25.6-25,50.5-38.7,74.9c-13.8,24.5-28.2,48.8-43.7,72.3&#10;&#9;&#9;&#9;&#9;&#9;c-7.4,11.3-15.1,22.3-23.1,33.2c-4.1,5.7-8.4,11.3-12.6,16.9c-3.6,4.7,2.7-3.4-0.9,1.2c-1.1,1.4-2.2,2.8-3.3,4.2&#10;&#9;&#9;&#9;&#9;&#9;c-2.2,2.8-4.4,5.5-6.6,8.3c-32,39.7-67.6,76.3-99.2,116.3c-31.2,39.6-60,82.7-72.8,132.1c-3.2,12.6-4.5,22.6-5.4,36.7&#10;&#9;&#9;&#9;&#9;&#9;C2142.5,2046.8,2166.1,2050.1,2169.2,2035.6L2169.2,2035.6z" style="fill: rgb(160, 184, 176);"/>
			</g>
		</g>
		<g>
			<g>
				<path class="st5" d="M2191,1964.6c6-10.4,10.7-21.4,15.8-32.3c5.1-10.9,10.6-21.6,15.9-32.3c10.8-21.8,21.6-44.4,26.4-68.4&#10;&#9;&#9;&#9;&#9;&#9;c2.3-11.8,3.9-24.3,2.8-36.3c-1.4-14.2-5-27.3-10.7-40.3c-9.5-22-25.1-39.8-40.7-57.6c-3.6-4.2-7.3-8.4-10.8-12.6&#10;&#9;&#9;&#9;&#9;&#9;c-1.8-2.2-3.6-4.5-5.4-6.7c0.9,1.1,2.2,2.9-1.9-2.5c0.9,1.2-2.1-2.8-2.5-3.3c-6.9-9.4-12.8-19.6-17.6-30.3&#10;&#9;&#9;&#9;&#9;&#9;c-10.1-22.7-15.5-48.1-21.2-72.2c-12-50.6-25.9-100.3-46.2-148.3c-22.7-53.5-48.1-105.8-79.1-155c-2-3.2-7-0.3-5.1,3&#10;&#9;&#9;&#9;&#9;&#9;c26.3,43.9,50.5,90.3,67.5,138.7c16.9,48.2,30.5,97.7,40.3,147.8c9.4,48.3,18.4,98.3,42.7,141.8c10.9,19.6,24.1,37.9,34.9,57.5&#10;&#9;&#9;&#9;&#9;&#9;c2.6,4.8,5.5,9.4,7.9,14.3c1.1,2.3,2.4,4.6,3.3,7c-1.5-4.1-0.5-1.3-0.2-0.5c0.7,2,1.4,3.9,2.1,5.8c1.6,5.1,2.8,10.2,3.7,15.4&#10;&#9;&#9;&#9;&#9;&#9;c0.1,0.5,0.2,1.1,0.2,1.6c-0.5-3.8-0.4-2.7,0.4,3.2c-0.1-0.7-0.4-4.2-0.1-0.4c0.2,3.2,0.5,6.3,0.5,9.5c0,3.1-0.1,6.3-0.3,9.4&#10;&#9;&#9;&#9;&#9;&#9;c-0.1,1.6-0.2,3.1-0.4,4.7c-0.1,0.9-0.8,5.6-0.1,1.4c-1,6.3-2.3,12.6-3.9,18.8c-3.3,12.7-7.6,25.2-12.3,37.4&#10;&#9;&#9;&#9;&#9;&#9;c-4.7,12.5-9.8,24.9-14.4,37.5c-4.7,12.9-8.8,25.8-9.1,39.6C2173.4,1969.2,2186.4,1972.6,2191,1964.6L2191,1964.6z" style="fill: rgb(160, 184, 176);"/>
			</g>
		</g>
		<g>
			<g>
				<path class="st5" d="M2311,1813.4c6.7-3.2,12.2-8.1,18.2-12.5c6-4.5,12.2-8.8,18.5-12.9c12.7-8.1,26-14.5,39.8-20.6&#10;&#9;&#9;&#9;&#9;&#9;c0.8-0.3,1.6-0.7,2.3-1c-0.4,0.2-1.4,0.6,0.3-0.1c2-0.8,4-1.6,6-2.4c4-1.5,8.1-3,12.1-4.3c7.6-2.5,15.2-4.9,22.9-7.1&#10;&#9;&#9;&#9;&#9;&#9;c16.1-4.8,32-9.7,47.9-15.2c32.5-11.4,64.6-23.9,96.6-36.7c17.1-6.8,34.5-13.1,50.9-21.6c7.8-4,14.6-9.4,22.3-13.5&#10;&#9;&#9;&#9;&#9;&#9;c7.4-4,14.9-7.6,22.4-11.4c34.5-17.5,70.4-32.3,105.6-48.6c8.6-4,2.5-18.5-6.5-15.4c-16.3,5.5-32.6,11-48.8,16.9&#10;&#9;&#9;&#9;&#9;&#9;c-16.3,6-32.6,12.3-49.2,17.3c-17,5.2-33.9,10.7-51.4,14.2c-17.3,3.5-33.3,10.7-49.6,17.3c-33.4,13.5-66.8,27.1-99.8,41.6&#10;&#9;&#9;&#9;&#9;&#9;c-7.8,3.4-15.5,7-23.3,10.4c-2,0.9-3.9,1.7-5.9,2.6c-2,0.8-0.1,0.1,0.2-0.1c-0.9,0.4-1.7,0.7-2.6,1.1c-4,1.7-8,3.3-12,4.9&#10;&#9;&#9;&#9;&#9;&#9;c-16.5,6.6-33,13.2-48.8,21.4c-15.5,8.1-29.7,18.6-42.8,30.1c-6.6,5.7-12.8,11.8-18.5,18.4c-5.8,6.6-11.4,13.2-14.3,21.6&#10;&#9;&#9;&#9;&#9;&#9;C2301.8,1812.2,2307.3,1815.2,2311,1813.4L2311,1813.4z" style="fill: rgb(160, 184, 176);"/>
			</g>
		</g>
		<g>
			<g>
				<path class="st5" d="M2419.1,1643.8c5.1-4.9,10.2-9.3,14.9-14.7c4.4-5,9.1-9.9,13.7-14.8c9.4-9.9,19.3-19.3,29.6-28.3&#10;&#9;&#9;&#9;&#9;&#9;c21-18.2,39.8-33,62.7-48.6c23-15.7,46.3-31,69.8-45.9c23.7-15,43.7-35.3,66.5-51.5c25.9-18.4,50.5-37.9,73.9-59.3&#10;&#9;&#9;&#9;&#9;&#9;c5.1-4.7-2.3-11.6-7.5-7.5c-21.7,17.4-45.2,32.9-68.7,48c-23.9,15.3-50.6,25.6-75.1,39.8c-12.1,7-23.6,15.2-35.2,22.8&#10;&#9;&#9;&#9;&#9;&#9;c-11.6,7.7-23.1,15.5-34.3,23.8c-22.6,16.9-44.7,34.5-64.8,54.3c-11,10.8-21.1,22.6-30.6,34.7c-5,6.4-9.7,13-14.2,19.8&#10;&#9;&#9;&#9;&#9;&#9;c-4.6,7-7.5,14-10.5,21.7C2407.3,1643.9,2415.3,1647.5,2419.1,1643.8L2419.1,1643.8z" style="fill: rgb(160, 184, 176);"/>
			</g>
		</g>
		<g>
			<g>
				<path class="st5" d="M2323,1797c13.8-27.2,31.9-51.9,48.2-77.6c8-12.5,15.5-25.4,21.4-39c7.1-16.4,11.6-33.1,13.7-50.9&#10;&#9;&#9;&#9;&#9;&#9;c2.1-17.5,1.7-35.2,1.8-52.8c0.1-17.4,1.2-34.7,3.3-52c4.1-33.7,9.1-67.2,14.6-100.7c6.3-38.5,14.5-76.5,15.5-115.7&#10;&#9;&#9;&#9;&#9;&#9;c0.2-9.2-14.1-9.2-14.3,0c-0.9,34-6.8,67.4-14.4,100.5c-7.7,33.4-20.5,65.6-26.3,99.5c-3,17.3-5.3,34.8-6.4,52.4&#10;&#9;&#9;&#9;&#9;&#9;c-1.1,17.3-0.9,34.6-1.6,51.9c-0.6,16.2-1.9,32.3-5.9,48c-3.6,14-9.1,27.2-15.4,40.2c-14.9,30.6-34,59.4-42,92.8&#10;&#9;&#9;&#9;&#9;&#9;C2314.2,1798.2,2320.8,1801.4,2323,1797L2323,1797z" style="fill: rgb(160, 184, 176);"/>
			</g>
		</g>
	</g>
	<g class="st4" style="clip-path: url('#SVGID_2_');">
		<g>
			<g>
				<path class="st5" d="M1353,2015.7c-2.3-30.3-7.8-60.9-15.6-90.3c-8-30.2-21-58.9-34.9-86.7c-26.5-53.2-58-103.4-88.1-154.6&#10;&#9;&#9;&#9;&#9;&#9;c-15.5-26.2-31.2-52.2-44.2-79.7c-13.8-29.2-25.2-57.2-36.7-87.5c-23.5-61.6-46.2-124-78.6-181.7&#10;&#9;&#9;&#9;&#9;&#9;c-31.6-56.3-70.9-109.3-111.3-159.5c-19.5-24.2-38.5-48.8-56.6-74.2c-17.5-24.6-32.2-50.8-46.4-77.4&#10;&#9;&#9;&#9;&#9;&#9;c-57.2-107.3-101.8-221.7-174.2-320.3c-38.9-53-87.1-97.6-128.7-148.3c-39.7-48.3-74.9-100.8-104.8-155.6&#10;&#9;&#9;&#9;&#9;&#9;c-7.5-13.7-14.8-27.4-21.8-41.3c-5.3-10.6-24.2-3-19.5,8.2c24.3,58,54.5,113.5,91.1,164.7C520.8,585,566,632.2,608.1,682.4&#10;&#9;&#9;&#9;&#9;&#9;c78.3,93.3,126,207.2,179.5,315.4c13.4,27,27,53.9,41.6,80.3c14.9,26.8,29.2,54,45.3,80.2c33.4,54.3,72.5,104.6,107.5,157.8&#10;&#9;&#9;&#9;&#9;&#9;c35.1,53.4,63.4,110.4,86.7,168.6c24.1,60.4,46.7,121.2,73.8,180.4c25,54.5,55.5,106.2,84.9,158.3&#10;&#9;&#9;&#9;&#9;&#9;c14.7,26.1,28.3,52.6,41.2,79.6c12.4,25.9,24.8,51.2,34,75.9c5.1,13.6,8.7,27.9,12.3,42C1320,2041.7,1354.7,2038,1353,2015.7&#10;&#9;&#9;&#9;&#9;&#9;L1353,2015.7z" style="fill: rgb(160, 184, 176);"/>
			</g>
		</g>
		<g>
			<g>
				<path class="st5" d="M1152.8,1598.2c-0.6-16.4-0.3-32.9-1.8-49.2c-1.5-16.4-1.3-32.8-2.3-49.2c-1-16.4-3.3-32.9-5.1-49.2&#10;&#9;&#9;&#9;&#9;&#9;c-0.9-8.2-1.8-16.4-2.7-24.6c-0.2-2-0.4-3.9-0.7-5.9c-0.1-1-0.2-2-0.3-3c0.1,0.5-1.3-10.1-0.7-5.2c0.4,3.1-0.4-2.7-0.5-3.7&#10;&#9;&#9;&#9;&#9;&#9;c-0.3-2.3-0.6-4.6-0.9-6.9c-4.5-34.3-8.9-68.6-13.8-102.9c-0.6-3.9-1.1-7.8-1.7-11.7c-0.3-2-0.5-3.9-0.8-5.9&#10;&#9;&#9;&#9;&#9;&#9;c-0.1-0.7-0.6-4.1,0-0.3c0.5,4-0.1-0.5-0.2-1.3c-1.1-8.1-2.1-16.3-3-24.4c-1.9-16.3-3.6-32.6-5.2-48.9&#10;&#9;&#9;&#9;&#9;&#9;c-3.3-32.4-5.9-65.3-5.8-97.9c0-16.2,1-32.4,2.5-48.5c0.7-7.5,1.4-14.9,2.2-22.4c0.4-3.6,0.8-7.2,1.3-10.8&#10;&#9;&#9;&#9;&#9;&#9;c0.2-1.8,0.5-3.6,0.7-5.4c0-0.3,0.4-3.2,0.1-1c-0.3,2.3,0.2-1.5,0.3-1.9c0.3-1.8,0.5-3.6,0.8-5.4c0.1-0.9,0.3-1.8,0.4-2.7&#10;&#9;&#9;&#9;&#9;&#9;c-0.1,0.7,1.2-7.6,0.6-4.4c-0.4,2.1,0.2-0.9,0.2-1.1c0.2-0.9,0.3-1.8,0.4-2.7c0.3-2.1,0.7-4.2,1.1-6.3c1.3-7.5,2.6-15.1,4-22.6&#10;&#9;&#9;&#9;&#9;&#9;c2.8-15.1,5.1-30.3,7.6-45.4c5.2-30.4,11.6-60.6,15.6-91.2c3.8-29.4,7.9-58.9,8.9-88.5c1-29.4-0.9-59-6.7-87.9&#10;&#9;&#9;&#9;&#9;&#9;c-1.5-7.3-3.2-14.5-5.2-21.7c-2-7.4-13.2-4.3-11.5,3.2c6.5,28.9,8.8,58.4,7.9,87.9c-0.8,29.2-3.8,59.1-10.5,87.6&#10;&#9;&#9;&#9;&#9;&#9;c-6.9,29.4-14.9,58.7-23.1,87.8c-8.3,29.4-17.6,58.4-24.7,88.1c-7.5,31.1-14,62-17.6,93.8c-3.7,32.5-5.6,65.1-4.5,97.8&#10;&#9;&#9;&#9;&#9;&#9;c2.4,67.3,13.9,134,26.6,200c7,36.5,14.6,72.7,22.3,109.1c3.9,18.2,10.4,35.5,14.8,53.5c2.2,9.1,4.2,18,7,26.9&#10;&#9;&#9;&#9;&#9;&#9;c2.8,8.8,5.5,17.7,8.1,26.6C1139.4,1608.9,1153.2,1607.5,1152.8,1598.2L1152.8,1598.2z" style="fill: rgb(160, 184, 176);"/>
			</g>
		</g>
		<g>
			<g>
				<path class="st5" d="M1252.7,1838.5c2.7-12.7,3.3-25.6,4.6-38.5c1.3-13.1,2.3-26.2,2.8-39.4c0.5-13.2,2.1-26.2,3.1-39.4&#10;&#9;&#9;&#9;&#9;&#9;c1-13.2,2-26.3,3.5-39.4c0.8-6.6,1.6-13.1,2.4-19.7c0.2-1.3,0.3-2.6,0.5-3.9c0.9-6.5-0.6,4.1,0.3-2.3c0.6-4.5,1.2-9,1.7-13.4&#10;&#9;&#9;&#9;&#9;&#9;c0.8-6.6,1.6-13.1,2.5-19.6c0.1-0.9,0.6-4.5,0,0.1c0.2-1.6,0.4-3.2,0.7-4.8c0.5-3.6,1-7.1,1.5-10.7c0.6-4.7,1.2-9.4,1.8-14&#10;&#9;&#9;&#9;&#9;&#9;c0.6-4.6,0-0.4-0.1,0.4c0.2-1.8,0.5-3.6,0.7-5.3c0.8-5.9,1.8-11.9,2.6-17.8c0.5-3,0.8-6.1,1.2-9.2c0.2-1.7,1.4-5.5,0,0.2&#10;&#9;&#9;&#9;&#9;&#9;c0.7-2.9,0.9-6,1.3-9c0.9-6,1.9-11.9,2.9-17.9c4.2-23.7,9.2-47.1,17-69.9c1.9-5.6,3.8-11.4,6.3-16.7c-0.3,0.7-1.9,4.2-0.1,0.4&#10;&#9;&#9;&#9;&#9;&#9;c0.6-1.4,1.2-2.7,1.8-4.1c1.4-3,2.8-6,4.3-9c5.3-11.1,11.2-21.8,17.3-32.4c13.1-22.8,22.1-43.2,31.5-67.6&#10;&#9;&#9;&#9;&#9;&#9;c4.2-11,8.6-21.8,12.5-33c3.9-11.2,6.8-22.6,10.1-34c15-51.6,25.4-104.5,36-157.1c0.9-4.3-5.5-6.1-6.6-1.8&#10;&#9;&#9;&#9;&#9;&#9;c-11,47.1-22.1,94.3-39.5,139.5c-8.4,21.9-18.6,43.2-29.9,63.7c-5.7,10.4-12.2,20.3-19.1,30c-3.4,4.8-6.1,8.2-9,11.7&#10;&#9;&#9;&#9;&#9;&#9;c-2.3,2.8-4.5,5.8-6.8,8.7c-3.7,4.8,2.1-2.7-1.5,2c-1.1,1.4-2.2,2.9-3.3,4.3c-15.6,20-29.8,41.5-40.2,64.6&#10;&#9;&#9;&#9;&#9;&#9;c-10.5,23.1-18.5,47.2-24.4,71.9c-12,50.3-15.1,103.5-14.6,155c0.2,14.8,0.8,29.5,1,44.3c0.2,14.8,1.6,29.5,2.3,44.3&#10;&#9;&#9;&#9;&#9;&#9;c0.6,15.2,1.4,30.3,3.8,45.4c2.3,14.5,4,29.4,8.6,43.4C1245.6,1842.3,1251.7,1842.9,1252.7,1838.5L1252.7,1838.5z" style="fill: rgb(160, 184, 176);"/>
			</g>
		</g>
		<g>
			<g>
				<path class="st5" d="M1252.6,1596.9c4.1-4,6-8.9,8.9-13.8c2.9-5,5.9-9.9,9.5-14.5c7.1-8.9,15.6-16.9,24.7-23.6&#10;&#9;&#9;&#9;&#9;&#9;c19.4-14.2,41-24.8,61.3-37.4c24.4-15.1,49.8-31.8,69.7-52.7c19.9-21,39.3-42.3,57.3-65c20.7-26.1,40.1-53.1,60.5-79.4&#10;&#9;&#9;&#9;&#9;&#9;c2.3-3-1.5-7.2-4.3-4.3c-10.1,10.7-19.9,21.7-30.6,31.8c-10.7,10.1-21.4,20.3-32,30.5c-10.7,10.2-21.8,19.9-32.7,29.8&#10;&#9;&#9;&#9;&#9;&#9;c-10.9,9.9-21.7,19.9-33.4,29c-21.7,16.9-44.7,37.7-67.4,53.9c-20.3,14.5-40.9,29.3-59.1,46.3c-9.8,9.2-19.1,19.2-26.7,30.3&#10;&#9;&#9;&#9;&#9;&#9;c-6.8,10.1-15.7,24.5-13,37.1C1246.1,1598.3,1250.4,1599.1,1252.6,1596.9L1252.6,1596.9z" style="fill: rgb(160, 184, 176);"/>
			</g>
		</g>
		<g>
			<g>
				<path class="st5" d="M870.7,1111.6c0.2-21.7-4.6-43.6-7.2-65.1c-2.7-22.3-4.4-44.6-5.1-67c-1.5-44.6-0.8-88.9,3.9-133.3&#10;&#9;&#9;&#9;&#9;&#9;c0.6-5.4,1.2-10.8,1.9-16.1c0.2-1.3,0.3-2.6,0.5-3.8c-0.5,3.8-0.1,0.4,0-0.3c0.6-4.4,1.2-8.9,1.8-13.3c0.1-0.9,1.1-8.5,0.5-4.1&#10;&#9;&#9;&#9;&#9;&#9;c0.4-2.9,0.8-5.8,1.2-8.7c0.8-5.8,1.7-11.6,2.5-17.4c3.5-24.1,7.2-48.1,8.6-72.4c1.3-22.8-0.4-45.4-3.1-68&#10;&#9;&#9;&#9;&#9;&#9;c-1.4-12.1-3.2-24.1-6.2-35.9c-2.8-11-6.4-21.9-8.9-33c-2.8-12.5-5.8-24.9-9.1-37.2c-3.4-12.4-5.7-24.9-8-37.6&#10;&#9;&#9;&#9;&#9;&#9;c-4.7-25.9-9-51.9-14.4-77.8c-1.3-6-9.8-3.3-9,2.5c3.2,22.9,7.2,45.7,10.9,68.5c1.9,11.8,4.7,23.7,5.7,35.6&#10;&#9;&#9;&#9;&#9;&#9;c1,11.4,1.6,22.8,2.9,34.1c1.3,11.3,2.4,22.5,2.7,34c0.4,11.4,0.3,22.8,0.8,34.1c0.4,11.3,0.8,22.9-0.3,34.2&#10;&#9;&#9;&#9;&#9;&#9;c-0.1,0.5-1,7.7-0.6,4.8c-0.5,3.9-1.1,7.8-1.5,11.7c-0.6,5.8-1.2,11.6-2,17.5c-0.5,3.7,0.7-4.8-0.2,1.3c-0.3,2.5-0.7,4.9-1,7.4&#10;&#9;&#9;&#9;&#9;&#9;c-0.3,2.6-0.6,5.2-1,7.7c0.5-3.9,0.1-0.6,0,0.2c-0.2,1.3-0.4,2.6-0.5,3.8c-0.6,4.5-1.3,8.9-1.9,13.4&#10;&#9;&#9;&#9;&#9;&#9;c-1.4,11.3-2.7,22.6-4.2,33.8c-3,22.8-6.2,45.6-7.8,68.6c-3.1,44.3-2.2,89.1,3,133.3c3,25.2,7.7,50.3,13.4,75.1&#10;&#9;&#9;&#9;&#9;&#9;c5.5,24.1,11.2,50,23.9,71.5C865.2,1117.2,870.7,1115.7,870.7,1111.6L870.7,1111.6z" style="fill: rgb(160, 184, 176);"/>
			</g>
		</g>
		<g>
			<g>
				<path class="st5" d="M1087.7,1475.1c-8.9-12.8-19-24.8-28.5-37.3c-9.6-12.6-19.3-25.1-29.4-37.4c-19.8-24.2-40.9-47-64.6-67.4&#10;&#9;&#9;&#9;&#9;&#9;c-12.5-10.8-24.5-22.3-37.9-32c-13.2-9.6-27.5-17.6-41.8-25.2c-15-8-30.5-15-45.1-23.7c-14.4-8.5-28.7-17.1-42.4-26.7&#10;&#9;&#9;&#9;&#9;&#9;c-15.6-10.9-30.4-22.5-46.3-33c-8.3-5.5-16.5-10.6-24.3-16.7c-8.3-6.5-16.3-13.3-24.3-20.1c-6.5-5.5-15.5,3.1-9.4,9.4&#10;&#9;&#9;&#9;&#9;&#9;c12.5,13.1,25,25.9,35.7,40.4c10.5,14.2,21.3,28,33.3,40.9c11.9,12.8,24.2,25,38.1,35.7c15,11.6,31.8,20.5,49.5,27.6&#10;&#9;&#9;&#9;&#9;&#9;c8,3.2,16,6.2,24,9.5c1.1,0.5,2.3,0.9,3.4,1.4c0.3,0.1,3.1,1.3,0.8,0.3c-2.3-1,0.5,0.2,0.8,0.4c1.1,0.5,2.2,0.9,3.3,1.4&#10;&#9;&#9;&#9;&#9;&#9;c3.6,1.6,7.2,3.3,10.7,5c14,6.8,28,13.9,41.5,21.8c26.4,15.3,49.4,35.7,72.4,55.7c13.2,11.5,26.1,23.4,38.8,35.5&#10;&#9;&#9;&#9;&#9;&#9;c12.8,12.3,24.7,25.4,37.7,37.6C1085.7,1480.1,1089.4,1477.6,1087.7,1475.1L1087.7,1475.1z" style="fill: rgb(160, 184, 176);"/>
			</g>
		</g>
		<g>
			<g>
				<path class="st5" d="M899.6,1143.4c-4.1-10.6-4.4-21.9-10.1-31.9c-5.6-9.7-11.4-19.3-17.9-28.5c-12.8-18-26.9-36.4-43.7-50.9&#10;&#9;&#9;&#9;&#9;&#9;c-33.3-28.7-72.1-47.9-113.3-62.4c-42-14.8-85.5-26.4-129.3-33.9c-24-4.1-48.2-7.1-72.3-10.8c-24.4-3.8-48.9-6.9-73.5-9.1&#10;&#9;&#9;&#9;&#9;&#9;c-54.5-4.9-109.9-6.5-164.2,0.8c-11.3,1.5-8.7,20.9,2.7,20c47.4-3.5,95-4,142.3,1.2c46.3,5,92.3,13.3,137,26.5&#10;&#9;&#9;&#9;&#9;&#9;c22.9,6.7,45.8,13.4,68.9,19.7c20.3,5.5,40.7,10.7,60.8,16.9c9.5,2.9,19,6,28.4,9.4c4.7,1.7,9.3,3.4,13.9,5.3&#10;&#9;&#9;&#9;&#9;&#9;c2,0.8,4.1,1.6,6.1,2.5c4.9,2-2.1-1,0.8,0.3c1.5,0.7,3,1.3,4.5,2c18.3,8.1,36.1,17,52.8,28.1c2.3,1.5,4.5,3.1,6.7,4.6&#10;&#9;&#9;&#9;&#9;&#9;c1.1,0.8,2.2,1.6,3.3,2.4c0.5,0.4,3.8,2.9,2.9,2.1c-1.7-1.4,2.5,2,2.2,1.8c1.1,0.9,2.2,1.7,3.4,2.6c1.4,1.1,1.7,1.3,0.9,0.7&#10;&#9;&#9;&#9;&#9;&#9;c-1.7-1.3,2.6,2.1,2.2,1.8c1.4,1.1,2.8,2.3,4.1,3.4c9,7.6,17.3,16.1,25.1,25c8.1,9.3,16,18.9,23.7,28.6c3.9,4.9,7.6,9.2,12.6,13&#10;&#9;&#9;&#9;&#9;&#9;c5.1,3.8,10.1,7,14.6,11.5C897,1147.7,900.6,1145.9,899.6,1143.4L899.6,1143.4z" style="fill: rgb(160, 184, 176);"/>
			</g>
		</g>
		<g>
			<g>
				<path class="st5" d="M719.8,1004.8c-8.3-7.4-16.4-15.1-25.4-21.7c-9.1-6.7-18.2-13.3-27.3-20c-17.7-12.9-35.4-25.8-53.1-38.6&#10;&#9;&#9;&#9;&#9;&#9;c-18.1-13-36.8-25.1-55.3-37.5c-17.1-11.4-34.2-22.9-51.6-33.8c-18-11.3-35.7-22.8-54.6-32.5c-18.6-9.5-37.3-19-56-28.3&#10;&#9;&#9;&#9;&#9;&#9;c-37.3-18.6-73.1-40.2-110.2-59.3c-41.8-21.6-84.3-41.3-128.1-58.6c-7-2.8-12.1,9.1-5.1,12.2c38,16.9,75.4,35.3,112.2,54.7&#10;&#9;&#9;&#9;&#9;&#9;c36.6,19.3,72.7,39.6,107.6,61.9c17.6,11.3,34.5,23.8,51.4,36.2c16.7,12.2,33.6,23.8,51,35c35.8,22.8,72,44.9,108.2,67.2&#10;&#9;&#9;&#9;&#9;&#9;c20.8,12.8,42.4,24.3,63.7,36.1c11,6.1,21.9,12.2,32.9,18.3c11.1,6.2,22.5,11.1,34.1,16.1&#10;&#9;&#9;&#9;&#9;&#9;C718.5,1014.4,724.2,1008.8,719.8,1004.8L719.8,1004.8z" style="fill: rgb(160, 184, 176);"/>
			</g>
		</g>
		<g>
			<g>
				<path class="st5" d="M1223.6,1721.4c-9.1-13-19.2-25.1-29.7-37c-9.9-11.3-21.3-21.4-32.3-31.6c-21.6-20-44.7-40-71.6-52.4&#10;&#9;&#9;&#9;&#9;&#9;c-52.1-24-110-28.5-163.6-48c-2.7-1-5.4-2-8.1-3.1c-5.5-2.1,4.5,2.1-0.5-0.2c-1.4-0.7-2.9-1.3-4.3-2c-6.2-3-12.2-6.3-18-9.9&#10;&#9;&#9;&#9;&#9;&#9;c-5.4-3.3-10.7-6.9-15.9-10.5c-2.2-1.5-4.4-3.1-6.5-4.6c-1.3-0.9-2.6-1.9-3.9-2.8c-1-0.7-6.9-5.1-1.8-1.3&#10;&#9;&#9;&#9;&#9;&#9;c-22.2-16.5-42.6-35.4-64.9-51.9c-21.5-15.8-45.2-30.1-69.9-40.2c-23.5-9.6-48.2-19.2-72.3-30.5c-53.7-25.2-106.4-52.4-152-90.9&#10;&#9;&#9;&#9;&#9;&#9;c-7.1-5.9-17,3.5-10.3,10.3c37.8,38.3,85.6,63.9,132.7,88.9c23.3,12.3,46.1,25.2,68.5,39c11.3,6.9,21.6,15.2,32.6,22.4&#10;&#9;&#9;&#9;&#9;&#9;c11.5,7.5,22.7,15.4,33.7,23.6c0.6,0.5,4.8,3.8,1,0.7c0.8,0.7,1.7,1.3,2.5,2c2.5,2,4.9,4,7.4,6.1c5.3,4.5,10.5,9.1,15.7,13.8&#10;&#9;&#9;&#9;&#9;&#9;c9.6,8.7,19.1,17.6,28.8,26.1c20.5,18.2,41.9,36,66.8,48c52,25.2,110.3,26.1,164.9,42.3c7.1,2.1,14.1,4.5,21,7.2&#10;&#9;&#9;&#9;&#9;&#9;c0.4,0.2,5.6,2.4,1.8,0.7c1.1,0.5,11,4.9,6.3,2.8c3.8,1.7,7.5,3.5,11.2,5.4c14.2,7.3,27.5,16.2,40.3,25.6&#10;&#9;&#9;&#9;&#9;&#9;c13,9.5,25.5,19.7,38.1,29.7c14,11.1,28.7,21.3,43.4,31.3C1220,1733.7,1227.3,1726.6,1223.6,1721.4L1223.6,1721.4z" style="fill: rgb(160, 184, 176);"/>
			</g>
		</g>
		<g>
			<g>
				<path class="st5" d="M1020.6,1598.3c-1.5-1.9-2.8-4-4.8-5.4c-2-1.4-4.4-2.6-6.6-3.7c-4.9-2.3-10-4.2-15-6.2&#10;&#9;&#9;&#9;&#9;&#9;c-9.7-3.9-19.5-7-29.5-10.1c-19.5-6-39.2-12.1-59.3-15.9c-21.6-4.2-42.4-4-64-0.2c-18.9,3.4-37.1,10.1-55.2,16.1&#10;&#9;&#9;&#9;&#9;&#9;c-19,6.3-38.2,11.8-57.8,15.9c-19.8,4.1-39.8,7.1-59.8,10.2c-4.7,0.7-9.4,1.4-14,2.1c-2.5,0.4-5,0.7-7.5,1.1&#10;&#9;&#9;&#9;&#9;&#9;c-1.3,0.2-2.5,0.3-3.8,0.5c-0.3,0-2.9,0.4-1.3,0.2c-5.1,0.7-10.1,1.3-15.2,2c-5.7,0.7-9.8,1.2-15.2,1.8&#10;&#9;&#9;&#9;&#9;&#9;c-20.8,2.3-41.6,4.6-62.4,6.5c-23.5,2.1-46.9,4.9-70.5,6.1c-11.4,0.6-22.8,0.2-34.1-0.4c-12-0.6-24-0.9-35.9-1.9&#10;&#9;&#9;&#9;&#9;&#9;c-7.9-0.7-9.6,12.2-1.9,13.8c20.7,4.3,41.1,6.4,62.2,7.5c20.9,1.1,41.7,3,62.6,2.9c20.5-0.1,41.1-1.6,61.6-2.8&#10;&#9;&#9;&#9;&#9;&#9;c20-1.2,40.1-2.1,60.1-3.4c41.5-2.7,82.6-8.6,122.4-21c18.4-5.7,36.3-12.7,54.8-18.2c9.3-2.8,18.7-5.2,28.2-6.9&#10;&#9;&#9;&#9;&#9;&#9;c2.1-0.4,4.1-0.7,6.2-1c-2.6,0.3,0.5,0,0.8-0.1c1.2-0.1,2.4-0.2,3.6-0.3c5.3-0.4,10.6-0.5,15.8-0.4c22,0.5,42.7,4.9,64.8,9.4&#10;&#9;&#9;&#9;&#9;&#9;c11.5,2.3,22.8,5.2,34.4,7.1c5.5,0.9,10.9,1.9,16.4,2.8c3,0.5,6,0.9,9.1,0.9c3.3,0.1,5.5-0.8,8.7-1.7&#10;&#9;&#9;&#9;&#9;&#9;C1022.1,1605,1022.8,1601,1020.6,1598.3L1020.6,1598.3z" style="fill: rgb(160, 184, 176);"/>
			</g>
		</g>
		<g>
			<g>
				<path class="st5" d="M739.5,853.3c-0.3-6.2-0.3-12.7-1.9-18.8c-1.8-6.5-4-13.1-6.2-19.5c-4-11.8-8.4-23.5-12.4-35.3&#10;&#9;&#9;&#9;&#9;&#9;c-8.2-24.2-15.7-48.7-22.4-73.4c-6.7-24.7-12-49.7-16.5-74.9c-1.1-6.1-2.2-12.3-3.2-18.4c-0.5-3.1-1-6.2-1.4-9.3&#10;&#9;&#9;&#9;&#9;&#9;c-0.2-1.2-0.4-2.5-0.5-3.7c0.6,5.6-0.3-2.4-0.4-3.4c-1.5-11.9-2.6-23.9-3.3-35.9c-1.6-24.5-3.2-49.1-3.9-73.7&#10;&#9;&#9;&#9;&#9;&#9;c-0.4-12.3-0.6-24.7-0.7-37.1c-0.2-12.4-1.3-24.7-1.5-37.1c-0.4-24.7-0.6-49.4-1.9-74c-1.3-24.6-4.3-48.8-6.8-73.3&#10;&#9;&#9;&#9;&#9;&#9;c-0.7-6.6-1.7-12.9-3.1-19.4c-1.5-6.9-2.2-13.8-3.1-20.8c-1.8-13.3-3.9-26.7-6.3-39.9c-4.7-26.8-12.4-52.7-22.8-77.8&#10;&#9;&#9;&#9;&#9;&#9;c-1.9-4.5-9.2-2.7-7.5,2.1c8.5,22.6,14.7,46,19.7,69.6c4.9,23.3,9.1,48.2,7.3,72c-1,12.4-0.2,24.9-1.2,37.3&#10;&#9;&#9;&#9;&#9;&#9;c-0.9,12.2-2,24.5-2.9,36.7c-1.9,24.7-4,49.3-5.9,73.9c-0.5,5.7-0.9,11.5-1.4,17.2c-0.1,1.8-0.4,3.6-0.4,5.4&#10;&#9;&#9;&#9;&#9;&#9;c0,0.6,0.2,3.6,0.2,0.5c0.1,4.4-1.2,9.5-1.7,14c-1.3,12.3-1.9,24.7-2.4,37.1c-1,24.5-1.8,49.3-0.2,73.8&#10;&#9;&#9;&#9;&#9;&#9;c3.3,51.8,14.3,102.8,30.6,152c9.3,28.1,20.1,55.6,31.7,82.8c5.6,13.2,11.4,26.3,17.3,39.3c3,6.5,6.3,12.8,9.6,19.1&#10;&#9;&#9;&#9;&#9;&#9;c3.5,6.8,8.4,12.2,13.7,17.7C731.7,862.6,739.8,859.4,739.5,853.3L739.5,853.3z" style="fill: rgb(160, 184, 176);"/>
			</g>
		</g>
		<g>
			<g>
				<path class="st5" d="M648.2,699c-13.8-18.3-32.4-32.6-49.4-47.8c-16.6-14.7-33.2-29.5-49.8-44.2c-16.4-14.6-32.8-29.2-49.2-43.7&#10;&#9;&#9;&#9;&#9;&#9;c-16.5-14.5-33.4-29-52.2-40.6c-17.2-10.6-35.7-18.9-54.3-26.8c-20.7-8.7-41.9-15.5-63.1-22.6c-20.3-6.9-40.2-14.4-59.9-22.7&#10;&#9;&#9;&#9;&#9;&#9;c-19.5-8.2-38.7-17.1-57.8-26.1c-44.2-20.8-87.2-44.4-132.5-62.6c-8.2-3.3-12.2,9.1-5.7,13.5c35.6,24.1,74.7,42.5,113.3,61.4&#10;&#9;&#9;&#9;&#9;&#9;c38.2,18.7,77.3,35.9,114.8,56c18.8,10.1,37.4,20.4,56.8,29.2c18.4,8.3,37.2,15.9,55,25.5c9.2,5,18.1,10.5,26.7,16.4&#10;&#9;&#9;&#9;&#9;&#9;c4.1,2.8,8.1,5.7,12.1,8.6c1,0.7,2,1.5,3,2.2c0.3,0.2,2.8,2.1,0.6,0.5c2.2,1.7,4.4,3.5,6.6,5.2c16.9,13.6,33.4,27.6,50,41.5&#10;&#9;&#9;&#9;&#9;&#9;c18.9,15.7,37.7,31.5,56.6,47.2c9.7,8.1,19.4,16.2,29.1,24.2c10.1,8.4,20.1,17.1,31.8,23.4c5.1,2.7,11.5,2.1,15.6-2&#10;&#9;&#9;&#9;&#9;&#9;C649.9,710.9,651.6,703.5,648.2,699L648.2,699z" style="fill: rgb(160, 184, 176);"/>
			</g>
		</g>
		<g>
			<g>
				<path class="st5" d="M868.9,783.4c10.1-40.4,19.5-82.1,38.6-118.3c9.8-18.7,22.3-36,34.4-53.2c12.4-17.7,24.1-35.8,33.9-55.1&#10;&#9;&#9;&#9;&#9;&#9;c10.6-20.9,19.6-42.4,26.4-64.8c6.5-21.3,12.6-42.7,18.3-64.3c5.6-21.3,10.3-42.8,14.5-64.5c4.2-22,8.6-43.9,12.6-65.9&#10;&#9;&#9;&#9;&#9;&#9;c9-49.2,16.6-98.9,19.5-148.9c0.2-3.9-3.4-7.1-7.1-7.1c-4.2,0-6.7,3.3-7.1,7.1c-5,43.9-10.7,87.9-20.1,131.1&#10;&#9;&#9;&#9;&#9;&#9;c-4.7,21.8-9.7,43.6-16.5,64.8c-6.7,21-14.2,41.7-21.7,62.5c-7.6,21.1-14.9,39.8-23.3,58.8c-4.5,10.3-9.3,20.4-13.8,30.7&#10;&#9;&#9;&#9;&#9;&#9;c-2.5,5.7-4.8,11.4-7.1,17.1c-1,2.6-2.1,5.2-3.2,7.8c-0.2,0.5-1.7,4.1-0.8,1.8c1-2.4-1,2.3-1.2,2.7&#10;&#9;&#9;&#9;&#9;&#9;c-8.8,20.2-19.2,39.6-31.1,58.1c-11.7,18.2-23.7,35.9-32.1,55.9c-19,44.8-25.4,93.1-30.4,141.2&#10;&#9;&#9;&#9;&#9;&#9;C850.3,791.1,866.5,793,868.9,783.4L868.9,783.4z" style="fill: rgb(160, 184, 176);"/>
			</g>
		</g>
		<g>
			<g>
				<path class="st5" d="M640.5,486.6c3.6-7.7,5.9-15.8,9.1-23.7c3-7.4,6.4-14.7,10.1-21.8c7.8-15,17.1-29.1,26.2-43.3&#10;&#9;&#9;&#9;&#9;&#9;c18.1-28.2,37.5-55.9,50.8-86.9c8-18.7,14.3-37.9,19-57.6c4.6-18.9,8.8-38,14.4-56.6c5.2-17.2,11.6-33.9,17.3-50.9&#10;&#9;&#9;&#9;&#9;&#9;c5.7-16.9,11.2-33.8,17-50.6c3.3-9.6,7.8-18.9,11.5-28.4c3.7-9.3,7.2-18.7,10.4-28.2c6.5-19.2,10.9-39.3,14.3-59.2&#10;&#9;&#9;&#9;&#9;&#9;c0.8-5-6.5-7.2-7.7-2.1c-2.1,8.9-4.5,17.8-8,26.3c-3.4,8.2-7,16.3-10.6,24.4c-7.4,16.5-15.7,32.5-24.2,48.4&#10;&#9;&#9;&#9;&#9;&#9;c-8.4,15.7-18.4,30.6-27.6,45.9c-9.7,16.2-17.1,33.4-23.4,51.2c-13.1,36.5-17.7,75.4-28.3,112.6c-5,17.6-10.3,30.7-17.9,46.3&#10;&#9;&#9;&#9;&#9;&#9;c-7.5,15.3-15.8,30.3-23.9,45.3c-9.2,16.8-17.7,34-24.8,51.8c-3.4,8.6-6.6,17.3-8.9,26.2c-2.4,9.1-4.8,18.9-4.1,28.4&#10;&#9;&#9;&#9;&#9;&#9;C631.5,488.6,638.2,491.5,640.5,486.6L640.5,486.6z" style="fill: rgb(160, 184, 176);"/>
			</g>
		</g>
		<g>
			<g>
				<path class="st5" d="M670.6,616c-1-6.4-0.5-12.7-2.2-19c-1.6-6.1-3.6-12.1-5.4-18.1c-3.7-12-7.3-24.1-11.6-36&#10;&#9;&#9;&#9;&#9;&#9;c-8.7-24-17.7-47.9-27.4-71.5c-9.8-24.2-20.6-47.8-32.3-71.1C586,389,580,378,573.5,367.2c-6.5-10.8-13.2-21.4-19.2-32.4&#10;&#9;&#9;&#9;&#9;&#9;c-11.9-22-17.8-46-25.7-69.6c-7.4-22-16.3-43.6-26.4-64.5c-19.6-40.9-44.4-79.2-71.9-115.2C399,44.5,365,5.8,329.3-31.6&#10;&#9;&#9;&#9;&#9;&#9;c-5-5.2-12.1,2.4-7.8,7.8c56.3,70.7,116.6,139.2,157.5,220.5c10,20,18.8,40.4,25.4,61.8c7.4,23.7,12.1,48.2,18.9,72&#10;&#9;&#9;&#9;&#9;&#9;c7.1,24.9,17.6,48.7,30.2,71.3c12.1,21.8,23,44.2,34.1,66.5c12.5,25.1,24.2,50.6,35.5,76.2c5.6,12.7,11.4,25.2,17.4,37.7&#10;&#9;&#9;&#9;&#9;&#9;c3,6.2,5.8,12.5,8.9,18.7c1.7,3.5,3.4,6.9,6,9.8c2.5,2.8,4.7,5.6,6.7,8.8C665,624.2,671.4,621.1,670.6,616L670.6,616z" style="fill: rgb(160, 184, 176);"/>
			</g>
		</g>
		<g>
			<g>
				<path class="st5" d="M439.5,544.8c-5.1-13.2-19.2-21.5-31.5-27.6c-13.5-6.7-27.7-10.5-42.6-12.7c-34.2-5.1-68.6-2.2-102.5,3.2&#10;&#9;&#9;&#9;&#9;&#9;c-33.3,5.2-66.2,10.8-99.2,14.5c-34.3,3.8-68.6,7.9-103,10.8c-38.8,3.3-78.1,2.2-117,2.6c-7.7,0.1-7.7,11.8,0,12&#10;&#9;&#9;&#9;&#9;&#9;c17,0.4,34.1,0.6,51.1,0.8c16.7,0.2,33.5-0.2,50.2,0.5c34.1,1.4,68,3,102.1,2.7c34.3-0.2,68.9-3.1,102.8-8&#10;&#9;&#9;&#9;&#9;&#9;c32.8-4.7,61.9-10.2,95-10.4c8-0.1,16.1,0.3,24,1.1c0.8,0.1,1.6,0.2,2.5,0.3c2.7,0.3-1.6-0.2,1.1,0.1c2.2,0.3,4.4,0.7,6.6,1.1&#10;&#9;&#9;&#9;&#9;&#9;c3.8,0.7,7.6,1.6,11.4,2.2c7.8,1.4,15.5,3.3,23,5.8c7.3,2.5,14.7,5.3,22.4,5.8C438.2,549.7,440.4,547,439.5,544.8L439.5,544.8z" style="fill: rgb(160, 184, 176);"/>
			</g>
		</g>
		<g>
			<g>
				<path class="st5" d="M635.4,966.3c-6-0.6-12-1.5-18-1.4c-6,0.1-12,0.2-18,0.3c-12,0.3-24,1-36,1.5c-24.2,1-48.5,2.5-72.5,5.5&#10;&#9;&#9;&#9;&#9;&#9;c-24.3,3.1-48.5,7.1-72.3,13c-23.3,5.7-45.8,14.1-68.6,21.4c-21.4,6.8-43.4,13.6-65.3,15.6c-10.1,0.9-20.3,1.1-30.4,0.6&#10;&#9;&#9;&#9;&#9;&#9;c-10.4-0.5-18.6-1.4-28.1-3c-40.9-6.9-79.7-22-119.6-32.9c-45.2-12.3-91-23.8-138.1-23c-6.2,0.1-6.2,9.4,0,9.6&#10;&#9;&#9;&#9;&#9;&#9;c42,1.6,82.6,15.4,121.3,31c38.6,15.5,77.3,30.6,118.2,39.4c20.4,4.4,41.4,7.3,62.3,7.4c23.4,0.2,46.6-3.7,69.2-9.7&#10;&#9;&#9;&#9;&#9;&#9;c23.1-6.1,45.4-14.9,68.2-22.2c22.8-7.4,45.7-13.8,69.2-18.7c26.2-5.4,52.7-9.6,79.2-12.9c27-3.4,54.5-4.2,81.1-10.1&#10;&#9;&#9;&#9;&#9;&#9;C643.8,976.3,641.5,967,635.4,966.3L635.4,966.3z" style="fill: rgb(160, 184, 176);"/>
			</g>
		</g>
	</g>
	<g class="st4" style="clip-path: url('#SVGID_2_');">
		<g>
			<g>
				<path class="st5" d="M2549.9,381.2c16.5-13.3,37.1-21.3,57.8-24.9c20.9-3.6,42.1-4.3,63.1-7c11.3-1.5,22.6-3,33.6-6&#10;&#9;&#9;&#9;&#9;&#9;c13.2-3.5,26-8.1,38.5-13.6c22.9-10.2,45.1-20.9,69.8-26.3c6.4-1.4,13-2.4,19.5-3.6c6.5-1.1,12.8-2.8,19.3-4.1&#10;&#9;&#9;&#9;&#9;&#9;c12.8-2.5,24.6-6.4,35.2-14.2c3.2-2.4,0.5-7.5-3.2-5.5c-10.5,5.8-22.4,9.3-34.2,11.5c-11.4,2.1-23.4,2-34.9,3.2&#10;&#9;&#9;&#9;&#9;&#9;c-25.6,2.6-50.4,9.4-75.1,16.1c-23.4,6.3-46.5,12.6-70.2,17.3c-21.4,4.3-42.7,8.5-63.5,15.3c-23.2,7.6-45.3,17-62.9,34.4&#10;&#9;&#9;&#9;&#9;&#9;C2537.8,378.7,2544.9,385.3,2549.9,381.2L2549.9,381.2z" style="fill: rgb(160, 184, 176);"/>
			</g>
		</g>
		<g>
			<g>
				<path class="st5" d="M1619.4,2001.7c1.8-18.2,5.3-35.8,8.7-53.7c3.6-19.6,5-39.8,7.5-59.6c4.6-36.6,9-72.9,14.3-108.8&#10;&#9;&#9;&#9;&#9;&#9;c11-74.8,25.2-149.2,44.8-222.2c18.9-70.4,40-139.4,68.3-206.6c26.8-63.7,58-125.5,90.6-186.5&#10;&#9;&#9;&#9;&#9;&#9;c66.5-124.2,138.4-245.6,203.4-370.6c33.3-63.9,64.9-128.8,91.4-195.8c14.1-35.7,27.3-71.5,38.3-108.2&#10;&#9;&#9;&#9;&#9;&#9;c10-33.4,19.5-68,32.9-99.7c24.7-58.5,56.7-114.2,89.3-168.6c32.4-54,66.2-110.2,83.7-171.2c4.4-15.1,7.6-30.5,10.1-46.1&#10;&#9;&#9;&#9;&#9;&#9;c3-19-24.3-27.7-29.6-8.2c-16.4,60.3-45.8,116.1-78.5,169.1c-33.7,54.6-72.8,106.4-101.6,163.8c-15.2,30.4-28.2,62.3-36.7,95.2&#10;&#9;&#9;&#9;&#9;&#9;c-9.5,36.9-15.4,74.7-26.1,111.3c-20.5,70-53.8,136.7-86.8,201.5c-64.1,125.7-140.6,244.1-210.4,366.5&#10;&#9;&#9;&#9;&#9;&#9;c-70.8,124.2-136,253.4-180.9,389.5c-23.8,72.2-39.9,147.4-51.7,222.4c-6.1,38.7-11.1,77.7-15.3,116.7&#10;&#9;&#9;&#9;&#9;&#9;c-2,18.8-3.3,37.7-4.4,56.5c-1.1,18.8-3,37.9-2.1,56.6c0.9,18.9,1.7,37.7,1.4,56.7c-0.2,10.7,9.2,19.8,19.8,19.8&#10;&#9;&#9;&#9;&#9;&#9;C1611.2,2021.5,1618.3,2012.4,1619.4,2001.7L1619.4,2001.7z" style="fill: rgb(160, 184, 176);"/>
			</g>
		</g>
		<g>
			<g>
				<path class="st5" d="M1611.1,1811.6c11.5-14.5,21.1-30,30.6-45.9c9.5-15.8,19.3-31.4,28.5-47.4c9.1-15.7,18.6-31.1,28.8-46&#10;&#9;&#9;&#9;&#9;&#9;c5.2-7.7,10.6-15.2,16.3-22.6c0.6-0.8,1.3-2,2-2.6c-0.4,0.4-2.9,3.7-0.4,0.6c1.3-1.7,2.7-3.4,4-5.1c2.9-3.6,5.8-7.2,8.7-10.7&#10;&#9;&#9;&#9;&#9;&#9;c11.5-14.1,23.8-27.4,37.1-39.7c6.8-6.3,13.9-12.3,21.2-18.1c1-0.8,2.9-2.9-0.8,0.6c0.8-0.7,1.8-1.4,2.6-2&#10;&#9;&#9;&#9;&#9;&#9;c1.8-1.3,3.5-2.6,5.3-3.9c3.8-2.7,7.6-5.4,11.5-7.9c30.4-20.4,63.2-36.7,96.4-51.9c33.6-15.4,68.2-29.3,100.1-48.1&#10;&#9;&#9;&#9;&#9;&#9;c7.8-4.6,15.1-10.3,22.3-15.7c2.3-1.7,4.6-3.5,6.9-5.3c-0.8,0.6,6.1-4.2,2.6-2c-2.5,1.6,0.5-0.3,1.1-0.7&#10;&#9;&#9;&#9;&#9;&#9;c3.8-2.7,7.6-5.5,11.3-8.4c1.9-1.4,3.7-2.9,5.6-4.3c2.9-2.3,0.4-0.4-0.1,0.1c2.8-2.2,5.6-4.3,8.4-6.5c4.2-3.3,8.3-6.7,12.4-10.2&#10;&#9;&#9;&#9;&#9;&#9;c7.5-6.3,14.7-12.9,21.9-19.7c28.9-27.3,55.2-57,82.3-86.1c13.7-14.7,27.6-29.4,42.6-42.7c15.1-13.3,30.5-26.2,46.3-38.6&#10;&#9;&#9;&#9;&#9;&#9;c63.3-49.3,131.2-92.2,199.5-134.2c8.5-5.2,16.8-10.7,25.2-16.1c10-6.4,1-22-9.3-16c-35,20.2-69.3,41.6-103.4,63.4&#10;&#9;&#9;&#9;&#9;&#9;c-34.3,21.9-68.4,44.1-101.5,67.8c-33.1,23.7-65.1,49-97,74.3c-31.5,25-60.5,52.7-90,80c-14.6,13.6-29.6,26.8-45.4,39.1&#10;&#9;&#9;&#9;&#9;&#9;c2.9-2.3,0.5-0.4-0.1,0.1c-0.9,0.7-1.9,1.4-2.8,2.1c-1.9,1.4-3.8,2.8-5.7,4.2c-4.2,3-8.5,5.9-12.8,8.7&#10;&#9;&#9;&#9;&#9;&#9;c-7.9,5.1-16,9.5-24.5,13.6c-33.3,16.1-66.2,33-99.5,49c-33.2,15.9-66.6,31.7-98,51.2c-32.3,20-62.1,44.2-87.3,72.7&#10;&#9;&#9;&#9;&#9;&#9;c-25.2,28.4-45.6,60.2-63.5,93.6c-17.8,33.3-33.3,68.6-43.9,104.9c-2.5,8.7-4.7,17.2-6.4,26&#10;&#9;&#9;&#9;&#9;&#9;C1598.9,1810.9,1606.6,1817.3,1611.1,1811.6L1611.1,1811.6z" style="fill: rgb(160, 184, 176);"/>
			</g>
		</g>
		<g>
			<g>
				<path class="st5" d="M1641.3,1663.9c2.7-14.5,8.3-28.1,11.9-42.4c3.7-14.4,7.2-28.8,11.1-43.1c7.8-28.2,16.6-56,23.9-84.3&#10;&#9;&#9;&#9;&#9;&#9;c15.7-60.9,20.1-119.8,17.6-183.4c-2.5-61.8-12.5-123.1-23.2-183.9c-10.6-60.2-21.4-120.3-35.6-179.7&#10;&#9;&#9;&#9;&#9;&#9;c-7.9-33.1-18.1-65.6-26.8-98.4c-8.7-33-18.7-65.5-30.2-97.5c-2.1-5.7-10.9-3.5-9.3,2.6c8.1,29.1,15.4,58.4,22.1,87.8&#10;&#9;&#9;&#9;&#9;&#9;c6.8,29.6,11.7,59.4,15.8,89.5c8.1,60.1,17.9,120,27.6,179.8c9.7,60.6,17.5,117,22,178.7c2.2,30.2,3.1,60.4,1.9,90.7&#10;&#9;&#9;&#9;&#9;&#9;c-1.1,29.9-3.8,59.3-8.8,87.3c-5.8,32.5-14.3,64.3-21.7,96.4c-3.7,16.2-7.5,32.5-9.5,49c-1,8-1.4,15.7-1.1,23.8&#10;&#9;&#9;&#9;&#9;&#9;c0.3,8.6,0.9,17.2,1.3,25.8C1630.5,1668.4,1640.1,1670.4,1641.3,1663.9L1641.3,1663.9z" style="fill: rgb(160, 184, 176);"/>
			</g>
		</g>
		<g>
			<g>
				<path class="st5" d="M1685.8,1212.3c5.7-25.5,2.3-51.5-6.1-76.1c-4.5-13.2-9.8-25.4-16.8-37.5c-6.7-11.4-14.3-22.3-22.4-32.8&#10;&#9;&#9;&#9;&#9;&#9;c-17.2-22.4-37.5-42.3-56.5-63.1c-18.1-19.8-33.4-37.9-47.5-59.2c-13-19.7-24.8-40.2-35.1-61.5c-10-20.6-18-42.7-25.7-64.8&#10;&#9;&#9;&#9;&#9;&#9;c-7.9-22.8-15.2-45.8-22.4-68.8c-7.4-23.3-16.6-45.8-26.7-68c-11.1-24.4-21-49.4-33-73.5c-12-24-25.2-47.4-41-69.2&#10;&#9;&#9;&#9;&#9;&#9;c-2.2-3-7.2-0.2-5.1,3c27.4,39,47.6,83.2,60.7,128.9c6.5,22.6,10,46.1,16.6,68.7c6.7,23.2,14,46.2,21.4,69.2&#10;&#9;&#9;&#9;&#9;&#9;c7.2,22.5,15,44.9,23.9,66.8c8.8,21.6,18.3,44.5,29.7,65.8c12,22.4,27,43.5,43.8,62.6c17.9,20.3,37.4,39,56.1,58.6&#10;&#9;&#9;&#9;&#9;&#9;c39.7,41.7,79.9,89.6,81,150.2C1680.5,1214.6,1685.1,1215.4,1685.8,1212.3L1685.8,1212.3z" style="fill: rgb(160, 184, 176);"/>
			</g>
		</g>
		<g>
			<g>
				<path class="st5" d="M1753.6,1576.6c41.2-7.5,80.8-21.9,121.7-30.4c10.2-2.1,20.4-4,30.6-5.7c5-0.8,9.9-1.6,14.9-2.4&#10;&#9;&#9;&#9;&#9;&#9;c2.5-0.4,5-0.8,7.5-1.1c1.2-0.2,2.5-0.4,3.7-0.5c-2.5,0.3,0.8-0.1,1.7-0.2c20.7-2.6,41.5-3.7,62.4-4.1c10.4-0.2,20.7,0.2,31-0.2&#10;&#9;&#9;&#9;&#9;&#9;c11.1-0.5,22.1-0.9,33.2-1.6c22.2-1.4,44.1-3.9,65.7-9.1c20.7-5.1,40.8-12,61.3-18.1c20.5-6.1,41.5-10.6,62.5-14.2&#10;&#9;&#9;&#9;&#9;&#9;c48.2-8.4,96.9-12.3,145.8-13.1c6.9-0.1,7-10.8,0-10.8c-43.5,0.4-86.9,3.6-130.2,8.2c-21.7,2.3-43.3,5-64.9,8.1&#10;&#9;&#9;&#9;&#9;&#9;c-21.6,3.1-43.3,5.6-64.9,9.1c-20.4,3.3-40.8,5.1-61.6,4.3c-22.2-0.9-44.2-5.1-66.3-4.7c-42.8,0.9-85.2,10.2-125.5,24.1&#10;&#9;&#9;&#9;&#9;&#9;c-44.6,15.4-90.3,32.5-130.9,56.8C1748.2,1572.9,1750.3,1577.2,1753.6,1576.6L1753.6,1576.6z" style="fill: rgb(160, 184, 176);"/>
			</g>
		</g>
		<g>
			<g>
				<path class="st5" d="M1759,1276.6c15-19.1,30.9-37.3,48.8-53.8c17.4-16.1,36.4-30.4,55.3-44.7c20.3-15.3,40.9-30.2,61.2-45.5&#10;&#9;&#9;&#9;&#9;&#9;c22.4-16.9,45.2-33.8,66.5-52c41.7-35.8,83.5-73,118.2-115.7c17.6-21.6,33.3-43.4,50.7-65.1c8.6-10.7,17.2-21.4,26.1-31.8&#10;&#9;&#9;&#9;&#9;&#9;c8.7-10.2,18.7-19.5,28.5-28.6c44.3-40.9,96.3-72.6,147.3-104.3c4.6-2.9,0.5-10-4.3-7.3c-46.9,27.1-93.6,54.5-136.9,87.2&#10;&#9;&#9;&#9;&#9;&#9;c-21.6,16.3-41.9,33.9-62.1,51.8c-10.7,9.5-21,19.4-31.2,29.3c-9.9,9.5-20.1,18.5-30.3,27.6c-41.3,36.6-79,76.9-119.1,114.7&#10;&#9;&#9;&#9;&#9;&#9;c-20.3,19.1-40.1,38.6-60.6,57.4c-19.4,17.8-39.3,35-59.4,52.1c-21,17.8-41.5,36.1-60,56.4c-18.4,20.2-35.3,42.7-44.7,68.5&#10;&#9;&#9;&#9;&#9;&#9;C1751.8,1276.3,1756.8,1279.4,1759,1276.6L1759,1276.6z" style="fill: rgb(160, 184, 176);"/>
			</g>
		</g>
		<g>
			<g>
				<path class="st5" d="M2023.6,792.6c7-17.4,12.5-35.7,17.3-53.8c4.9-18.6,8-37.3,8.2-56.6c0.5-39.2-8.4-77.8-15.8-116&#10;&#9;&#9;&#9;&#9;&#9;c-3.7-19-7.4-37.9-11.6-56.8c-2.2-9.7-4-19.6-6.5-29.2c-2.5-9.3-6.1-18.3-9.1-27.5c-12.2-37-21.9-74.6-32.7-111.9&#10;&#9;&#9;&#9;&#9;&#9;c-6.1-21.1-12.4-42.1-18.7-63.1c-6.3-21-11.2-42.4-16.6-63.7c-0.9-3.5-6.1-2-5.4,1.5c3.7,18.9,8,37.9,10.9,56.9&#10;&#9;&#9;&#9;&#9;&#9;c2.9,19.2,5.8,38.4,8.8,57.5c6,38.3,13,76.4,18.4,114.8c1.2,8.6,2.1,16.4,3.2,26c1.3,10.7,2.8,21.1,5.1,31.6&#10;&#9;&#9;&#9;&#9;&#9;c4.2,18.8,8.4,37.6,13.1,56.3c9.3,36.4,19.7,72.8,25.1,110.1c1.2,8.4,2.1,20,2.2,29.7c0.1,10.2,0.1,20.3-0.5,30.4&#10;&#9;&#9;&#9;&#9;&#9;c-1.3,20.8-5.4,41.2-7.5,61.8c-0.3,3.1,2.6,5.7,5.4,6.1C2020.1,797.5,2022.4,795.5,2023.6,792.6L2023.6,792.6z" style="fill: rgb(160, 184, 176);"/>
			</g>
		</g>
		<g>
			<g>
				<path class="st5" d="M1572.2,1274.8c0.2,0,0.2-0.2,0-0.2C1572,1274.5,1572,1274.8,1572.2,1274.8L1572.2,1274.8z" style="fill: rgb(160, 184, 176);"/>
			</g>
		</g>
		<g>
			<g>
				<path class="st5" d="M1992.8,1065.9c11.2-0.6,21.8-3.4,32.6-6.6c10.9-3.2,21.7-6.4,32.6-9.5c21.1-6.2,42.2-12.2,63.3-18.2&#10;&#9;&#9;&#9;&#9;&#9;c21.8-6.2,43.3-13.1,65-19.7c20.9-6.4,42.1-12.3,62.9-19.2c20.7-6.8,41.3-14.1,61-23.5c9.1-4.4,17.9-9.4,26.5-14.8&#10;&#9;&#9;&#9;&#9;&#9;c9.5-6,18.3-13.6,27.1-20.5c6.6-5.2,13.9-10.7,21.8-16.4c8.2-5.9,16.4-11.8,24.9-17.1c16.8-10.6,34-20.4,51.5-29.6&#10;&#9;&#9;&#9;&#9;&#9;c9.7-5,19.4-10,29.4-14.4c10.3-4.6,20.9-8.2,31.2-12.6c20.6-8.8,41.7-16,62.6-23.8c6.2-2.3,3.7-10.6-2.7-9.7&#10;&#9;&#9;&#9;&#9;&#9;c-20,2.8-39.4,8-58.9,13.3c-18.8,5.1-36.9,12.7-54.9,19.9c-37.2,14.8-73.3,32.7-107.9,52.8c-17.9,10.4-35.4,21.7-53.2,32.4&#10;&#9;&#9;&#9;&#9;&#9;c-8.7,5.2-17.7,9.7-27,13.8c-1.1,0.5-2.2,1-3.4,1.5c-2.8,1.2,2.2-0.9-0.7,0.3c-2.3,0.9-4.5,1.8-6.8,2.7&#10;&#9;&#9;&#9;&#9;&#9;c-5.1,2-10.3,3.9-15.5,5.8c-41.6,15-82.9,31.1-124.2,46.9c-23.4,8.9-46.7,18.5-70,27.7c-11.8,4.6-23.7,9.3-35.5,13.9&#10;&#9;&#9;&#9;&#9;&#9;c-11.8,4.6-23.6,9-34,16.2C1987,1059.7,1987.9,1066.1,1992.8,1065.9L1992.8,1065.9z" style="fill: rgb(160, 184, 176);"/>
			</g>
		</g>
		<g>
			<g>
				<path class="st5" d="M2050.5,777.2c15.1-20.7,28-43.2,42.2-64.6c13.8-20.7,28.1-41,43.9-60.2c32.1-38.9,67.9-72.8,113-95.5&#10;&#9;&#9;&#9;&#9;&#9;c23.1-11.6,47.2-19.8,72.8-27.9c26.1-8.3,52.1-17.1,77.4-27.7c27-11.3,51.4-28.2,74.4-46c23.8-18.4,46.4-38.5,69.5-57.8&#10;&#9;&#9;&#9;&#9;&#9;c26.9-22.4,53.8-44.8,80.7-67.3c13.7-11.4,27.7-22.5,41.1-34.3c13.4-11.7,26.8-23.5,40.2-35.2c6.9-6-2.4-18.5-9.9-12.9&#10;&#9;&#9;&#9;&#9;&#9;c-25.5,19.2-51.1,38.2-76,58.2c-24.8,20-49.8,39.5-74.8,59.2c-24.1,19.1-48.1,38.5-72.8,56.8c-12,8.9-24.4,17.5-37.3,25.1&#10;&#9;&#9;&#9;&#9;&#9;c-5.5,3.2-11.4,5.9-17.2,8.4c0,0-5.1,2.2-2.3,1c-2.4,1-4.8,2-7.2,3c-0.1,0-5.3,2.2-2.2,0.9c-1.8,0.8-3.7,1.5-5.5,2.2&#10;&#9;&#9;&#9;&#9;&#9;c-14.5,5.8-22.2,9.5-37.2,15.2c-12.9,4.9-25.9,9.2-38.8,14c-26.4,9.8-52.6,20.6-77.7,33.4c-46.4,23.7-85.4,59-116.9,100.2&#10;&#9;&#9;&#9;&#9;&#9;c-17.4,22.8-32.6,47.3-46.6,72.2c-14,24.9-28,50.4-38.7,76.9C2043.2,778.3,2048.5,779.8,2050.5,777.2L2050.5,777.2z" style="fill: rgb(160, 184, 176);"/>
			</g>
		</g>
		<g>
			<g>
				<path class="st5" d="M2219.8,569.7c27-9.7,53.4-20.8,81.2-28c27.2-7.1,54.5-8.2,82.5-7.7c29.5,0.4,59.3,1,88.1-6.9&#10;&#9;&#9;&#9;&#9;&#9;c14.5-3.9,28-10.9,41.5-17.4c12.6-6.1,26.5-8.8,40.2-10.9c4.3-0.7,8.7-1.1,12.9-2.3c3.6-1,7.1-2.7,10.8-3.6&#10;&#9;&#9;&#9;&#9;&#9;c8.3-2,17.3-1.9,25.8-2.3c17.6-0.9,35.2-1.5,52.9-1.8c5.7-0.1,5.7-8.9,0-8.9c-15.7,0-31.3,0.3-47,0.7&#10;&#9;&#9;&#9;&#9;&#9;c-7.2,0.2-14.4,0.7-21.5,0.7c-3.9,0-8.1,0.2-12-0.4c-4-0.6-8-1.8-12-2.3c-7.2-0.8-14.8-0.1-22,0.4c-7.9,0.5-15.9,1.5-23.7,2.9&#10;&#9;&#9;&#9;&#9;&#9;c-6.8,1.3-13.6,2.6-20.2,4.3c-7.9,2-15.4,5.1-23.2,7.5c-13.1,4.1-26.7,7.3-38.9,8.5c-14.7,1.4-29.5,1.8-44.2,2.5&#10;&#9;&#9;&#9;&#9;&#9;c-29.7,1.4-58.4,4.7-86.5,14.8c-30.6,11.1-59.6,27-86.9,44.6C2214.7,565.9,2216.4,570.9,2219.8,569.7L2219.8,569.7z" style="fill: rgb(160, 184, 176);"/>
			</g>
		</g>
		<g>
			<g>
				<path class="st5" d="M2025.6,726.3c1-5.9,2.8-11.9,3.3-17.8c0.5-6.2,1-12.5,1-18.7c-0.2-12.4-0.9-24.8-2.3-37.1&#10;&#9;&#9;&#9;&#9;&#9;c-2.8-24.7-9.3-49.2-17.6-72.6c-8.4-23.8-18.8-47-32.4-68.4c-14.4-22.7-31.3-43.7-49.5-63.4c-8.9-9.7-18-19.3-26.7-29.1&#10;&#9;&#9;&#9;&#9;&#9;c-4.3-4.8-8.5-9.7-12.6-14.6c-2.2-2.6-4.3-5.2-6.5-7.8c-0.8-1-1.5-1.9-2.3-2.9c-0.8-1-1.5-1.9-2.3-2.9c-1.3-1.6-1.5-1.9-0.8-1&#10;&#9;&#9;&#9;&#9;&#9;c-16.2-21.2-30.1-43.8-45-65.9c-30-44.5-60.8-88.4-91.4-132.5c-17.1-24.7-34.7-49-53-72.9c-18.3-24-39.2-46.4-59.5-68.7&#10;&#9;&#9;&#9;&#9;&#9;c-3.3-3.7-10.1,1.3-7,5.4c16.1,21.1,31.7,42.4,47,64.1c15.3,21.8,31.8,42.7,47.2,64.5c15.4,21.7,29.9,44.1,44,66.6&#10;&#9;&#9;&#9;&#9;&#9;c14,22.4,26.3,45.5,38.5,68.9c12.1,23.4,24.4,46.5,38.3,68.8c14.5,23.3,30.8,44.9,48.7,65.7c8.6,10,17.3,19.9,25.9,29.9&#10;&#9;&#9;&#9;&#9;&#9;c4.2,4.9,8.5,9.6,12.7,14.5c2,2.3,3.9,4.7,5.9,7.1c1,1.2,1.9,2.4,2.9,3.6c0.5,0.7,1.1,1.4,1.6,2.1c-1.1-1.4-1-1.3,0.3,0.4&#10;&#9;&#9;&#9;&#9;&#9;c14.6,19.5,27.9,40.3,39.2,61.9c12.6,23.9,21.7,47.7,29,74.1c3.5,12.8,7.2,25.6,9.8,38.7c1.3,6.6,2.6,13.2,3.9,19.8&#10;&#9;&#9;&#9;&#9;&#9;c1.3,6.8,3.3,13.4,4.6,20.2C2020.9,728.9,2025.1,728.9,2025.6,726.3L2025.6,726.3z" style="fill: rgb(160, 184, 176);"/>
			</g>
		</g>
		<g>
			<g>
				<path class="st5" d="M1844.3,1141c6.6-10.8,10-23.1,14-35.1c3.9-11.9,7.7-23.9,10.6-36.1c6-24.9,10.5-50.1,12.9-75.6&#10;&#9;&#9;&#9;&#9;&#9;c2.3-25.5,1.9-50.9-1.6-76.2c-3.4-24.6-11.3-47.8-20.5-70.8c-2.4-6.1-5-12.1-7.7-18.1c-1.3-2.8-2.5-5.6-3.7-8.4&#10;&#9;&#9;&#9;&#9;&#9;c-0.6-1.4-1.2-2.8-1.8-4.2c-0.4-0.8-0.7-1.7-1.1-2.5c1,2.5,0.6,1.4-1.4-3.4c-2.6-6.2-3.4-7.7-5.4-12.7&#10;&#9;&#9;&#9;&#9;&#9;c-2.6-6.4-4.9-12.9-7.1-19.5c-7.9-23.5-13.5-47.7-20.3-71.5c-6.9-24.2-15.5-47.6-26.6-70.2c-11-22.3-24.1-43.5-37.5-64.4&#10;&#9;&#9;&#9;&#9;&#9;c-16.1-25.1-30.8-50.9-45.9-76.6c-15.2-25.8-30.5-51.7-45.7-77.5c-3.3-5.6-11.9-0.6-8.7,5.1c25.7,46,51.3,92,77,138&#10;&#9;&#9;&#9;&#9;&#9;c11.9,21.4,22.5,43.8,32.8,66.1c10.2,22.1,18.4,44.8,24.2,68.5c5.9,24.1,10.1,48.6,14.8,73c4.7,24,10.9,47.1,20,69.8&#10;&#9;&#9;&#9;&#9;&#9;c2.4,6.1,4.8,12.2,7.5,18.2c1.2,2.8,2.5,5.6,3.7,8.4c0.6,1.4,1.2,2.8,1.8,4.2c0.4,0.8,0.7,1.7,1.1,2.5c-0.6-1.3-0.6-1.4-0.1-0.2&#10;&#9;&#9;&#9;&#9;&#9;c4.5,11.2,8.8,22.4,12,34c3.3,11.8,5.9,23.8,7.6,35.9c0.5,3.5,0.2,1.8,0.1,1c0.2,1.5,0.4,3,0.5,4.6c0.3,2.7,0.6,5.5,0.8,8.3&#10;&#9;&#9;&#9;&#9;&#9;c0.5,6.4,0.8,12.9,1,19.3c0.6,26.7-2.1,53.4-6.7,79.7c-2.4,13.6-5,27.3-7.7,40.8c-2.8,13.9-7,27.7-7.4,41.9&#10;&#9;&#9;&#9;&#9;&#9;C1829.6,1144.9,1840.4,1147.3,1844.3,1141L1844.3,1141z" style="fill: rgb(160, 184, 176);"/>
			</g>
		</g>
		<g>
			<g>
				<path class="st5" d="M2165.1,1306.1c21.8-4.5,42.1-13.6,62.9-21.5c19.9-7.5,40.5-14.9,61.6-17.9c20.8-2.9,42-3,62.9-5&#10;&#9;&#9;&#9;&#9;&#9;c22.5-2.1,43-7.7,63.7-16.5c37.6-16.1,70.9-39.7,104.5-62.6c17.5-12,35.5-23.7,54.9-32.5c9.5-4.3,19.3-9,29.2-12.3&#10;&#9;&#9;&#9;&#9;&#9;c10.8-3.5,21.5-7,32.4-10.4c49-15.4,98.5-29.5,147.6-44.7c5.3-1.7,3.1-10-2.3-8.4c-44.2,13.2-88.2,26.9-132.2,40.5&#10;&#9;&#9;&#9;&#9;&#9;c-21.2,6.6-42.5,12.6-64,17.9c-20.6,5.1-40.4,14-58.7,24.7c-18.1,10.5-35.4,22.2-53.8,32.3c-17.7,9.7-35.9,18.8-54.9,25.7&#10;&#9;&#9;&#9;&#9;&#9;c-19.2,6.9-39,11.3-59.1,14.7c-20.2,3.4-43.2,3.9-64.5,7.5c-24.5,4.2-47.4,13.8-69.3,25.3c-21.8,11.5-44.4,22.7-63.8,37.9&#10;&#9;&#9;&#9;&#9;&#9;C2159.3,1303,2162.3,1306.7,2165.1,1306.1L2165.1,1306.1z" style="fill: rgb(160, 184, 176);"/>
			</g>
		</g>
		<g>
			<g>
				<path class="st5" d="M2308.5,512.8c24.3-15,48.2-31.1,71.1-48.2c23.3-17.4,44.2-37.3,61.8-60.5c9-11.9,16.5-24.6,23.3-37.8&#10;&#9;&#9;&#9;&#9;&#9;c3.8-7.3,6.9-14.9,9.9-22.6c2.7-6.9,4.2-14.1,6.4-21.2c4.5-14.8,10.2-29.4,15.6-43.9c5.8-15.6,11-31.3,16.4-47&#10;&#9;&#9;&#9;&#9;&#9;c6.2-17.9,12.4-35.7,19.3-53.4c6.9-17.6,13.8-35.3,20.4-53c2-5.3-6.3-7.3-8.4-2.3c-12.7,30.6-23.9,61.9-37.7,92&#10;&#9;&#9;&#9;&#9;&#9;c-13.4,29.3-25.5,59.2-38.7,88.5c-5.9,13-13.2,25.1-19.7,37.7c-6.8,13.2-13.2,26.5-20.7,39.3c-14.1,24-31.8,44.4-51.7,63.9&#10;&#9;&#9;&#9;&#9;&#9;c-10.9,10.7-22.2,21.1-34.3,30.3c-12.7,9.7-25.6,19.1-38.3,28.8C2297.8,507.6,2302.4,516.6,2308.5,512.8L2308.5,512.8z" style="fill: rgb(160, 184, 176);"/>
			</g>
		</g>
		<g>
			<g>
				<path class="st5" d="M2246.1,997.6c16.8-3.9,32.9-10.3,49.8-14.1c16.4-3.7,33.2-5.9,49.9-7.6c35.6-3.7,71.5-6,106.5-13.9&#10;&#9;&#9;&#9;&#9;&#9;c33.6-7.6,65.8-20.2,99.6-26.9c16-3.2,32.2-5.5,48.1-9.1c15.9-3.6,31.8-6.6,47.8-9.6c36.1-6.7,72.4-12,106.8-25.7&#10;&#9;&#9;&#9;&#9;&#9;c3-1.2,1.7-6.2-1.4-5c-30.6,12-63.5,17.7-96.3,18.9c-33.2,1.2-66.2-2.9-99.3,0c-17.2,1.5-34.6,3.7-51.4,7.9&#10;&#9;&#9;&#9;&#9;&#9;c-17.1,4.2-33.9,9.5-50.9,13.7c-34,8.4-69,12.1-103,20.7c-18.9,4.8-37.6,10.4-56,17c-18.5,6.7-38.2,11.8-55.5,21.2&#10;&#9;&#9;&#9;&#9;&#9;C2233.9,989,2238.8,999.3,2246.1,997.6L2246.1,997.6z" style="fill: rgb(160, 184, 176);"/>
			</g>
		</g>
		<g>
			<g>
				<path class="st5" d="M2170.9,444.5c5.1-15,4.7-31.1,2.9-46.7c-1.8-15.7-5-31.2-10.2-46.1c-5.4-15.7-12-31.3-19-46.4&#10;&#9;&#9;&#9;&#9;&#9;c-6.6-14.4-11.6-28.7-14.8-44.2c-3.2-15.6-5-31.4-7.3-47.1c-2.4-16.2-5.2-32.3-8.5-48.3c-3.3-16.2-7.6-32.2-14.4-47.3&#10;&#9;&#9;&#9;&#9;&#9;c-3.3-7.2-7.2-14.3-9.8-21.8c-2.7-7.6-5.5-15.1-8.3-22.6c-12.8-34.3-26.3-68.4-43-101c-3.1-6.1-11.8-0.8-9.1,5.3&#10;&#9;&#9;&#9;&#9;&#9;c13,29.5,24.9,59.3,34.6,90c4.7,14.9,9.5,30.2,11.2,45.7c1.7,16.1,3.7,32.1,7.2,47.9c7,31.2,11.3,62.8,17,94.2&#10;&#9;&#9;&#9;&#9;&#9;c2.9,15.9,6.9,31.5,13.1,46.5c6.4,15.3,15.5,28.6,23.9,42.8c8.7,14.7,14.6,31.1,18.6,47.7c4.1,17,4.9,34.4,8.4,51.4&#10;&#9;&#9;&#9;&#9;&#9;C2164.3,448.5,2169.8,447.9,2170.9,444.5L2170.9,444.5z" style="fill: rgb(160, 184, 176);"/>
			</g>
		</g>
		<g>
			<g>
				<path class="st5" d="M1856.6,885.4c-2.3-9.8-7-18.9-11.1-28.2c-3.9-8.7-7.9-17.4-11.5-26.2c-7.6-18.5-17.2-36.4-26.6-54.1&#10;&#9;&#9;&#9;&#9;&#9;c-18.8-35.2-40-69.1-65.9-99.7c-12.4-14.7-25.8-28.8-40.5-41.4c-16.5-14.2-34.7-25.9-52.8-37.9c-17.4-11.4-33.6-25.3-47.5-40.7&#10;&#9;&#9;&#9;&#9;&#9;c-7.1-7.8-12.9-17.1-18.9-25.8c-6.3-9.2-12.5-18.4-18.7-27.7c-29.6-44.7-57.9-90.1-86.7-135.3c-4.6-7.2-16.2-0.5-11.5,6.7&#10;&#9;&#9;&#9;&#9;&#9;c25.6,40.1,51.4,80.1,76.6,120.4c11.9,19.1,23.2,38.5,35.5,57.3c11.8,18.1,22.9,37.4,38.2,52.8c29.4,29.5,62.1,50.7,91.3,81&#10;&#9;&#9;&#9;&#9;&#9;c6.8,7,13.3,14.3,19.6,21.8c3.1,3.7,6.2,7.5,9.3,11.4c0.7,0.9,1.3,1.7,2,2.6c-1-1.2-2.5-3.1,2,2.6c0.7,0.9,1.4,1.7,2,2.5&#10;&#9;&#9;&#9;&#9;&#9;c-0.1-0.1,2.9,3.7,1.6,2c11.9,15.4,22.9,31.6,33.3,48c11.8,18.7,22.5,38,33.6,57.1c5.5,9.6,11.2,19,16.5,28.7&#10;&#9;&#9;&#9;&#9;&#9;c5.5,10,10.4,20.2,17.5,29.2C1848.9,899.2,1858.2,892.2,1856.6,885.4L1856.6,885.4z" style="fill: rgb(160, 184, 176);"/>
			</g>
		</g>
		<g>
			<g>
				<path class="st5" d="M1632.9,1718.1c-2-12.2-3.9-24.5-7.2-36.5c-3.3-11.9-6.9-23.6-10.9-35.3c-8-23.2-17.9-45.7-28.8-67.7&#10;&#9;&#9;&#9;&#9;&#9;c-20.1-40.5-44.9-78.1-71.4-114.8c-7.3-10.2-15-20-22.7-29.9c-3.5-4.5-7-9-10.5-13.5c0.5,0.6,1.9,2.4-0.3-0.4&#10;&#9;&#9;&#9;&#9;&#9;c-0.9-1.1-1.8-2.3-2.6-3.4c-1.9-2.5-3.9-5-5.7-7.5c-13.5-18.4-26.3-37.4-38.5-56.7c-12.2-19.2-24.4-38.5-35.9-58.1&#10;&#9;&#9;&#9;&#9;&#9;c-11-18.8-20.7-38.2-30.3-57.8c-21.4-43.6-40.6-89.3-74.8-124.9c-5.2-5.4-12.9,2.6-8.1,8.1c28.2,32.3,46.9,72.5,60.7,112.7&#10;&#9;&#9;&#9;&#9;&#9;c14.5,42.4,28.7,84.8,50.9,124c10.9,19.3,23.4,37.8,35.9,56.2c12.7,18.6,25,37.5,37.5,56.3c24.9,37.4,52.6,72.8,77.6,110.1&#10;&#9;&#9;&#9;&#9;&#9;c14.6,21.7,28,44.3,39.9,67.6c6.1,12,12,24.2,17.4,36.5c5.5,12.6,11.3,25.1,16.5,37.9&#10;&#9;&#9;&#9;&#9;&#9;C1624.4,1728.3,1634.1,1725.7,1632.9,1718.1L1632.9,1718.1z" style="fill: rgb(160, 184, 176);"/>
			</g>
		</g>
		<g>
			<g>
				<path class="st5" d="M1863.4,403.4c-3.2-4.1-6-8.4-8.8-12.8c-3.3-5-7.7-9.1-11.8-13.4c-7.6-8-15.4-15.8-23.3-23.6&#10;&#9;&#9;&#9;&#9;&#9;c-15.3-15.1-30.1-30.6-46.2-44.9c-16.2-14.4-32.8-28.6-50-41.9c-18.1-14-36.5-27-55.9-39.1c-38.8-24.1-80.4-42.8-119.1-67&#10;&#9;&#9;&#9;&#9;&#9;c-35.9-22.5-68.2-49.7-98.6-79.1c-17.2-16.7-33.8-34-49.9-51.8c-7.9-8.7-16.3-16.7-24.3-25.3c-8.3-9-16.5-18.1-24.6-27.3&#10;&#9;&#9;&#9;&#9;&#9;c-2.9-3.3-8.6-3-11.6,0c-3.5,3.5-2.7,8.1,0,11.6c6.6,8.6,13.3,17.1,20.1,25.6c6.8,8.5,13,17.5,20.2,25.6&#10;&#9;&#9;&#9;&#9;&#9;c14,15.7,28.3,31.2,43.1,46.1c30.3,30.5,62.9,58.5,97.4,84.2c18.4,13.7,37.8,25.6,56.8,38.3c18.9,12.7,37.5,25.6,56.3,38.4&#10;&#9;&#9;&#9;&#9;&#9;c18,12.4,35.4,25.5,53.4,37.9c17.9,12.3,35.6,25,53,38c18.8,14,37.8,28.1,56.5,43.7c9.2,7.6,18.2,15.6,27,23.6&#10;&#9;&#9;&#9;&#9;&#9;c4.4,4,8.7,8.3,13.2,12.1c5.1,4.3,11.2,7.2,16.4,11.5C1860.4,419.9,1869.3,410.8,1863.4,403.4L1863.4,403.4z" style="fill: rgb(160, 184, 176);"/>
			</g>
		</g>
		<g>
			<g>
				<path class="st5" d="M2252.4,975.3c9.3-2.8,18.3-5.5,27.1-9.7c8.5-4.1,16.8-8.6,24.8-13.5c16.2-9.9,31.4-21.2,46.2-33&#10;&#9;&#9;&#9;&#9;&#9;c30-23.9,56.8-51.4,85.4-76.8c7.2-6.4,14.5-12.6,22-18.6c0.8-0.6,1.6-1.3,2.4-1.9c0.3-0.2,2.3-1.8,0.5-0.4&#10;&#9;&#9;&#9;&#9;&#9;c2.5-1.9,5-3.9,7.4-5.8c0.3-0.3,2.9-2.2,1.3-1.1c1-0.7,1.9-1.5,2.9-2.2c2.4-1.8,4.8-3.6,7.3-5.3c17.8-12.8,36-24.8,54.8-36&#10;&#9;&#9;&#9;&#9;&#9;c18.8-11.1,37.7-22.2,56.9-32.7c18-9.9,35.9-20.2,53-31.7c18.5-12.4,36.1-26.5,52.2-41.8c15.9-15.1,31.2-32.6,41.2-52.3&#10;&#9;&#9;&#9;&#9;&#9;c3.2-6.2-5.5-11.2-9.3-5.4c-10.9,16.3-22.4,31.5-36.6,45.1c-14.1,13.6-29.7,25.2-46.3,35.6c-17.1,10.8-34.8,20.6-52.9,29.8&#10;&#9;&#9;&#9;&#9;&#9;c-19.4,9.8-39.2,18.3-58.9,27.4c-19.6,9-39.1,18.4-57.9,29c-18.1,10.1-34.7,22.5-50.5,35.9c-28.8,24.4-55.1,51.7-81.5,78.6&#10;&#9;&#9;&#9;&#9;&#9;c-14.4,14.6-29,29-44.9,41.9c-7.6,6.2-15.6,12-23.8,17.4c-8.9,5.8-17.8,12.1-27.2,17.1C2242.5,968,2246.3,977.1,2252.4,975.3&#10;&#9;&#9;&#9;&#9;&#9;L2252.4,975.3z" style="fill: rgb(160, 184, 176);"/>
			</g>
		</g>
	</g>
	<path class="st2" d="M1331.7,330.2c0,36.3-38.1,65.6-38.1,65.6s-38.1-29.4-38.1-65.6s38.1-65.6,38.1-65.6S1331.7,294,1331.7,330.2z&#10;&#9;&#9;" style="clip-path: url('#SVGID_2_'); fill: rgb(0, 108, 109);"/>
	<path class="st6" d="M1540.2,336.1c-19,14-49.2,5.4-49.2,5.4s0.7-31.4,19.7-45.4c19-14,49.2-5.4,49.2-5.4&#10;&#9;&#9;S1559.3,322.1,1540.2,336.1z" style="clip-path: url('#SVGID_2_'); fill: rgb(255, 255, 255);"/>
	<path class="st6" d="M2410.3,672.1c-19,14-49.2,5.4-49.2,5.4s0.7-31.4,19.7-45.4c19-14,49.2-5.4,49.2-5.4S2429.4,658,2410.3,672.1z&#10;&#9;&#9;" style="clip-path: url('#SVGID_2_'); fill: rgb(255, 255, 255);"/>
	<path class="st6" d="M2687.2,844.9c-19,14-49.2,5.4-49.2,5.4s0.7-31.4,19.7-45.4c19-14,49.2-5.4,49.2-5.4&#10;&#9;&#9;S2706.3,830.9,2687.2,844.9z" style="clip-path: url('#SVGID_2_'); fill: rgb(255, 255, 255);"/>
	<path class="st6" d="M2808.1,741c-19,14-49.2,5.4-49.2,5.4s0.7-31.4,19.7-45.4c19-14,49.2-5.4,49.2-5.4S2827.1,727,2808.1,741z" style="clip-path: url('#SVGID_2_'); fill: rgb(255, 255, 255);"/>
	<path class="st6" d="M1013.6,835c-19,14-49.2,5.4-49.2,5.4S965,809,984.1,795c19-14,49.2-5.4,49.2-5.4S1032.6,821,1013.6,835z" style="clip-path: url('#SVGID_2_'); fill: rgb(255, 255, 255);"/>
	<path class="st6" d="M1888.9,775.3c-19,14-49.2,5.4-49.2,5.4s0.7-31.4,19.7-45.4c19-14,49.2-5.4,49.2-5.4&#10;&#9;&#9;S1907.9,761.3,1888.9,775.3z" style="clip-path: url('#SVGID_2_'); fill: rgb(255, 255, 255);"/>
	<path class="st6" d="M2418.1,378.3c-19,14-49.2,5.4-49.2,5.4s0.7-31.4,19.7-45.4c19-14,49.2-5.4,49.2-5.4&#10;&#9;&#9;S2437.1,364.3,2418.1,378.3z" style="clip-path: url('#SVGID_2_'); fill: rgb(255, 255, 255);"/>
	<path class="st6" d="M2048.7,262.2c-19,14-49.2,5.4-49.2,5.4s0.7-31.4,19.7-45.4c19-14,49.2-5.4,49.2-5.4&#10;&#9;&#9;S2067.7,248.2,2048.7,262.2z" style="clip-path: url('#SVGID_2_'); fill: rgb(255, 255, 255);"/>
	<path class="st6" d="M2088.9,1197.8c-19,14-49.2,5.4-49.2,5.4s0.7-31.4,19.7-45.4c19-14,49.2-5.4,49.2-5.4&#10;&#9;&#9;S2108,1183.7,2088.9,1197.8z" style="clip-path: url('#SVGID_2_'); fill: rgb(255, 255, 255);"/>
	<path class="st6" d="M2392.6,1792.4c-19,14-49.2,5.4-49.2,5.4s0.7-31.4,19.7-45.4c19-14,49.2-5.4,49.2-5.4&#10;&#9;&#9;S2411.6,1778.4,2392.6,1792.4z" style="clip-path: url('#SVGID_2_'); fill: rgb(255, 255, 255);"/>
	<path class="st6" d="M1817.6,1764.4c-19,14-49.2,5.4-49.2,5.4s0.7-31.4,19.7-45.4s49.2-5.4,49.2-5.4S1836.7,1750.4,1817.6,1764.4z" style="clip-path: url('#SVGID_2_'); fill: rgb(255, 255, 255);"/>
	<path class="st6" d="M2655.3,1047.3c-13.1,19.7-44.4,21.8-44.4,21.8s-10-29.7,3.1-49.4c13.1-19.7,44.4-21.8,44.4-21.8&#10;&#9;&#9;S2668.4,1027.6,2655.3,1047.3z" style="clip-path: url('#SVGID_2_'); fill: rgb(255, 255, 255);"/>
	<path class="st6" d="M2754.7,556.1c-17.9,15.4-48.6,9.1-48.6,9.1s-1.7-31.3,16.1-46.8c17.9-15.4,48.6-9.1,48.6-9.1&#10;&#9;&#9;S2772.6,540.7,2754.7,556.1z" style="clip-path: url('#SVGID_2_'); fill: rgb(255, 255, 255);"/>
	<path class="st6" d="M2048.7,1682.4c-19,14-49.2,5.4-49.2,5.4s0.7-31.4,19.7-45.4c19-14,49.2-5.4,49.2-5.4&#10;&#9;&#9;S2067.7,1668.4,2048.7,1682.4z" style="clip-path: url('#SVGID_2_'); fill: rgb(255, 255, 255);"/>
	<path class="st6" d="M2506.8,1906.7c-19,14-49.2,5.4-49.2,5.4s0.7-31.4,19.7-45.4s49.2-5.4,49.2-5.4S2525.8,1892.6,2506.8,1906.7z" style="clip-path: url('#SVGID_2_'); fill: rgb(255, 255, 255);"/>
	<path class="st6" d="M2798.3,1466c-19,14-49.2,5.4-49.2,5.4s0.7-31.4,19.7-45.4c19-14,49.2-5.4,49.2-5.4S2817.3,1452,2798.3,1466z" style="clip-path: url('#SVGID_2_'); fill: rgb(255, 255, 255);"/>
	<path class="st6" d="M1547.1,1854c-15.8-17.6-10.2-48.4-10.2-48.4s31.3-2.4,47.1,15.2c15.8,17.6,10.2,48.4,10.2,48.4&#10;&#9;&#9;S1562.9,1871.5,1547.1,1854z" style="clip-path: url('#SVGID_2_'); fill: rgb(255, 255, 255);"/>
	<path class="st6" d="M1758.8,1020.4c-15.8-17.6-10.2-48.4-10.2-48.4s31.3-2.4,47.1,15.2c15.8,17.6,10.2,48.4,10.2,48.4&#10;&#9;&#9;S1774.6,1038,1758.8,1020.4z" style="clip-path: url('#SVGID_2_'); fill: rgb(255, 255, 255);"/>
	<path class="st6" d="M1382.3,425.2c-15.8-17.6-10.2-48.4-10.2-48.4s31.3-2.4,47.1,15.2c15.8,17.6,10.2,48.4,10.2,48.4&#10;&#9;&#9;S1398.1,442.8,1382.3,425.2z" style="clip-path: url('#SVGID_2_'); fill: rgb(255, 255, 255);"/>
	<path class="st6" d="M1097.9,1739.7c-22.2-8.1-31.7-38-31.7-38s26.5-16.8,48.7-8.8c22.2,8.1,31.7,38,31.7,38&#10;&#9;&#9;S1120.1,1747.8,1097.9,1739.7z" style="clip-path: url('#SVGID_2_'); fill: rgb(255, 255, 255);"/>
	<path class="st6" d="M-8.5,1241.8c-22.2-8.1-31.7-38-31.7-38s26.5-16.8,48.7-8.8s31.7,38,31.7,38S13.7,1249.8-8.5,1241.8z" style="clip-path: url('#SVGID_2_'); fill: rgb(255, 255, 255);"/>
	<path class="st6" d="M234,1884.4c-22.2-8.1-31.7-38-31.7-38s26.5-16.8,48.7-8.8s31.7,38,31.7,38S256.2,1892.5,234,1884.4z" style="clip-path: url('#SVGID_2_'); fill: rgb(255, 255, 255);"/>
	<path class="st6" d="M193.8,232.9c-22.2-8.1-31.7-38-31.7-38s26.5-16.8,48.7-8.8s31.7,38,31.7,38S216,241,193.8,232.9z" style="clip-path: url('#SVGID_2_'); fill: rgb(255, 255, 255);"/>
	<path class="st6" d="M388,1247.7c-23.6,1.3-44.1-22.5-44.1-22.5s17.8-25.9,41.4-27.1c23.6-1.3,44.1,22.5,44.1,22.5&#10;&#9;&#9;S411.6,1246.4,388,1247.7z" style="clip-path: url('#SVGID_2_'); fill: rgb(255, 255, 255);"/>
	<path class="st6" d="M1803.3,129.4c-19.6-13.1-21.7-44.5-21.7-44.5s29.8-10,49.4,3.1c19.6,13.1,21.7,44.5,21.7,44.5&#10;&#9;&#9;S1823,142.6,1803.3,129.4z" style="clip-path: url('#SVGID_2_'); fill: rgb(255, 255, 255);"/>
	<path class="st6" d="M1099.7,11.1c-10.6,21.1-41.4,27.1-41.4,27.1s-13.7-28.3-3.1-49.4s41.4-27.1,41.4-27.1S1110.2-10,1099.7,11.1z&#10;&#9;&#9;" style="clip-path: url('#SVGID_2_'); fill: rgb(255, 255, 255);"/>
	<path class="st6" d="M2595.6,1296.8c-19,14-49.2,5.4-49.2,5.4s0.7-31.4,19.7-45.4c19-14,49.2-5.4,49.2-5.4&#10;&#9;&#9;S2614.6,1282.8,2595.6,1296.8z" style="clip-path: url('#SVGID_2_'); fill: rgb(255, 255, 255);"/>
	<path class="st6" d="M1538.3,1238.9c-19.5-13.3-21.3-44.7-21.3-44.7s29.8-9.7,49.4,3.6c19.5,13.3,21.3,44.7,21.3,44.7&#10;&#9;&#9;S1557.8,1252.3,1538.3,1238.9z" style="clip-path: url('#SVGID_2_'); fill: rgb(255, 255, 255);"/>
	<path class="st6" d="M1408.2,979.9c-19.5-13.3-21.3-44.7-21.3-44.7s29.8-9.7,49.4,3.6c19.5,13.3,21.3,44.7,21.3,44.7&#10;&#9;&#9;S1427.7,993.2,1408.2,979.9z" style="clip-path: url('#SVGID_2_'); fill: rgb(255, 255, 255);"/>
	<path class="st6" d="M1248.5,783.2c-15.6,17.7-47,15.7-47,15.7s-6-30.8,9.6-48.6c15.6-17.7,47-15.7,47-15.7&#10;&#9;&#9;S1264.1,765.5,1248.5,783.2z" style="clip-path: url('#SVGID_2_'); fill: rgb(255, 255, 255);"/>
	<path class="st6" d="M1264.8,548.1c-15.6,17.7-47,15.7-47,15.7s-6-30.8,9.6-48.6c15.6-17.7,47-15.7,47-15.7&#10;&#9;&#9;S1280.5,530.3,1264.8,548.1z" style="clip-path: url('#SVGID_2_'); fill: rgb(255, 255, 255);"/>
	<path class="st6" d="M652,1131.2c-19.5-13.3-21.3-44.7-21.3-44.7s29.8-9.7,49.4,3.6c19.5,13.3,21.3,44.7,21.3,44.7&#10;&#9;&#9;S671.6,1144.5,652,1131.2z" style="clip-path: url('#SVGID_2_'); fill: rgb(255, 255, 255);"/>
	<path class="st6" d="M103.4,928c-19.5-13.3-21.3-44.7-21.3-44.7s29.8-9.7,49.4,3.6s21.3,44.7,21.3,44.7S122.9,941.3,103.4,928z" style="clip-path: url('#SVGID_2_'); fill: rgb(255, 255, 255);"/>
	<path class="st6" d="M-14,819.5c-19.5-13.3-21.3-44.7-21.3-44.7s29.8-9.7,49.4,3.6s21.3,44.7,21.3,44.7S5.5,832.8-14,819.5z" style="clip-path: url('#SVGID_2_'); fill: rgb(255, 255, 255);"/>
	<path class="st6" d="M123.5,1610.9c-19.5-13.3-21.3-44.7-21.3-44.7s29.8-9.7,49.4,3.6c19.5,13.3,21.3,44.7,21.3,44.7&#10;&#9;&#9;S143,1624.2,123.5,1610.9z" style="clip-path: url('#SVGID_2_'); fill: rgb(255, 255, 255);"/>
	<path class="st6" d="M552.6,812.3c-8.7-22,7.4-48.9,7.4-48.9s30.2,8.7,38.9,30.7c8.7,22-7.4,48.9-7.4,48.9S561.3,834.2,552.6,812.3&#10;&#9;&#9;z" style="clip-path: url('#SVGID_2_'); fill: rgb(255, 255, 255);"/>
	<path class="st6" d="M497.2,90.5c-8.7-22,7.4-48.9,7.4-48.9s30.2,8.7,38.9,30.7c8.7,22-7.4,48.9-7.4,48.9S505.9,112.4,497.2,90.5z" style="clip-path: url('#SVGID_2_'); fill: rgb(255, 255, 255);"/>
	<path class="st6" d="M907.7,339.4c-8.7-22,7.4-48.9,7.4-48.9s30.2,8.7,38.9,30.7s-7.4,48.9-7.4,48.9S916.4,361.4,907.7,339.4z" style="clip-path: url('#SVGID_2_'); fill: rgb(255, 255, 255);"/>
	<path class="st6" d="M120,784.7c-8.7-22,7.4-48.9,7.4-48.9s30.2,8.7,38.9,30.7c8.7,22-7.4,48.9-7.4,48.9S128.7,806.7,120,784.7z" style="clip-path: url('#SVGID_2_'); fill: rgb(255, 255, 255);"/>
	<path class="st6" d="M908.6,1755.7c-22.3-7.9-32-37.8-32-37.8s26.4-17,48.7-9.1s32,37.8,32,37.8S930.9,1763.6,908.6,1755.7z" style="clip-path: url('#SVGID_2_'); fill: rgb(255, 255, 255);"/>
	<path class="st7" d="M1482,175.9c38.3-9.3,78.7,22.1,78.7,22.1s-21.5,46.5-59.8,55.8c-38.3,9.3-78.7-22.1-78.7-22.1&#10;&#9;&#9;S1443.8,185.2,1482,175.9z" style="clip-path: url('#SVGID_2_'); fill: rgb(26, 156, 157);"/>
	<path class="st7" d="M901.4,682.6c28-27.7,78.9-21.5,78.9-21.5s5.4,50.9-22.6,78.6s-78.9,21.5-78.9,21.5S873.4,710.2,901.4,682.6z" style="clip-path: url('#SVGID_2_'); fill: rgb(26, 156, 157);"/>
	<path class="st7" d="M1596.9,1077.5c37.7,11.3,56.7,58.9,56.7,58.9s-42.1,29.2-79.8,17.9c-37.7-11.3-56.7-58.9-56.7-58.9&#10;&#9;&#9;S1559.2,1066.2,1596.9,1077.5z" style="clip-path: url('#SVGID_2_'); fill: rgb(26, 156, 157);"/>
	<path class="st7" d="M489.5,1318.9c30.8,24.5,30.8,75.8,30.8,75.8s-49.9,11.5-80.7-13.1s-30.8-75.8-30.8-75.8&#10;&#9;&#9;S458.7,1294.4,489.5,1318.9z" style="clip-path: url('#SVGID_2_'); fill: rgb(26, 156, 157);"/>
	<path class="st7" d="M1638.5,1485c23.6,31.5,10.6,81.1,10.6,81.1s-51.2-1.5-74.8-33c-23.6-31.5-10.6-81.1-10.6-81.1&#10;&#9;&#9;S1614.9,1453.5,1638.5,1485z" style="clip-path: url('#SVGID_2_'); fill: rgb(26, 156, 157);"/>
	<path class="st7" d="M2228.2,999c38.3,9.1,60.2,55.4,60.2,55.4s-40.3,31.7-78.6,22.6c-38.3-9.1-60.2-55.4-60.2-55.4&#10;&#9;&#9;S2189.9,989.9,2228.2,999z" style="clip-path: url('#SVGID_2_'); fill: rgb(26, 156, 157);"/>
	<path class="st7" d="M2598.3,359c39.2-3.1,74.2,34.3,74.2,34.3s-28.7,42.5-67.9,45.6c-39.2,3.1-74.2-34.3-74.2-34.3&#10;&#9;&#9;S2559,362.1,2598.3,359z" style="clip-path: url('#SVGID_2_'); fill: rgb(26, 156, 157);"/>
	<path class="st7" d="M1896.6,445.7c37.9,10.6,57.9,57.7,57.9,57.7s-41.5,30-79.4,19.5c-37.9-10.6-57.9-57.7-57.9-57.7&#10;&#9;&#9;S1858.6,435.1,1896.6,445.7z" style="clip-path: url('#SVGID_2_'); fill: rgb(26, 156, 157);"/>
	<path class="st7" d="M1895.2,1138.8c38.3-9.3,78.7,22.1,78.7,22.1s-21.5,46.5-59.8,55.8s-78.7-22.1-78.7-22.1&#10;&#9;&#9;S1856.9,1148.1,1895.2,1138.8z" style="clip-path: url('#SVGID_2_'); fill: rgb(26, 156, 157);"/>
	<path class="st7" d="M2336.7,215.9c38.3-9.3,78.7,22.1,78.7,22.1s-21.5,46.5-59.8,55.8c-38.3,9.3-78.7-22.1-78.7-22.1&#10;&#9;&#9;S2298.5,225.2,2336.7,215.9z" style="clip-path: url('#SVGID_2_'); fill: rgb(26, 156, 157);"/>
	<path class="st7" d="M2086.3,86.3c27.8,27.9,22,78.8,22,78.8s-50.9,5.7-78.7-22.2s-22-78.8-22-78.8S2058.5,58.4,2086.3,86.3z" style="clip-path: url('#SVGID_2_'); fill: rgb(26, 156, 157);"/>
	<path class="st7" d="M842.5,1310.3c39.2-3.4,74.4,33.9,74.4,33.9s-28.4,42.7-67.6,46c-39.2,3.4-74.4-33.9-74.4-33.9&#10;&#9;&#9;S803.3,1313.7,842.5,1310.3z" style="clip-path: url('#SVGID_2_'); fill: rgb(26, 156, 157);"/>
	<path class="st7" d="M815.8,1574.9c38.3-9.3,78.7,22.1,78.7,22.1s-21.5,46.5-59.8,55.8s-78.7-22.1-78.7-22.1&#10;&#9;&#9;S777.5,1584.3,815.8,1574.9z" style="clip-path: url('#SVGID_2_'); fill: rgb(26, 156, 157);"/>
	<path class="st7" d="M421.2,1000.9c32-22.9,81.3-8.9,81.3-8.9s-2.6,51.2-34.6,74.1s-81.3,8.9-81.3,8.9S389.2,1023.8,421.2,1000.9z" style="clip-path: url('#SVGID_2_'); fill: rgb(26, 156, 157);"/>
	<path class="st7" d="M281.7,379.8c28.3,27.4,23.3,78.4,23.3,78.4s-50.8,6.6-79.1-20.8S202.6,359,202.6,359S253.4,352.4,281.7,379.8&#10;&#9;&#9;z" style="clip-path: url('#SVGID_2_'); fill: rgb(26, 156, 157);"/>
	<path class="st7" d="M1058.6,391.1c38.3-9.3,78.7,22.1,78.7,22.1s-21.5,46.5-59.8,55.8s-78.7-22.1-78.7-22.1&#10;&#9;&#9;S1020.3,400.5,1058.6,391.1z" style="clip-path: url('#SVGID_2_'); fill: rgb(26, 156, 157);"/>
	<path class="st7" d="M1742.7,712.8c38.8,6.8,63.3,51.8,63.3,51.8s-38.4,34-77.1,27.1c-38.8-6.8-63.3-51.8-63.3-51.8&#10;&#9;&#9;S1704,706,1742.7,712.8z" style="clip-path: url('#SVGID_2_'); fill: rgb(26, 156, 157);"/>
	<path class="st7" d="M2541.9,925.4c33.3,21,39,71.9,39,71.9s-48.4,16.9-81.7-4.1c-33.3-21-39-71.9-39-71.9&#10;&#9;&#9;S2508.6,904.4,2541.9,925.4z" style="clip-path: url('#SVGID_2_'); fill: rgb(26, 156, 157);"/>
	<path class="st7" d="M2159,1705.2c38.3,9.1,60.1,55.5,60.1,55.5s-40.3,31.6-78.6,22.5c-38.3-9.1-60.1-55.5-60.1-55.5&#10;&#9;&#9;S2120.7,1696.1,2159,1705.2z" style="clip-path: url('#SVGID_2_'); fill: rgb(26, 156, 157);"/>
	<path class="st7" d="M1320.2,1519.9c37.1-13.1,80.5,14.2,80.5,14.2s-16.8,48.4-54,61.5c-37.1,13.1-80.5-14.2-80.5-14.2&#10;&#9;&#9;S1283.1,1533,1320.2,1519.9z" style="clip-path: url('#SVGID_2_'); fill: rgb(26, 156, 157);"/>
	<path class="st7" d="M2209.5,578.3c38.3-9.3,78.7,22.1,78.7,22.1s-21.5,46.5-59.8,55.8c-38.3,9.3-78.7-22.1-78.7-22.1&#10;&#9;&#9;S2171.2,587.6,2209.5,578.3z" style="clip-path: url('#SVGID_2_'); fill: rgb(26, 156, 157);"/>
	<path class="st7" d="M743.1,217c30.5-24.9,80.6-13.9,80.6-13.9s0.6,51.2-30,76.1c-30.5,24.9-80.6,13.9-80.6,13.9&#10;&#9;&#9;S712.5,241.9,743.1,217z" style="clip-path: url('#SVGID_2_'); fill: rgb(26, 156, 157);"/>
	<path class="st7" d="M2562.7,1692.2c39.4-0.6,71.9,39,71.9,39s-31.3,40.6-70.7,41.2c-39.4,0.6-71.9-39-71.9-39&#10;&#9;&#9;S2523.4,1692.8,2562.7,1692.2z" style="clip-path: url('#SVGID_2_'); fill: rgb(26, 156, 157);"/>
	<path class="st2" d="M2752.8,1759.9c34.3-19.3,81.8,0,81.8,0s-8.2,50.6-42.5,69.9c-34.3,19.3-81.8,0-81.8,0&#10;&#9;&#9;S2718.5,1779.2,2752.8,1759.9z" style="clip-path: url('#SVGID_2_'); fill: rgb(0, 108, 109);"/>
	<path class="st7" d="M1872.4,1522.7c39.3-1.7,73,37,73,37s-30.2,41.4-69.5,43.1c-39.3,1.7-73-37-73-37S1833,1524.4,1872.4,1522.7z" style="clip-path: url('#SVGID_2_'); fill: rgb(26, 156, 157);"/>
	<path class="st7" d="M421.1,1796.6c38.3-9.3,78.7,22.1,78.7,22.1s-21.5,46.5-59.8,55.8s-78.7-22.1-78.7-22.1&#10;&#9;&#9;S382.8,1805.9,421.1,1796.6z" style="clip-path: url('#SVGID_2_'); fill: rgb(26, 156, 157);"/>
	<path class="st7" d="M868.9,1002.5c19-34.5,69.5-43.1,69.5-43.1s19.7,47.3,0.7,81.8c-19,34.5-69.5,43.1-69.5,43.1&#10;&#9;&#9;S849.9,1037,868.9,1002.5z" style="clip-path: url('#SVGID_2_'); fill: rgb(26, 156, 157);"/>
	<path class="st7" d="M486.2,631.5c38.3-9.3,78.7,22.1,78.7,22.1s-21.5,46.5-59.8,55.8c-38.3,9.3-78.7-22.1-78.7-22.1&#10;&#9;&#9;S448,640.8,486.2,631.5z" style="clip-path: url('#SVGID_2_'); fill: rgb(26, 156, 157);"/>
	<path class="st7" d="M1121.8,1243.2c17.6-35.2,67.8-45.8,67.8-45.8s21.6,46.5,3.9,81.7s-67.8,45.8-67.8,45.8&#10;&#9;&#9;S1104.1,1278.4,1121.8,1243.2z" style="clip-path: url('#SVGID_2_'); fill: rgb(26, 156, 157);"/>
	<path class="st2" d="M2324.9,1578.2c-20.1-33.9-1.9-81.8-1.9-81.8s50.8,7,70.8,40.9c20.1,33.9,1.9,81.8,1.9,81.8&#10;&#9;&#9;S2345,1612.1,2324.9,1578.2z" style="clip-path: url('#SVGID_2_'); fill: rgb(0, 108, 109);"/>
	<path class="st2" d="M1525.5,908.8c-1.3-39.3,37.7-72.6,37.7-72.6s41.1,30.6,42.4,69.9c1.3,39.3-37.7,72.6-37.7,72.6&#10;&#9;&#9;S1526.8,948.1,1525.5,908.8z" style="clip-path: url('#SVGID_2_'); fill: rgb(0, 108, 109);"/>
	<path class="st2" d="M1043.2,917.2c-1.3-39.3,37.7-72.6,37.7-72.6s41.1,30.6,42.4,69.9c1.3,39.3-37.7,72.6-37.7,72.6&#10;&#9;&#9;S1044.5,956.6,1043.2,917.2z" style="clip-path: url('#SVGID_2_'); fill: rgb(0, 108, 109);"/>
	<path class="st2" d="M330.5,762.4c-23-32-9-81.3-9-81.3s51.2,2.5,74.1,34.5c23,32,9,81.3,9,81.3S353.4,794.3,330.5,762.4z" style="clip-path: url('#SVGID_2_'); fill: rgb(0, 108, 109);"/>
	<path class="st2" d="M565,1510.3c-1.3-39.3,37.7-72.6,37.7-72.6s41.1,30.6,42.4,69.9s-37.7,72.6-37.7,72.6S566.3,1549.7,565,1510.3&#10;&#9;&#9;z" style="clip-path: url('#SVGID_2_'); fill: rgb(0, 108, 109);"/>
	<path class="st2" d="M944.7,1545.9c-23.4-31.7-10.1-81.2-10.1-81.2s51.2,1.8,74.6,33.5c23.4,31.7,10.1,81.2,10.1,81.2&#10;&#9;&#9;S968.1,1577.6,944.7,1545.9z" style="clip-path: url('#SVGID_2_'); fill: rgb(0, 108, 109);"/>
	<path class="st2" d="M296.5,1542.3c35.3-17.4,81.7,4.4,81.7,4.4s-10.9,50.1-46.2,67.5s-81.7-4.4-81.7-4.4&#10;&#9;&#9;S261.2,1559.7,296.5,1542.3z" style="clip-path: url('#SVGID_2_'); fill: rgb(0, 108, 109);"/>
	<path class="st2" d="M647.5,528.3c10.8-37.9,58.1-57.5,58.1-57.5s29.8,41.7,19,79.6c-10.8,37.9-58.1,57.5-58.1,57.5&#10;&#9;&#9;S636.7,566.2,647.5,528.3z" style="clip-path: url('#SVGID_2_'); fill: rgb(0, 108, 109);"/>
	<path class="st2" d="M256.7,528.6c28.4-27.2,79.2-20.4,79.2-20.4s4.7,51-23.7,78.3S233,606.9,233,606.9S228.3,555.9,256.7,528.6z" style="clip-path: url('#SVGID_2_'); fill: rgb(0, 108, 109);"/>
	<path class="st2" d="M1699.7,382.7c-38.8-6.4-63.8-51.2-63.8-51.2s38-34.4,76.9-27.9c38.8,6.4,63.8,51.2,63.8,51.2&#10;&#9;&#9;S1738.5,389.1,1699.7,382.7z" style="clip-path: url('#SVGID_2_'); fill: rgb(0, 108, 109);"/>
	<path class="st2" d="M2118.3,202.3c11.6-37.6,59.3-56.3,59.3-56.3s28.9,42.3,17.3,79.9c-11.6,37.6-59.3,56.3-59.3,56.3&#10;&#9;&#9;S2106.6,239.9,2118.3,202.3z" style="clip-path: url('#SVGID_2_'); fill: rgb(0, 108, 109);"/>
	<path class="st2" d="M2248.1,453.8c16.7-35.7,66.5-47.6,66.5-47.6s22.8,45.9,6.1,81.6c-16.7,35.7-66.5,47.6-66.5,47.6&#10;&#9;&#9;S2231.4,489.4,2248.1,453.8z" style="clip-path: url('#SVGID_2_'); fill: rgb(0, 108, 109);"/>
	<path class="st2" d="M2341.8,802.6c18.7-36.4,70-47.3,70-47.3s20.8,48,2.1,84.4c-18.7,36.4-70,47.3-70,47.3&#10;&#9;&#9;S2323.1,839,2341.8,802.6z" style="clip-path: url('#SVGID_2_'); fill: rgb(0, 108, 109);"/>
	<path class="st2" d="M2038.6,1088.3c-39.1,4.6-75.5-31.5-75.5-31.5s27-43.5,66.1-48.1s75.5,31.5,75.5,31.5&#10;&#9;&#9;S2077.7,1083.7,2038.6,1088.3z" style="clip-path: url('#SVGID_2_'); fill: rgb(0, 108, 109);"/>
	<path class="st2" d="M1910.7,1366.4c23.5-31.6,74.7-33.2,74.7-33.2s13.1,49.5-10.5,81.1c-23.5,31.6-74.7,33.2-74.7,33.2&#10;&#9;&#9;S1887.1,1398,1910.7,1366.4z" style="clip-path: url('#SVGID_2_'); fill: rgb(0, 108, 109);"/>
	<path class="st2" d="M2661.7,1404c-38.6,7.8-77.8-25.1-77.8-25.1s23.3-45.6,61.9-53.5c38.6-7.8,77.8,25.1,77.8,25.1&#10;&#9;&#9;S2700.3,1396.1,2661.7,1404z" style="clip-path: url('#SVGID_2_'); fill: rgb(0, 108, 109);"/>
	<path class="st2" d="M1652.6,1319.8c-24.7-30.7-13.4-80.7-13.4-80.7s51.2-0.2,75.9,30.5c24.7,30.7,13.4,80.7,13.4,80.7&#10;&#9;&#9;S1677.3,1350.4,1652.6,1319.8z" style="clip-path: url('#SVGID_2_'); fill: rgb(0, 108, 109);"/>
	<path class="st2" d="M1106.4,1559.1c-1.3-39.3,37.7-72.6,37.7-72.6s41.1,30.6,42.4,69.9c1.3,39.3-37.7,72.6-37.7,72.6&#10;&#9;&#9;S1107.7,1598.4,1106.4,1559.1z" style="clip-path: url('#SVGID_2_'); fill: rgb(0, 108, 109);"/>
	<path class="st2" d="M823.5,1211c-32.6-22-36.7-73.1-36.7-73.1s48.9-15.4,81.5,6.7c32.6,22,36.7,73.1,36.7,73.1&#10;&#9;&#9;S856.1,1233,823.5,1211z" style="clip-path: url('#SVGID_2_'); fill: rgb(0, 108, 109);"/>
	<path class="st7" d="M1445.9,710.7c10.1-38.1,57-58.7,57-58.7s30.6,41.1,20.5,79.2c-10.1,38.1-57,58.7-57,58.7&#10;&#9;&#9;S1435.9,748.7,1445.9,710.7z" style="clip-path: url('#SVGID_2_'); fill: rgb(26, 156, 157);"/>
	<path class="st2" d="M2117.8,810.9c10.1-38.1,57-58.7,57-58.7s30.6,41.1,20.5,79.2c-10.1,38.1-57,58.7-57,58.7&#10;&#9;&#9;S2107.7,849,2117.8,810.9z" style="clip-path: url('#SVGID_2_'); fill: rgb(0, 108, 109);"/>
	<path class="st7" d="M449.5,183c37.2,13,54.1,61.4,54.1,61.4s-43.4,27.3-80.5,14.3c-37.2-13-54.1-61.4-54.1-61.4&#10;&#9;&#9;S412.4,170,449.5,183z" style="clip-path: url('#SVGID_2_'); fill: rgb(26, 156, 157);"/>
	<path class="st7" d="M195,1358c38.7,7.4,62.5,52.7,62.5,52.7s-38.9,33.4-77.5,26c-38.7-7.4-62.5-52.7-62.5-52.7&#10;&#9;&#9;S156.3,1350.6,195,1358z" style="clip-path: url('#SVGID_2_'); fill: rgb(26, 156, 157);"/>
	<path class="st7" d="M2513.9,670.5c20.1-33.8,70.9-40.8,70.9-40.8s18.1,47.9-2,81.8c-20.1,33.8-70.9,40.8-70.9,40.8&#10;&#9;&#9;S2493.8,704.3,2513.9,670.5z" style="clip-path: url('#SVGID_2_'); fill: rgb(26, 156, 157);"/>
	<path class="st3" d="M1813.9,1171c-33.8,20.2-81.8,2.2-81.8,2.2s6.8-50.8,40.6-71c33.8-20.2,81.8-2.2,81.8-2.2&#10;&#9;&#9;S1847.7,1150.8,1813.9,1171z" style="clip-path: url('#SVGID_2_'); fill: rgb(166, 206, 57);"/>
	<path class="st3" d="M526.1,1731c-38.2-9.7-59.2-56.4-59.2-56.4s40.8-31,79-21.3s59.2,56.4,59.2,56.4S564.3,1740.7,526.1,1731z" style="clip-path: url('#SVGID_2_'); fill: rgb(166, 206, 57);"/>
	<path class="st3" d="M777.2,1107.9c-38.2-9.7-59.2-56.4-59.2-56.4s40.8-31,79-21.3c38.2,9.7,59.2,56.4,59.2,56.4&#10;&#9;&#9;S815.3,1117.6,777.2,1107.9z" style="clip-path: url('#SVGID_2_'); fill: rgb(166, 206, 57);"/>
	<path class="st3" d="M633.7,773.4c-38.2-9.7-59.2-56.4-59.2-56.4s40.8-31,79-21.3c38.2,9.7,59.2,56.4,59.2,56.4&#10;&#9;&#9;S671.9,783.1,633.7,773.4z" style="clip-path: url('#SVGID_2_'); fill: rgb(166, 206, 57);"/>
	<path class="st3" d="M107.6,628.4C69.4,618.7,48.3,572,48.3,572s40.8-31,79-21.3c38.2,9.7,59.2,56.4,59.2,56.4&#10;&#9;&#9;S145.7,638.1,107.6,628.4z" style="clip-path: url('#SVGID_2_'); fill: rgb(166, 206, 57);"/>
	<path class="st3" d="M2186.4,1273.2c-15.7,36.1-65.1,49.4-65.1,49.4s-24.1-45.2-8.4-81.4s65.1-49.4,65.1-49.4&#10;&#9;&#9;S2202,1237.1,2186.4,1273.2z" style="clip-path: url('#SVGID_2_'); fill: rgb(166, 206, 57);"/>
	<path class="st3" d="M2025.8,831c-15.7,36.1-65.1,49.4-65.1,49.4s-24.1-45.2-8.4-81.4c15.7-36.1,65.1-49.4,65.1-49.4&#10;&#9;&#9;S2041.5,794.8,2025.8,831z" style="clip-path: url('#SVGID_2_'); fill: rgb(166, 206, 57);"/>
</g>


<g>
	<path d="M 406.399994 974.400024 A 21 21 0 0 1 385.399994 995.400024 A 21 21 0 0 1 364.399994 974.400024 A 21 21 0 0 1 385.399994 953.400024 A 21 21 0 0 1 406.399994 974.400024 Z" class="st10" style="fill: rgb(166, 206, 57);"/>
	<path d="M 2435.600098 974.400024 A 21 21 0 0 1 2414.600098 995.400024 A 21 21 0 0 1 2393.600098 974.400024 A 21 21 0 0 1 2414.600098 953.400024 A 21 21 0 0 1 2435.600098 974.400024 Z" class="st10" style="fill: rgb(166, 206, 57);"/>
</g>
</svg>